G04*
G04 #@! TF.GenerationSoftware,Altium Limited,Altium Designer,20.2.7 (254)*
G04*
G04 Layer_Color=32896*
%FSLAX25Y25*%
%MOIN*%
G70*
G04*
G04 #@! TF.SameCoordinates,4998CC98-4955-4D50-BC1E-778ED6EA16F9*
G04*
G04*
G04 #@! TF.FilePolarity,Positive*
G04*
G01*
G75*
G36*
X56182Y92416D02*
X57082Y92341D01*
X57832Y92266D01*
X58582Y92191D01*
X59181Y92041D01*
X59706Y91891D01*
X60231Y91816D01*
X60906Y91516D01*
X61356Y91291D01*
X61581Y91141D01*
X61656Y91066D01*
X61881Y90766D01*
X62106Y90316D01*
X62331Y89866D01*
X62481Y89266D01*
X62706Y88067D01*
X62931Y86717D01*
X63006Y85442D01*
Y84842D01*
X63081Y84392D01*
Y41348D01*
X64281Y41423D01*
X65406Y41648D01*
X66380Y41948D01*
X67205Y42323D01*
X67880Y42698D01*
X68330Y42998D01*
X68705Y43223D01*
X68780Y43298D01*
X69605Y44047D01*
X70205Y44872D01*
X70580Y45622D01*
X70880Y46297D01*
X71030Y46972D01*
X71180Y47422D01*
Y48397D01*
X71030Y48997D01*
X70805Y50347D01*
X70655Y50947D01*
X70580Y51472D01*
X70430Y51771D01*
Y51921D01*
X70055Y53721D01*
X69755Y55146D01*
X69530Y56346D01*
X69380Y57396D01*
X69305Y58221D01*
X69230Y58895D01*
X69155Y59345D01*
Y59720D01*
X69230Y60770D01*
X69380Y61820D01*
X69680Y62795D01*
X69980Y63770D01*
X70880Y65420D01*
X71930Y66844D01*
X72380Y67519D01*
X72905Y68044D01*
X73355Y68494D01*
X73804Y68869D01*
X74104Y69244D01*
X74404Y69469D01*
X74554Y69544D01*
X74629Y69619D01*
X75529Y70594D01*
X76429Y71269D01*
X77254Y71794D01*
X78079Y72094D01*
X78754Y72319D01*
X79279Y72394D01*
X79579Y72469D01*
X79729D01*
X80479Y72394D01*
X81003Y72094D01*
X81378Y71719D01*
X81603Y71344D01*
X81828Y70894D01*
X81903Y70519D01*
Y70144D01*
X81828Y69544D01*
X81528Y69094D01*
X81078Y68644D01*
X80629Y68269D01*
X80104Y67969D01*
X79729Y67744D01*
X79429Y67594D01*
X79279Y67519D01*
X78304Y67069D01*
X77479Y66545D01*
X76804Y65945D01*
X76129Y65345D01*
X75604Y64670D01*
X75229Y63995D01*
X74854Y63320D01*
X74554Y62720D01*
X74179Y61520D01*
X74029Y60995D01*
X73954Y60470D01*
Y60095D01*
X73879Y59795D01*
Y59570D01*
X73954Y57996D01*
X74104Y57246D01*
X74254Y56571D01*
X74329Y56046D01*
X74479Y55521D01*
X74554Y55221D01*
Y55146D01*
X75004Y53421D01*
X75304Y52296D01*
X75529Y51322D01*
X75679Y50422D01*
X75829Y49672D01*
Y48997D01*
X75904Y48547D01*
Y48097D01*
X75829Y47197D01*
X75754Y46297D01*
X75304Y44722D01*
X74704Y43298D01*
X74029Y42098D01*
X73355Y41123D01*
X72755Y40448D01*
X72305Y39998D01*
X72230Y39923D01*
X72155Y39848D01*
X71405Y39248D01*
X70655Y38798D01*
X69155Y37973D01*
X67580Y37373D01*
X66155Y36998D01*
X64881Y36698D01*
X64356Y36623D01*
X63906D01*
X63531Y36549D01*
X63231D01*
X63081D01*
Y34374D01*
X63006Y33624D01*
X62856Y32349D01*
X62556Y31299D01*
X62256Y30549D01*
X61956Y29949D01*
X61656Y29649D01*
X61506Y29424D01*
X61431Y29349D01*
X61056Y29125D01*
X60681Y28975D01*
X59631Y28675D01*
X58356Y28450D01*
X57082Y28300D01*
X55882Y28225D01*
X55357D01*
X54907Y28150D01*
X54457D01*
X54157D01*
X54007D01*
X53932D01*
X38034D01*
X36984D01*
X36009Y28225D01*
X35110Y28300D01*
X34360Y28375D01*
X33610Y28525D01*
X33010Y28600D01*
X32485Y28749D01*
X32035Y28899D01*
X31360Y29199D01*
X30835Y29424D01*
X30610Y29574D01*
X30535Y29649D01*
X30310Y29949D01*
X30010Y30399D01*
X29635Y31449D01*
X29410Y32649D01*
X29260Y33999D01*
X29110Y35199D01*
Y35724D01*
X29035Y36173D01*
Y84467D01*
X29110Y85442D01*
X29185Y86342D01*
X29260Y87167D01*
X29335Y87842D01*
X29485Y88516D01*
X29635Y89042D01*
X29785Y89491D01*
X30010Y90241D01*
X30235Y90691D01*
X30385Y90916D01*
X30460Y90991D01*
X30760Y91291D01*
X31210Y91516D01*
X31660Y91666D01*
X32260Y91891D01*
X33460Y92116D01*
X34810Y92341D01*
X36009Y92416D01*
X36534D01*
X37059Y92491D01*
X37434D01*
X37734D01*
X37959D01*
X38034D01*
X54007D01*
X55132D01*
X56182Y92416D01*
D02*
G37*
G36*
X32204Y190870D02*
X32879Y190720D01*
X33479Y190420D01*
X34079Y190120D01*
X35354Y189220D01*
X36479Y188245D01*
X37453Y187270D01*
X38278Y186371D01*
X38578Y186071D01*
X38803Y185771D01*
X38878Y185621D01*
X38953Y185546D01*
X43753Y180071D01*
X50802Y187870D01*
X61750D01*
X61675Y186445D01*
X61473Y185367D01*
X61825Y185696D01*
X63025Y186595D01*
X64000Y187195D01*
X64375Y187420D01*
X64675Y187570D01*
X64900Y187720D01*
X64975D01*
X69399Y177447D01*
X70224Y169873D01*
X71124Y168748D01*
X71874Y167623D01*
X72624Y166423D01*
X73299Y165223D01*
X74349Y162899D01*
X75173Y160724D01*
X75473Y159749D01*
X75698Y158849D01*
X75923Y158024D01*
X76073Y157274D01*
X76223Y156749D01*
X76298Y156299D01*
X76373Y156000D01*
Y155924D01*
X79823Y152400D01*
X79448Y151350D01*
X78923Y150300D01*
X78323Y149325D01*
X77723Y148425D01*
X76223Y146776D01*
X74648Y145426D01*
X73224Y144226D01*
X72549Y143776D01*
X71949Y143401D01*
X71499Y143101D01*
X71124Y142876D01*
X70899Y142801D01*
X70824Y142726D01*
X49377Y158924D01*
X45927Y159299D01*
X42703Y159599D01*
X41203Y159749D01*
X39778Y159824D01*
X38503Y159899D01*
X37229Y159974D01*
X36104Y160049D01*
X35129D01*
X34229D01*
X33479Y160124D01*
X32879D01*
X32504D01*
X32204D01*
X32129D01*
X30929D01*
X29730Y160049D01*
X28680D01*
X27780Y159974D01*
X27030Y159899D01*
X26430D01*
X26055Y159824D01*
X25905D01*
X25830Y160424D01*
Y160874D01*
X25755Y161249D01*
Y161774D01*
X25830Y162824D01*
X26055Y163798D01*
X26430Y164623D01*
X26880Y165298D01*
X27405Y165973D01*
X28080Y166498D01*
X28680Y166948D01*
X29355Y167398D01*
X30704Y167923D01*
X31304Y168148D01*
X31904Y168298D01*
X32354Y168373D01*
X32729Y168448D01*
X32954Y168523D01*
X33029D01*
X34904Y168598D01*
X21556Y175422D01*
X21930Y176247D01*
X22380Y176997D01*
X22830Y177672D01*
X23355Y178272D01*
X23805Y178721D01*
X24330Y179096D01*
X25230Y179696D01*
X26055Y180071D01*
X26805Y180221D01*
X27255Y180296D01*
X27330D01*
X27405D01*
X28455Y180221D01*
X29430Y180071D01*
X30479Y179846D01*
X31379Y179546D01*
X32129Y179321D01*
X32804Y179096D01*
X33179Y178946D01*
X33254Y178872D01*
X33329D01*
X34829Y177822D01*
X26655Y188320D01*
X27630Y189220D01*
X28530Y189820D01*
X29355Y190270D01*
X30105Y190645D01*
X30704Y190795D01*
X31229Y190870D01*
X31529Y190945D01*
X31604D01*
X32204Y190870D01*
D02*
G37*
G36*
X99173Y180775D02*
X99278Y180760D01*
X99518Y180685D01*
X99607Y180640D01*
X99697Y180610D01*
X99757Y180595D01*
X99772Y180580D01*
X99967Y180505D01*
X100132Y180430D01*
X100252Y180385D01*
X100357Y180355D01*
X100432Y180340D01*
X100477Y180325D01*
X100492Y180310D01*
X100507D01*
X101241Y180130D01*
X101601Y180055D01*
X101931Y179980D01*
X102246Y179905D01*
X102545Y179830D01*
X102830Y179770D01*
X103085Y179710D01*
X103325Y179665D01*
X103520Y179620D01*
X103700Y179576D01*
X103850Y179545D01*
X103970Y179516D01*
X104059Y179500D01*
X104119Y179485D01*
X104134D01*
X104539Y179396D01*
X104899Y179336D01*
X105214Y179276D01*
X105454Y179231D01*
X105648Y179186D01*
X105798Y179156D01*
X105873Y179141D01*
X105903D01*
X106038Y179096D01*
X106143Y179051D01*
X106248Y178991D01*
X106323Y178931D01*
X106458Y178796D01*
X106548Y178661D01*
X106593Y178526D01*
X106623Y178436D01*
X106638Y178361D01*
Y178331D01*
X106608Y178256D01*
X106548Y178166D01*
X106443Y178061D01*
X106308Y177927D01*
X106158Y177792D01*
X105978Y177657D01*
X105588Y177357D01*
X105199Y177087D01*
X105034Y176952D01*
X104869Y176847D01*
X104734Y176757D01*
X104629Y176682D01*
X104569Y176637D01*
X104539Y176622D01*
X103999Y176278D01*
X103490Y175948D01*
X103010Y175648D01*
X102800Y175513D01*
X102590Y175393D01*
X102410Y175288D01*
X102246Y175183D01*
X102096Y175093D01*
X101976Y175019D01*
X101871Y174959D01*
X101796Y174914D01*
X101751Y174899D01*
X101736Y174884D01*
X101676Y174704D01*
X101616Y174584D01*
X101541Y174479D01*
X101481Y174419D01*
X101421Y174374D01*
X101376Y174359D01*
X101346Y174344D01*
X101331D01*
X101211D01*
X101106Y174374D01*
X101031Y174389D01*
X101016Y174404D01*
X101002D01*
X100717Y174269D01*
X100462Y174149D01*
X100222Y174029D01*
X100027Y173939D01*
X99847Y173864D01*
X99682Y173804D01*
X99563Y173744D01*
X99442Y173714D01*
X99353Y173669D01*
X99278Y173654D01*
X99218Y173639D01*
X99173Y173624D01*
X99113Y173609D01*
X99098D01*
X98978Y173624D01*
X98888Y173654D01*
X98723Y173729D01*
X98663Y173774D01*
X98618Y173819D01*
X98588Y173834D01*
X98573Y173849D01*
X98513Y173939D01*
X98468Y174029D01*
X98408Y174209D01*
X98393Y174284D01*
X98378Y174344D01*
Y174389D01*
X98393Y174539D01*
X98438Y174674D01*
X98498Y174794D01*
X98573Y174884D01*
X98648Y174959D01*
X98708Y175019D01*
X98753Y175048D01*
X98768Y175064D01*
X99203Y175288D01*
X99563Y175468D01*
X99877Y175618D01*
X100132Y175738D01*
X100342Y175828D01*
X100477Y175903D01*
X100567Y175933D01*
X100597Y175948D01*
X100627Y176143D01*
X100657Y176353D01*
X100672Y176577D01*
X100687Y176787D01*
X100717Y176982D01*
Y177132D01*
X100732Y177192D01*
Y177282D01*
X100762Y177612D01*
X100777Y177882D01*
X100792Y178106D01*
X100822Y178301D01*
X100837Y178436D01*
Y178541D01*
X100852Y178601D01*
Y178616D01*
X100537Y178706D01*
X100252Y178781D01*
X99997Y178871D01*
X99787Y178946D01*
X99607Y179021D01*
X99472Y179081D01*
X99383Y179111D01*
X99368Y179126D01*
X99353D01*
X99173Y179201D01*
X99023Y179291D01*
X98888Y179366D01*
X98783Y179441D01*
X98678Y179516D01*
X98603Y179590D01*
X98468Y179725D01*
X98393Y179830D01*
X98348Y179920D01*
X98333Y179980D01*
Y179995D01*
X98348Y180100D01*
X98363Y180205D01*
X98438Y180385D01*
X98468Y180445D01*
X98498Y180490D01*
X98513Y180520D01*
X98528Y180535D01*
X98618Y180625D01*
X98708Y180685D01*
X98798Y180730D01*
X98873Y180760D01*
X98948Y180775D01*
X99008Y180790D01*
X99053D01*
X99068D01*
X99173Y180775D01*
D02*
G37*
G36*
X105603Y172965D02*
X105783Y172950D01*
X105933Y172935D01*
X106068Y172905D01*
X106173Y172890D01*
X106233Y172875D01*
X106248D01*
X106368Y172845D01*
X106458Y172800D01*
X106623Y172710D01*
X106743Y172605D01*
X106818Y172485D01*
X106863Y172365D01*
X106878Y172275D01*
X106893Y172215D01*
Y172185D01*
X106878Y172065D01*
X106863Y171946D01*
X106818Y171856D01*
X106773Y171766D01*
X106728Y171691D01*
X106698Y171646D01*
X106668Y171616D01*
X106653Y171601D01*
X106668Y171481D01*
X106683Y171376D01*
X106698Y171286D01*
Y171256D01*
X106713Y171106D01*
X106728Y170971D01*
Y170821D01*
X106713Y170552D01*
X106653Y170282D01*
X106578Y170027D01*
X106473Y169772D01*
X106353Y169532D01*
X106218Y169292D01*
X106068Y169082D01*
X105918Y168873D01*
X105753Y168678D01*
X105618Y168513D01*
X105468Y168363D01*
X105349Y168243D01*
X105244Y168138D01*
X105169Y168063D01*
X105109Y168018D01*
X105094Y168003D01*
X104734Y167718D01*
X104374Y167479D01*
X104030Y167254D01*
X103685Y167074D01*
X103355Y166924D01*
X103055Y166789D01*
X102755Y166684D01*
X102486Y166594D01*
X102231Y166534D01*
X102006Y166489D01*
X101796Y166444D01*
X101631Y166429D01*
X101496Y166414D01*
X101406Y166399D01*
X101331D01*
X101316D01*
X101091Y166414D01*
X100882Y166429D01*
X100492Y166519D01*
X100147Y166654D01*
X99847Y166804D01*
X99712Y166879D01*
X99607Y166954D01*
X99502Y167029D01*
X99413Y167089D01*
X99353Y167134D01*
X99308Y167179D01*
X99278Y167194D01*
X99263Y167209D01*
X99098Y167374D01*
X98963Y167538D01*
X98843Y167718D01*
X98738Y167898D01*
X98663Y168078D01*
X98588Y168243D01*
X98483Y168573D01*
X98408Y168873D01*
X98393Y168992D01*
X98378Y169097D01*
X98363Y169187D01*
Y169307D01*
X98378Y169607D01*
X98423Y169892D01*
X98483Y170177D01*
X98558Y170461D01*
X98768Y170971D01*
X98888Y171211D01*
X99008Y171436D01*
X99113Y171646D01*
X99233Y171841D01*
X99338Y171991D01*
X99442Y172140D01*
X99518Y172245D01*
X99577Y172320D01*
X99622Y172380D01*
X99637Y172395D01*
X99727Y172500D01*
X99832Y172575D01*
X99922Y172620D01*
X100012Y172665D01*
X100087Y172680D01*
X100147Y172695D01*
X100192D01*
X100207D01*
X100312Y172680D01*
X100402Y172665D01*
X100567Y172590D01*
X100627Y172545D01*
X100672Y172500D01*
X100702Y172485D01*
X100717Y172470D01*
X100807Y172380D01*
X100867Y172290D01*
X100911Y172200D01*
X100942Y172110D01*
X100956Y172036D01*
X100971Y171976D01*
Y171916D01*
X100956Y171826D01*
X100926Y171721D01*
X100822Y171496D01*
X100762Y171406D01*
X100717Y171331D01*
X100687Y171271D01*
X100672Y171256D01*
X100522Y171031D01*
X100417Y170851D01*
X100327Y170701D01*
X100252Y170597D01*
X100207Y170507D01*
X100177Y170461D01*
X100147Y170432D01*
Y170417D01*
X100057Y170207D01*
X99982Y169997D01*
X99937Y169817D01*
X99892Y169652D01*
X99877Y169502D01*
X99862Y169397D01*
Y169307D01*
X99877Y169097D01*
X99922Y168918D01*
X99997Y168753D01*
X100072Y168603D01*
X100147Y168498D01*
X100222Y168408D01*
X100267Y168348D01*
X100282Y168333D01*
X100447Y168198D01*
X100627Y168108D01*
X100807Y168033D01*
X100956Y167988D01*
X101106Y167958D01*
X101211Y167943D01*
X101286D01*
X101316D01*
X101571Y167958D01*
X101811Y168003D01*
X102066Y168063D01*
X102321Y168138D01*
X102785Y168348D01*
X103010Y168468D01*
X103220Y168588D01*
X103415Y168693D01*
X103595Y168813D01*
X103745Y168918D01*
X103880Y169023D01*
X103984Y169097D01*
X104074Y169157D01*
X104119Y169202D01*
X104134Y169217D01*
X104329Y169382D01*
X104494Y169547D01*
X104644Y169697D01*
X104764Y169847D01*
X104869Y169982D01*
X104959Y170117D01*
X105034Y170237D01*
X105094Y170357D01*
X105169Y170552D01*
X105214Y170701D01*
X105229Y170746D01*
Y171031D01*
X105214Y171106D01*
Y171166D01*
X105199Y171211D01*
Y171241D01*
X105184Y171256D01*
X105154Y171301D01*
X105124Y171331D01*
X105019Y171406D01*
X104929Y171451D01*
X104899Y171466D01*
X104884D01*
X104719Y171571D01*
X104584Y171676D01*
X104494Y171811D01*
X104434Y171931D01*
X104404Y172036D01*
X104389Y172125D01*
X104374Y172185D01*
Y172200D01*
X104389Y172350D01*
X104419Y172470D01*
X104464Y172575D01*
X104524Y172665D01*
X104569Y172725D01*
X104614Y172770D01*
X104644Y172800D01*
X104659Y172815D01*
X104749Y172875D01*
X104839Y172905D01*
X105004Y172965D01*
X105064D01*
X105124Y172980D01*
X105154D01*
X105169D01*
X105394D01*
X105603Y172965D01*
D02*
G37*
G36*
X100971Y165785D02*
X101181Y165725D01*
X101376Y165650D01*
X101556Y165560D01*
X101706Y165470D01*
X101811Y165395D01*
X101886Y165335D01*
X101916Y165320D01*
X102096Y165155D01*
X102261Y164990D01*
X102396Y164840D01*
X102500Y164690D01*
X102590Y164570D01*
X102650Y164465D01*
X102680Y164406D01*
X102695Y164376D01*
X102845Y164525D01*
X102980Y164660D01*
X103115Y164780D01*
X103235Y164855D01*
X103325Y164930D01*
X103400Y164975D01*
X103445Y164990D01*
X103460Y165005D01*
X103625Y165080D01*
X103805Y165140D01*
X103984Y165185D01*
X104149Y165215D01*
X104299Y165230D01*
X104419Y165245D01*
X104494D01*
X104524D01*
X104734Y165230D01*
X104944Y165200D01*
X105139Y165140D01*
X105319Y165065D01*
X105663Y164885D01*
X105948Y164690D01*
X106173Y164480D01*
X106263Y164376D01*
X106353Y164301D01*
X106413Y164226D01*
X106458Y164166D01*
X106473Y164136D01*
X106488Y164121D01*
X106608Y163941D01*
X106713Y163761D01*
X106878Y163401D01*
X106998Y163072D01*
X107072Y162772D01*
X107132Y162502D01*
X107147Y162397D01*
Y162307D01*
X107162Y162232D01*
Y161782D01*
X107147Y161497D01*
X107117Y161258D01*
X107102Y161063D01*
X107072Y160913D01*
X107043Y160808D01*
X107027Y160748D01*
Y160733D01*
X106998Y160583D01*
X106967Y160433D01*
X106938Y160313D01*
X106893Y160208D01*
X106788Y160044D01*
X106668Y159924D01*
X106563Y159849D01*
X106488Y159804D01*
X106428Y159774D01*
X106398D01*
X106173Y159744D01*
X105933D01*
X105843D01*
X105768D01*
X105708D01*
X105693D01*
X105423D01*
X105289Y159759D01*
X105184D01*
X105079D01*
X105004Y159774D01*
X104959D01*
X104944D01*
X99083D01*
X98963Y159789D01*
X98858Y159819D01*
X98678Y159909D01*
X98603Y159953D01*
X98543Y159984D01*
X98513Y160013D01*
X98498Y160029D01*
X98408Y160133D01*
X98348Y160223D01*
X98288Y160328D01*
X98258Y160418D01*
X98243Y160508D01*
X98228Y160568D01*
Y160988D01*
X98243Y161333D01*
X98273Y161662D01*
X98303Y161962D01*
X98333Y162247D01*
X98378Y162517D01*
X98423Y162757D01*
X98468Y162981D01*
X98513Y163176D01*
X98558Y163356D01*
X98603Y163506D01*
X98633Y163641D01*
X98663Y163731D01*
X98693Y163806D01*
X98708Y163851D01*
Y163866D01*
X98798Y164076D01*
X98903Y164286D01*
X99008Y164480D01*
X99113Y164645D01*
X99203Y164795D01*
X99278Y164900D01*
X99338Y164960D01*
X99353Y164990D01*
X99472Y165140D01*
X99607Y165260D01*
X99727Y165365D01*
X99847Y165455D01*
X100087Y165605D01*
X100297Y165695D01*
X100477Y165755D01*
X100627Y165785D01*
X100717Y165800D01*
X100732D01*
X100747D01*
X100971Y165785D01*
D02*
G37*
G36*
X98694Y132794D02*
X98799Y132779D01*
X98964Y132704D01*
X99024Y132659D01*
X99069Y132614D01*
X99084Y132599D01*
X99099Y132584D01*
X99174Y132494D01*
X99219Y132404D01*
X99279Y132224D01*
X99294Y132149D01*
X99309Y132104D01*
Y131684D01*
X100628D01*
X101033D01*
X101408D01*
X101767D01*
X102097Y131699D01*
X102397D01*
X102682D01*
X102936D01*
X103161Y131714D01*
X103371D01*
X103536D01*
X103686D01*
X103806Y131729D01*
X103911D01*
X103971D01*
X104016D01*
X104031D01*
X104451Y131744D01*
X104825Y131759D01*
X105140Y131774D01*
X105395Y131789D01*
X105605D01*
X105755D01*
X105800D01*
X105845D01*
X105875D01*
X106070Y131774D01*
X106219Y131714D01*
X106324Y131624D01*
X106399Y131535D01*
X106444Y131445D01*
X106459Y131355D01*
X106474Y131295D01*
Y131280D01*
X106459Y131145D01*
X106429Y130995D01*
X106384Y130860D01*
X106324Y130740D01*
X106264Y130635D01*
X106219Y130560D01*
X106189Y130500D01*
X106174Y130485D01*
X105635Y129826D01*
X105185Y129196D01*
X105065Y129076D01*
X104945Y128986D01*
X104840Y128926D01*
X104750Y128881D01*
X104675Y128851D01*
X104615Y128836D01*
X104570D01*
X104555D01*
X104451Y128851D01*
X104361Y128866D01*
X104196Y128956D01*
X104136Y128986D01*
X104091Y129031D01*
X104061Y129046D01*
X104046Y129061D01*
X103971Y129151D01*
X103926Y129241D01*
X103866Y129421D01*
X103851Y129496D01*
X103836Y129556D01*
Y129601D01*
X103851Y129661D01*
X103881Y129751D01*
X103941Y129856D01*
X104001Y129961D01*
X104061Y130066D01*
X104121Y130156D01*
X104151Y130215D01*
X104166Y130230D01*
X99279D01*
Y129976D01*
X99264Y129766D01*
X99249Y129601D01*
X99204Y129436D01*
X99159Y129316D01*
X99099Y129196D01*
X99039Y129106D01*
X98979Y129031D01*
X98904Y128971D01*
X98769Y128881D01*
X98649Y128836D01*
X98559Y128821D01*
X98545D01*
X98529D01*
X98410Y128836D01*
X98320Y128866D01*
X98230Y128911D01*
X98155Y128986D01*
X98050Y129151D01*
X97960Y129346D01*
X97915Y129526D01*
X97900Y129691D01*
X97885Y129766D01*
Y132044D01*
X97900Y132164D01*
X97915Y132269D01*
X97990Y132434D01*
X98020Y132494D01*
X98050Y132539D01*
X98065Y132569D01*
X98080Y132584D01*
X98170Y132659D01*
X98245Y132719D01*
X98335Y132749D01*
X98410Y132779D01*
X98484Y132794D01*
X98545Y132809D01*
X98575D01*
X98589D01*
X98694Y132794D01*
D02*
G37*
G36*
X98724Y126888D02*
X98859Y126828D01*
X98964Y126738D01*
X99054Y126633D01*
X99129Y126513D01*
X99189Y126423D01*
X99219Y126363D01*
X99234Y126333D01*
X99309Y126153D01*
X99354Y125988D01*
X99399Y125838D01*
X99414Y125688D01*
X99429Y125568D01*
X99444Y125479D01*
Y125179D01*
X99429Y124924D01*
Y124639D01*
X99414Y124369D01*
X99399Y124115D01*
Y123905D01*
X99384Y123830D01*
Y123710D01*
X99369Y123500D01*
X99354Y123320D01*
X99339Y123170D01*
X99324Y123050D01*
Y122945D01*
X99309Y122885D01*
Y122825D01*
X99474Y122855D01*
X99624Y122900D01*
X99774Y122960D01*
X99924Y123035D01*
X100178Y123215D01*
X100418Y123410D01*
X100598Y123620D01*
X100748Y123785D01*
X100793Y123860D01*
X100838Y123905D01*
X100868Y123935D01*
Y123950D01*
X101033Y124204D01*
X101183Y124459D01*
X101318Y124684D01*
X101453Y124894D01*
X101558Y125074D01*
X101647Y125209D01*
X101707Y125299D01*
X101722Y125329D01*
X101917Y125584D01*
X102097Y125793D01*
X102277Y125988D01*
X102427Y126138D01*
X102562Y126243D01*
X102667Y126333D01*
X102727Y126378D01*
X102757Y126393D01*
X103012Y126543D01*
X103281Y126648D01*
X103536Y126723D01*
X103791Y126768D01*
X104016Y126813D01*
X104196Y126828D01*
X104256D01*
X104301D01*
X104331D01*
X104346D01*
X104510Y126813D01*
X104675Y126783D01*
X104825Y126753D01*
X104975Y126693D01*
X105230Y126543D01*
X105440Y126393D01*
X105620Y126228D01*
X105740Y126078D01*
X105785Y126018D01*
X105815Y125988D01*
X105845Y125958D01*
Y125943D01*
X106009Y125644D01*
X106144Y125359D01*
X106234Y125059D01*
X106294Y124789D01*
X106324Y124564D01*
X106339Y124459D01*
X106354Y124384D01*
Y124219D01*
X106339Y123935D01*
X106294Y123665D01*
X106219Y123410D01*
X106159Y123185D01*
X106084Y123005D01*
X106009Y122855D01*
X105965Y122765D01*
X105949Y122750D01*
Y122735D01*
X105830Y122540D01*
X105710Y122346D01*
X105560Y122151D01*
X105425Y121971D01*
X105290Y121806D01*
X105185Y121686D01*
X105125Y121596D01*
X105095Y121581D01*
Y121566D01*
X105005Y121476D01*
X104900Y121416D01*
X104810Y121356D01*
X104720Y121326D01*
X104645Y121311D01*
X104585Y121296D01*
X104541D01*
X104525D01*
X104421Y121311D01*
X104316Y121341D01*
X104166Y121431D01*
X104106Y121476D01*
X104061Y121521D01*
X104046Y121551D01*
X104031Y121566D01*
X103956Y121746D01*
X103911Y121911D01*
Y121971D01*
X103896Y122031D01*
Y122076D01*
X103911Y122181D01*
X103971Y122316D01*
X104061Y122466D01*
X104151Y122616D01*
X104241Y122750D01*
X104331Y122870D01*
X104391Y122945D01*
X104406Y122975D01*
X104585Y123215D01*
X104705Y123455D01*
X104795Y123665D01*
X104870Y123845D01*
X104900Y123995D01*
X104915Y124115D01*
X104930Y124189D01*
Y124219D01*
X104915Y124339D01*
X104900Y124459D01*
X104870Y124579D01*
X104825Y124684D01*
X104780Y124774D01*
X104750Y124834D01*
X104735Y124879D01*
X104720Y124894D01*
X104645Y125014D01*
X104570Y125104D01*
X104496Y125164D01*
X104436Y125209D01*
X104376Y125239D01*
X104331Y125254D01*
X104316D01*
X104301D01*
X104151Y125239D01*
X104001Y125209D01*
X103866Y125179D01*
X103731Y125119D01*
X103491Y124969D01*
X103281Y124819D01*
X103101Y124654D01*
X102966Y124504D01*
X102922Y124444D01*
X102892Y124414D01*
X102877Y124384D01*
X102862Y124369D01*
X102682Y124100D01*
X102502Y123830D01*
X102337Y123575D01*
X102202Y123350D01*
X102067Y123155D01*
X101977Y123020D01*
X101932Y122960D01*
X101917Y122915D01*
X101887Y122900D01*
Y122885D01*
X101692Y122616D01*
X101497Y122376D01*
X101318Y122181D01*
X101153Y122031D01*
X101018Y121896D01*
X100913Y121821D01*
X100853Y121761D01*
X100823Y121746D01*
X100553Y121596D01*
X100253Y121491D01*
X99968Y121401D01*
X99684Y121356D01*
X99444Y121326D01*
X99339Y121311D01*
X99264D01*
X99189Y121296D01*
X99129D01*
X99099D01*
X99084D01*
X98904D01*
X98739Y121311D01*
X98604Y121326D01*
X98500Y121356D01*
X98410Y121371D01*
X98350Y121386D01*
X98320Y121401D01*
X98305D01*
X98170Y121476D01*
X98065Y121581D01*
X98005Y121701D01*
X97945Y121806D01*
X97915Y121911D01*
X97900Y122001D01*
Y122181D01*
X97885Y122226D01*
Y122241D01*
X97870Y122316D01*
Y122511D01*
X97885Y122616D01*
X97900Y122825D01*
Y122915D01*
X97915Y122990D01*
Y123065D01*
X97930Y123215D01*
X97945Y123335D01*
Y123455D01*
X97960Y123545D01*
Y123695D01*
X97945Y125329D01*
Y125449D01*
X97930Y125584D01*
X97915Y125644D01*
Y125688D01*
X97900Y125718D01*
Y125733D01*
X97885Y125838D01*
Y125928D01*
X97870Y126063D01*
Y126168D01*
X97885Y126288D01*
X97900Y126393D01*
X97945Y126483D01*
X97990Y126558D01*
X98020Y126618D01*
X98065Y126678D01*
X98080Y126693D01*
X98095Y126708D01*
X98170Y126783D01*
X98260Y126828D01*
X98425Y126888D01*
X98484Y126903D01*
X98545Y126918D01*
X98575D01*
X98589D01*
X98724Y126888D01*
D02*
G37*
G36*
X102862Y120442D02*
X103131Y120427D01*
X103626Y120337D01*
X103866Y120292D01*
X104076Y120232D01*
X104271Y120157D01*
X104451Y120097D01*
X104615Y120022D01*
X104765Y119962D01*
X104885Y119887D01*
X104990Y119842D01*
X105080Y119797D01*
X105140Y119752D01*
X105170Y119737D01*
X105185Y119722D01*
X105410Y119543D01*
X105605Y119363D01*
X105770Y119168D01*
X105920Y118973D01*
X106040Y118763D01*
X106144Y118553D01*
X106234Y118358D01*
X106294Y118164D01*
X106354Y117984D01*
X106399Y117804D01*
X106414Y117654D01*
X106444Y117519D01*
Y117414D01*
X106459Y117339D01*
Y117264D01*
X106444Y116964D01*
X106399Y116679D01*
X106324Y116410D01*
X106234Y116155D01*
X106129Y115915D01*
X106009Y115705D01*
X105875Y115510D01*
X105740Y115330D01*
X105605Y115165D01*
X105470Y115031D01*
X105350Y114911D01*
X105245Y114821D01*
X105155Y114746D01*
X105080Y114686D01*
X105035Y114656D01*
X105020Y114641D01*
X104795Y114506D01*
X104555Y114386D01*
X104331Y114266D01*
X104091Y114176D01*
X103626Y114041D01*
X103191Y113951D01*
X102997Y113906D01*
X102817Y113891D01*
X102667Y113876D01*
X102532Y113861D01*
X102412Y113846D01*
X102337D01*
X102277D01*
X102262D01*
X101932D01*
X101602Y113876D01*
X101303Y113906D01*
X101018Y113936D01*
X100748Y113981D01*
X100493Y114041D01*
X100268Y114086D01*
X100058Y114146D01*
X99879Y114206D01*
X99714Y114251D01*
X99579Y114311D01*
X99459Y114356D01*
X99369Y114386D01*
X99309Y114416D01*
X99264Y114446D01*
X99249D01*
X98979Y114611D01*
X98724Y114791D01*
X98514Y115001D01*
X98335Y115210D01*
X98185Y115420D01*
X98065Y115645D01*
X97960Y115870D01*
X97870Y116080D01*
X97810Y116290D01*
X97765Y116485D01*
X97720Y116649D01*
X97705Y116799D01*
X97690Y116919D01*
X97675Y117024D01*
Y117099D01*
X97690Y117399D01*
X97735Y117684D01*
X97795Y117954D01*
X97870Y118208D01*
X97960Y118433D01*
X98065Y118628D01*
X98170Y118823D01*
X98290Y118988D01*
X98395Y119138D01*
X98500Y119258D01*
X98604Y119378D01*
X98694Y119468D01*
X98784Y119527D01*
X98844Y119572D01*
X98874Y119603D01*
X98889Y119617D01*
X99129Y119767D01*
X99399Y119902D01*
X99684Y120007D01*
X99984Y120097D01*
X100598Y120247D01*
X101198Y120352D01*
X101468Y120382D01*
X101737Y120412D01*
X101962Y120427D01*
X102172Y120442D01*
X102337Y120457D01*
X102472D01*
X102547D01*
X102577D01*
X102862Y120442D01*
D02*
G37*
G36*
X98724Y113097D02*
X98859Y113037D01*
X98964Y112947D01*
X99054Y112842D01*
X99129Y112722D01*
X99189Y112632D01*
X99219Y112572D01*
X99234Y112542D01*
X99309Y112362D01*
X99354Y112197D01*
X99399Y112048D01*
X99414Y111898D01*
X99429Y111778D01*
X99444Y111688D01*
Y111388D01*
X99429Y111133D01*
Y110848D01*
X99414Y110579D01*
X99399Y110324D01*
Y110114D01*
X99384Y110039D01*
Y109919D01*
X99369Y109709D01*
X99354Y109529D01*
X99339Y109379D01*
X99324Y109259D01*
Y109154D01*
X99309Y109095D01*
Y109035D01*
X99474Y109064D01*
X99624Y109109D01*
X99774Y109169D01*
X99924Y109244D01*
X100178Y109424D01*
X100418Y109619D01*
X100598Y109829D01*
X100748Y109994D01*
X100793Y110069D01*
X100838Y110114D01*
X100868Y110144D01*
Y110159D01*
X101033Y110414D01*
X101183Y110669D01*
X101318Y110893D01*
X101453Y111103D01*
X101558Y111283D01*
X101647Y111418D01*
X101707Y111508D01*
X101722Y111538D01*
X101917Y111793D01*
X102097Y112003D01*
X102277Y112197D01*
X102427Y112347D01*
X102562Y112452D01*
X102667Y112542D01*
X102727Y112587D01*
X102757Y112602D01*
X103012Y112752D01*
X103281Y112857D01*
X103536Y112932D01*
X103791Y112977D01*
X104016Y113022D01*
X104196Y113037D01*
X104256D01*
X104301D01*
X104331D01*
X104346D01*
X104510Y113022D01*
X104675Y112992D01*
X104825Y112962D01*
X104975Y112902D01*
X105230Y112752D01*
X105440Y112602D01*
X105620Y112437D01*
X105740Y112287D01*
X105785Y112227D01*
X105815Y112197D01*
X105845Y112168D01*
Y112153D01*
X106009Y111853D01*
X106144Y111568D01*
X106234Y111268D01*
X106294Y110998D01*
X106324Y110773D01*
X106339Y110669D01*
X106354Y110593D01*
Y110429D01*
X106339Y110144D01*
X106294Y109874D01*
X106219Y109619D01*
X106159Y109394D01*
X106084Y109214D01*
X106009Y109064D01*
X105965Y108975D01*
X105949Y108960D01*
Y108945D01*
X105830Y108750D01*
X105710Y108555D01*
X105560Y108360D01*
X105425Y108180D01*
X105290Y108015D01*
X105185Y107895D01*
X105125Y107805D01*
X105095Y107790D01*
Y107775D01*
X105005Y107685D01*
X104900Y107625D01*
X104810Y107565D01*
X104720Y107536D01*
X104645Y107521D01*
X104585Y107506D01*
X104541D01*
X104525D01*
X104421Y107521D01*
X104316Y107551D01*
X104166Y107641D01*
X104106Y107685D01*
X104061Y107730D01*
X104046Y107760D01*
X104031Y107775D01*
X103956Y107955D01*
X103911Y108120D01*
Y108180D01*
X103896Y108240D01*
Y108285D01*
X103911Y108390D01*
X103971Y108525D01*
X104061Y108675D01*
X104151Y108825D01*
X104241Y108960D01*
X104331Y109080D01*
X104391Y109154D01*
X104406Y109184D01*
X104585Y109424D01*
X104705Y109664D01*
X104795Y109874D01*
X104870Y110054D01*
X104900Y110204D01*
X104915Y110324D01*
X104930Y110399D01*
Y110429D01*
X104915Y110548D01*
X104900Y110669D01*
X104870Y110788D01*
X104825Y110893D01*
X104780Y110983D01*
X104750Y111043D01*
X104735Y111088D01*
X104720Y111103D01*
X104645Y111223D01*
X104570Y111313D01*
X104496Y111373D01*
X104436Y111418D01*
X104376Y111448D01*
X104331Y111463D01*
X104316D01*
X104301D01*
X104151Y111448D01*
X104001Y111418D01*
X103866Y111388D01*
X103731Y111328D01*
X103491Y111178D01*
X103281Y111028D01*
X103101Y110863D01*
X102966Y110713D01*
X102922Y110653D01*
X102892Y110624D01*
X102877Y110593D01*
X102862Y110579D01*
X102682Y110309D01*
X102502Y110039D01*
X102337Y109784D01*
X102202Y109559D01*
X102067Y109364D01*
X101977Y109229D01*
X101932Y109169D01*
X101917Y109125D01*
X101887Y109109D01*
Y109095D01*
X101692Y108825D01*
X101497Y108585D01*
X101318Y108390D01*
X101153Y108240D01*
X101018Y108105D01*
X100913Y108030D01*
X100853Y107970D01*
X100823Y107955D01*
X100553Y107805D01*
X100253Y107700D01*
X99968Y107610D01*
X99684Y107565D01*
X99444Y107536D01*
X99339Y107521D01*
X99264D01*
X99189Y107506D01*
X99129D01*
X99099D01*
X99084D01*
X98904D01*
X98739Y107521D01*
X98604Y107536D01*
X98500Y107565D01*
X98410Y107580D01*
X98350Y107596D01*
X98320Y107610D01*
X98305D01*
X98170Y107685D01*
X98065Y107790D01*
X98005Y107910D01*
X97945Y108015D01*
X97915Y108120D01*
X97900Y108210D01*
Y108390D01*
X97885Y108435D01*
Y108450D01*
X97870Y108525D01*
Y108720D01*
X97885Y108825D01*
X97900Y109035D01*
Y109125D01*
X97915Y109199D01*
Y109274D01*
X97930Y109424D01*
X97945Y109544D01*
Y109664D01*
X97960Y109754D01*
Y109904D01*
X97945Y111538D01*
Y111658D01*
X97930Y111793D01*
X97915Y111853D01*
Y111898D01*
X97900Y111928D01*
Y111943D01*
X97885Y112048D01*
Y112137D01*
X97870Y112272D01*
Y112377D01*
X97885Y112497D01*
X97900Y112602D01*
X97945Y112692D01*
X97990Y112767D01*
X98020Y112827D01*
X98065Y112887D01*
X98080Y112902D01*
X98095Y112917D01*
X98170Y112992D01*
X98260Y113037D01*
X98425Y113097D01*
X98484Y113112D01*
X98545Y113127D01*
X98575D01*
X98589D01*
X98724Y113097D01*
D02*
G37*
G36*
X103221Y101809D02*
X103371Y101749D01*
X103491Y101689D01*
X103581Y101600D01*
X103641Y101525D01*
X103686Y101450D01*
X103716Y101390D01*
Y101375D01*
X103746Y101270D01*
X103776Y101150D01*
X103791Y100865D01*
X103806Y100730D01*
Y100355D01*
X103791Y100175D01*
X103776Y100101D01*
Y100040D01*
X103761Y99996D01*
Y99981D01*
X104211D01*
X104451Y99966D01*
X104660Y99951D01*
X104855Y99906D01*
X105005Y99861D01*
X105140Y99801D01*
X105260Y99726D01*
X105350Y99651D01*
X105425Y99576D01*
X105470Y99501D01*
X105515Y99426D01*
X105575Y99291D01*
X105590Y99201D01*
Y99171D01*
X105575Y99051D01*
X105560Y98961D01*
X105485Y98781D01*
X105440Y98721D01*
X105410Y98677D01*
X105395Y98646D01*
X105380Y98632D01*
X105305Y98557D01*
X105215Y98497D01*
X105125Y98467D01*
X105035Y98437D01*
X104960Y98422D01*
X104915Y98407D01*
X104870D01*
X104855D01*
X104690D01*
X104510Y98422D01*
X104436D01*
X104376D01*
X104331D01*
X104316D01*
X104166D01*
X104046Y98437D01*
X103941D01*
X103866D01*
X103806Y98452D01*
X103761D01*
X103746D01*
X103731D01*
X103746Y98197D01*
X103761Y97987D01*
X103776Y97822D01*
X103791Y97702D01*
Y97507D01*
X103776Y97387D01*
X103761Y97282D01*
X103716Y97192D01*
X103686Y97118D01*
X103641Y97057D01*
X103596Y97013D01*
X103581Y96983D01*
X103566Y96968D01*
X103491Y96893D01*
X103401Y96848D01*
X103221Y96788D01*
X103146Y96773D01*
X103101Y96758D01*
X103057D01*
X103042D01*
X102936Y96773D01*
X102832Y96788D01*
X102667Y96863D01*
X102547Y96983D01*
X102457Y97102D01*
X102397Y97222D01*
X102352Y97342D01*
X102337Y97417D01*
Y97447D01*
X102307Y97687D01*
X102292Y97897D01*
X102277Y98077D01*
X102262Y98227D01*
Y98332D01*
X102247Y98422D01*
Y98482D01*
X101857Y98497D01*
X101497Y98512D01*
X101168Y98527D01*
X100883Y98541D01*
X100613D01*
X100373Y98557D01*
X100178D01*
X99998D01*
X99849Y98571D01*
X99714D01*
X99609D01*
X99519D01*
X99459D01*
X99414D01*
X99399D01*
X99384D01*
X99309D01*
X99204D01*
X99009D01*
X98919Y98557D01*
X98844D01*
X98799D01*
X98784D01*
X98649D01*
X98529Y98541D01*
X98425D01*
X98350D01*
X98290D01*
X98230D01*
X98215D01*
X98200D01*
X98095Y98557D01*
X98005Y98586D01*
X97855Y98662D01*
X97795Y98706D01*
X97750Y98751D01*
X97735Y98766D01*
X97720Y98781D01*
X97660Y98871D01*
X97615Y98946D01*
X97555Y99111D01*
X97540Y99186D01*
X97525Y99246D01*
Y99291D01*
X97540Y99441D01*
X97585Y99561D01*
X97645Y99666D01*
X97720Y99756D01*
X97930Y99906D01*
X98155Y99996D01*
X98380Y100056D01*
X98589Y100085D01*
X98664Y100101D01*
X98724D01*
X98769D01*
X98784D01*
X98889D01*
X98994D01*
X99069Y100085D01*
X99084D01*
X99099D01*
X99219D01*
X99309D01*
X99354D01*
X99369D01*
X99519D01*
X99699D01*
X99894Y100071D01*
X100118D01*
X100598Y100056D01*
X101093Y100040D01*
X101333Y100026D01*
X101542D01*
X101752Y100011D01*
X101932D01*
X102082D01*
X102202Y99996D01*
X102262D01*
X102292D01*
X102307Y100190D01*
X102322Y100355D01*
Y100685D01*
X102307Y100745D01*
Y101060D01*
X102322Y101180D01*
X102337Y101285D01*
X102367Y101375D01*
X102412Y101450D01*
X102457Y101510D01*
X102487Y101569D01*
X102502Y101584D01*
X102517Y101600D01*
X102607Y101674D01*
X102682Y101734D01*
X102772Y101764D01*
X102862Y101794D01*
X102936Y101809D01*
X102997Y101824D01*
X103026D01*
X103042D01*
X103221Y101809D01*
D02*
G37*
G36*
X98454Y96503D02*
X98545Y96488D01*
X98769Y96383D01*
X99009Y96248D01*
X99264Y96098D01*
X99489Y95948D01*
X99594Y95873D01*
X99684Y95813D01*
X99759Y95753D01*
X99819Y95708D01*
X99849Y95693D01*
X99864Y95679D01*
X101333Y94539D01*
X101632Y94869D01*
X101902Y95154D01*
X102172Y95424D01*
X102397Y95648D01*
X102592Y95828D01*
X102742Y95963D01*
X102787Y96023D01*
X102832Y96053D01*
X102847Y96083D01*
X102862D01*
X102952Y96158D01*
X103042Y96218D01*
X103116Y96248D01*
X103191Y96278D01*
X103251Y96293D01*
X103296Y96308D01*
X103326D01*
X103341D01*
X103446Y96293D01*
X103551Y96278D01*
X103716Y96188D01*
X103776Y96143D01*
X103821Y96113D01*
X103851Y96083D01*
X103866Y96068D01*
X103941Y95978D01*
X104001Y95888D01*
X104046Y95783D01*
X104076Y95708D01*
X104091Y95634D01*
X104106Y95574D01*
Y95514D01*
X104091Y95394D01*
X104061Y95289D01*
X103986Y95124D01*
X103926Y95049D01*
X103896Y95004D01*
X103866Y94974D01*
X103851Y94959D01*
X103581Y94689D01*
X103326Y94419D01*
X103086Y94179D01*
X102877Y93955D01*
X102682Y93760D01*
X102517Y93565D01*
X102367Y93400D01*
X102232Y93250D01*
X102112Y93115D01*
X102007Y92995D01*
X101932Y92905D01*
X101872Y92815D01*
X101812Y92755D01*
X101782Y92710D01*
X101752Y92695D01*
Y92681D01*
X102007D01*
X102277D01*
X102532D01*
X102772D01*
X102981D01*
X103131Y92695D01*
X103191D01*
X103236D01*
X103266D01*
X103281D01*
X103611Y92710D01*
X103911Y92725D01*
X104166D01*
X104406Y92740D01*
X104585D01*
X104720D01*
X104810D01*
X104840D01*
X105035D01*
X105215Y92725D01*
X105290D01*
X105350Y92710D01*
X105395D01*
X105410D01*
X105635Y92695D01*
X105740D01*
X105815Y92681D01*
X105890D01*
X105935D01*
X105965D01*
X105980D01*
X106099Y92665D01*
X106189Y92651D01*
X106354Y92576D01*
X106414Y92531D01*
X106474Y92486D01*
X106489Y92471D01*
X106504Y92456D01*
X106579Y92366D01*
X106624Y92291D01*
X106684Y92111D01*
X106699Y92036D01*
X106714Y91976D01*
Y91916D01*
X106699Y91796D01*
X106684Y91691D01*
X106654Y91601D01*
X106609Y91526D01*
X106564Y91466D01*
X106534Y91421D01*
X106519Y91391D01*
X106504Y91376D01*
X106429Y91301D01*
X106339Y91256D01*
X106159Y91197D01*
X106084Y91181D01*
X106040Y91167D01*
X105994D01*
X105980D01*
X105785D01*
X105605Y91181D01*
X105530D01*
X105470D01*
X105425D01*
X105410D01*
X105185Y91197D01*
X105020Y91211D01*
X104945D01*
X104900D01*
X104870D01*
X104855D01*
X104555D01*
X104241D01*
X103926Y91197D01*
X103641D01*
X103401D01*
X103296Y91181D01*
X103206D01*
X103131D01*
X103071D01*
X103042D01*
X103026D01*
X102652D01*
X102307Y91167D01*
X102007D01*
X101737D01*
X101513D01*
X101423D01*
X101348D01*
X101288D01*
X101243D01*
X101228D01*
X101213D01*
X101033D01*
X100823Y91151D01*
X100613D01*
X100403Y91136D01*
X100208Y91122D01*
X100058D01*
X99998Y91106D01*
X99954D01*
X99924D01*
X99909D01*
X99609Y91092D01*
X99339Y91076D01*
X99114Y91062D01*
X98934D01*
X98784Y91047D01*
X98679D01*
X98619D01*
X98604D01*
X98440Y91062D01*
X98305Y91076D01*
X98185Y91122D01*
X98080Y91167D01*
X97990Y91226D01*
X97915Y91286D01*
X97810Y91436D01*
X97735Y91571D01*
X97705Y91691D01*
X97690Y91781D01*
Y91811D01*
X97705Y91931D01*
X97720Y92036D01*
X97750Y92126D01*
X97795Y92201D01*
X97825Y92261D01*
X97855Y92321D01*
X97870Y92336D01*
X97885Y92351D01*
X97975Y92426D01*
X98065Y92486D01*
X98155Y92516D01*
X98230Y92546D01*
X98305Y92560D01*
X98365Y92576D01*
X98410D01*
X98425D01*
X98949Y92590D01*
X99189D01*
X99414Y92606D01*
X99609Y92620D01*
X99759D01*
X99819Y92636D01*
X99864D01*
X99879D01*
X99894D01*
X99968Y92755D01*
X100043Y92875D01*
X100208Y93100D01*
X100268Y93205D01*
X100328Y93280D01*
X100373Y93340D01*
X100388Y93355D01*
X100358Y93370D01*
X100313Y93400D01*
X100253Y93460D01*
X100178Y93520D01*
X99998Y93655D01*
X99789Y93820D01*
X99594Y93970D01*
X99414Y94104D01*
X99354Y94165D01*
X99294Y94209D01*
X99264Y94224D01*
X99249Y94239D01*
X99009Y94434D01*
X98784Y94599D01*
X98575Y94734D01*
X98410Y94854D01*
X98260Y94929D01*
X98155Y95004D01*
X98095Y95034D01*
X98065Y95049D01*
X97930Y95139D01*
X97825Y95244D01*
X97765Y95364D01*
X97705Y95469D01*
X97675Y95574D01*
X97660Y95648D01*
Y95723D01*
X97675Y95828D01*
X97690Y95933D01*
X97765Y96113D01*
X97810Y96173D01*
X97840Y96218D01*
X97855Y96248D01*
X97870Y96263D01*
X97960Y96353D01*
X98035Y96413D01*
X98125Y96458D01*
X98200Y96488D01*
X98275Y96503D01*
X98335Y96518D01*
X98365D01*
X98380D01*
X98454Y96503D01*
D02*
G37*
G36*
X99159Y90072D02*
X99294Y90012D01*
X99399Y89922D01*
X99459Y89817D01*
X99504Y89697D01*
X99519Y89608D01*
X99534Y89548D01*
Y89518D01*
X99519Y89413D01*
X99489Y89293D01*
X99399Y89053D01*
X99354Y88948D01*
X99309Y88873D01*
X99279Y88813D01*
X99264Y88798D01*
X99159Y88588D01*
X99084Y88378D01*
X99039Y88169D01*
X99009Y87974D01*
X98979Y87794D01*
X98964Y87659D01*
Y87359D01*
X98979Y87209D01*
X99009Y87059D01*
X99039Y86939D01*
X99054Y86834D01*
X99084Y86744D01*
X99099Y86699D01*
Y86685D01*
X99234Y86430D01*
X99309Y86325D01*
X99384Y86235D01*
X99444Y86160D01*
X99504Y86100D01*
X99534Y86070D01*
X99549Y86055D01*
X100358Y87899D01*
X100433Y88064D01*
X100508Y88228D01*
X100628Y88498D01*
X100748Y88708D01*
X100838Y88873D01*
X100898Y88993D01*
X100943Y89083D01*
X100973Y89128D01*
X100988Y89143D01*
X101078Y89263D01*
X101168Y89368D01*
X101348Y89548D01*
X101528Y89667D01*
X101707Y89742D01*
X101842Y89802D01*
X101962Y89817D01*
X102037Y89832D01*
X102067D01*
X102217Y89817D01*
X102367Y89802D01*
X102622Y89697D01*
X102847Y89562D01*
X103012Y89413D01*
X103146Y89263D01*
X103251Y89128D01*
X103311Y89023D01*
X103326Y89008D01*
Y88993D01*
X103431Y88738D01*
X103506Y88483D01*
X103566Y88213D01*
X103596Y87959D01*
X103626Y87734D01*
Y87629D01*
X103641Y87554D01*
Y87389D01*
X103626Y87134D01*
X103596Y86894D01*
X103536Y86669D01*
X103476Y86460D01*
X103386Y86265D01*
X103296Y86085D01*
X103206Y85920D01*
X103101Y85770D01*
X102997Y85635D01*
X102907Y85515D01*
X102817Y85425D01*
X102727Y85335D01*
X102667Y85275D01*
X102607Y85230D01*
X102577Y85201D01*
X102562Y85185D01*
X102382Y85066D01*
X102187Y84946D01*
X101797Y84766D01*
X101393Y84646D01*
X101033Y84556D01*
X100853Y84526D01*
X100703Y84511D01*
X100568Y84481D01*
X100448D01*
X100343Y84466D01*
X100268D01*
X100223D01*
X100208D01*
X99984Y84481D01*
X99759Y84511D01*
X99564Y84556D01*
X99369Y84616D01*
X99039Y84751D01*
X98754Y84931D01*
X98634Y85006D01*
X98529Y85096D01*
X98440Y85171D01*
X98380Y85245D01*
X98320Y85290D01*
X98275Y85335D01*
X98260Y85365D01*
X98245Y85380D01*
X98035Y85710D01*
X97885Y86070D01*
X97780Y86430D01*
X97705Y86774D01*
X97675Y86939D01*
X97660Y87074D01*
X97645Y87209D01*
Y87314D01*
X97630Y87419D01*
Y87539D01*
X97645Y87854D01*
X97675Y88169D01*
X97735Y88438D01*
X97795Y88678D01*
X97840Y88888D01*
X97900Y89038D01*
X97915Y89098D01*
X97930Y89143D01*
X97945Y89158D01*
Y89173D01*
X98020Y89338D01*
X98110Y89473D01*
X98185Y89608D01*
X98275Y89712D01*
X98365Y89802D01*
X98454Y89877D01*
X98619Y89982D01*
X98754Y90057D01*
X98874Y90087D01*
X98949Y90102D01*
X98979D01*
X99159Y90072D01*
D02*
G37*
G36*
X97330Y83477D02*
X97570Y83462D01*
X97825D01*
X98095Y83447D01*
X98664Y83417D01*
X98934Y83402D01*
X99189Y83387D01*
X99429Y83372D01*
X99639D01*
X99804Y83357D01*
X99938Y83342D01*
X100029D01*
X100058D01*
X100418Y83327D01*
X100763Y83297D01*
X101093Y83282D01*
X101378Y83267D01*
X101662Y83252D01*
X101902Y83237D01*
X102142Y83222D01*
X102337Y83207D01*
X102517Y83192D01*
X102682D01*
X102817Y83177D01*
X102922D01*
X103012Y83162D01*
X103071D01*
X103101D01*
X103116D01*
X103206Y83147D01*
X103296Y83102D01*
X103431Y83012D01*
X103521Y82907D01*
X103536Y82877D01*
X103551Y82862D01*
X103611Y82772D01*
X103656Y82682D01*
X103716Y82517D01*
Y82442D01*
X103731Y82397D01*
Y82352D01*
X103716Y82232D01*
X103686Y82112D01*
X103641Y82023D01*
X103581Y81933D01*
X103521Y81858D01*
X103476Y81813D01*
X103446Y81783D01*
X103431Y81768D01*
X103326Y81708D01*
X103221Y81663D01*
X103026Y81618D01*
X102952Y81603D01*
X102892Y81588D01*
X102847D01*
X102832D01*
X102727D01*
X102577Y81603D01*
X102382D01*
X102172Y81618D01*
X101947Y81633D01*
X101692Y81648D01*
X101183Y81678D01*
X100943Y81693D01*
X100703Y81708D01*
X100478Y81723D01*
X100283Y81738D01*
X100118Y81753D01*
X99998Y81768D01*
X99924D01*
X99894D01*
X99459Y81798D01*
X99054Y81828D01*
X98694Y81858D01*
X98380Y81888D01*
X98095Y81903D01*
X97855Y81918D01*
X97630Y81933D01*
X97450D01*
X97300Y81948D01*
X97165D01*
X97061Y81963D01*
X96986D01*
X96925D01*
X96881D01*
X96866D01*
X96851D01*
X96716Y81948D01*
X96596Y81933D01*
X96491Y81903D01*
X96401Y81873D01*
X96266Y81813D01*
X96176Y81753D01*
X96116Y81693D01*
X96086Y81648D01*
X96071Y81618D01*
Y81603D01*
X96086Y81513D01*
X96131Y81423D01*
X96191Y81348D01*
X96266Y81288D01*
X96341Y81228D01*
X96401Y81183D01*
X96446Y81153D01*
X96461Y81138D01*
X96731Y80988D01*
X96836Y80928D01*
X96956Y80868D01*
X97031Y80808D01*
X97105Y80763D01*
X97150Y80748D01*
X97165Y80733D01*
X97285Y80629D01*
X97375Y80524D01*
X97450Y80419D01*
X97495Y80329D01*
X97525Y80239D01*
X97540Y80179D01*
Y80119D01*
X97525Y79999D01*
X97510Y79909D01*
X97450Y79744D01*
X97405Y79684D01*
X97375Y79639D01*
X97360Y79609D01*
X97345Y79594D01*
X97255Y79504D01*
X97165Y79444D01*
X97075Y79399D01*
X97000Y79369D01*
X96925Y79354D01*
X96866Y79339D01*
X96836D01*
X96821D01*
X96701Y79354D01*
X96581Y79384D01*
X96506Y79414D01*
X96491Y79429D01*
X96476D01*
X96146Y79594D01*
X95846Y79759D01*
X95606Y79939D01*
X95382Y80119D01*
X95202Y80299D01*
X95052Y80494D01*
X94917Y80659D01*
X94827Y80838D01*
X94752Y80988D01*
X94692Y81138D01*
X94647Y81273D01*
X94617Y81378D01*
X94602Y81468D01*
X94587Y81543D01*
Y81603D01*
X94602Y81753D01*
X94617Y81903D01*
X94707Y82173D01*
X94827Y82397D01*
X94962Y82607D01*
X95097Y82757D01*
X95217Y82877D01*
X95307Y82952D01*
X95322Y82982D01*
X95337D01*
X95591Y83147D01*
X95846Y83282D01*
X96086Y83372D01*
X96326Y83432D01*
X96521Y83462D01*
X96671Y83492D01*
X96731D01*
X96776D01*
X96791D01*
X96806D01*
X96940D01*
X97120D01*
X97330Y83477D01*
D02*
G37*
G36*
X105425Y83087D02*
X105530Y83057D01*
X105635Y83012D01*
X105725Y82967D01*
X105800Y82922D01*
X105845Y82877D01*
X105875Y82847D01*
X105890Y82832D01*
X105965Y82727D01*
X106025Y82622D01*
X106070Y82532D01*
X106099Y82427D01*
X106114Y82352D01*
X106129Y82277D01*
Y82217D01*
X106114Y82098D01*
X106099Y81978D01*
X106054Y81873D01*
X106009Y81783D01*
X105965Y81723D01*
X105935Y81663D01*
X105905Y81633D01*
X105890Y81618D01*
X105800Y81528D01*
X105695Y81468D01*
X105590Y81423D01*
X105500Y81393D01*
X105410Y81378D01*
X105350Y81363D01*
X105305D01*
X105290D01*
X105170Y81378D01*
X105050Y81408D01*
X104960Y81438D01*
X104870Y81498D01*
X104795Y81543D01*
X104750Y81573D01*
X104720Y81603D01*
X104705Y81618D01*
X104630Y81723D01*
X104570Y81813D01*
X104541Y81918D01*
X104510Y82008D01*
X104496Y82098D01*
X104481Y82157D01*
Y82217D01*
X104496Y82352D01*
X104510Y82472D01*
X104555Y82577D01*
X104600Y82667D01*
X104630Y82727D01*
X104675Y82787D01*
X104690Y82817D01*
X104705Y82832D01*
X104795Y82922D01*
X104900Y82982D01*
X104990Y83042D01*
X105095Y83072D01*
X105170Y83087D01*
X105230Y83102D01*
X105275D01*
X105290D01*
X105425Y83087D01*
D02*
G37*
G36*
X101153Y79264D02*
X101542Y79204D01*
X101887Y79115D01*
X102172Y79010D01*
X102292Y78950D01*
X102397Y78890D01*
X102487Y78845D01*
X102577Y78800D01*
X102637Y78770D01*
X102682Y78740D01*
X102697Y78710D01*
X102712D01*
X102862Y78575D01*
X103012Y78440D01*
X103116Y78305D01*
X103221Y78155D01*
X103311Y78005D01*
X103386Y77870D01*
X103491Y77586D01*
X103551Y77331D01*
X103566Y77226D01*
X103581Y77136D01*
X103596Y77061D01*
Y76956D01*
X103581Y76686D01*
X103551Y76431D01*
X103491Y76192D01*
X103416Y75952D01*
X103326Y75757D01*
X103236Y75562D01*
X103131Y75382D01*
X103026Y75232D01*
X102922Y75082D01*
X102817Y74962D01*
X102727Y74857D01*
X102637Y74767D01*
X102562Y74707D01*
X102502Y74663D01*
X102472Y74633D01*
X102457Y74617D01*
X102277Y74498D01*
X102097Y74393D01*
X101902Y74303D01*
X101722Y74213D01*
X101363Y74093D01*
X101018Y74018D01*
X100868Y74003D01*
X100733Y73988D01*
X100613Y73973D01*
X100508Y73958D01*
X100418D01*
X100358D01*
X100313D01*
X100298D01*
X100058Y73973D01*
X99834Y74003D01*
X99429Y74108D01*
X99084Y74243D01*
X98934Y74318D01*
X98784Y74393D01*
X98664Y74468D01*
X98559Y74543D01*
X98454Y74603D01*
X98380Y74677D01*
X98320Y74722D01*
X98275Y74767D01*
X98260Y74782D01*
X98245Y74797D01*
X98125Y74932D01*
X98020Y75082D01*
X97840Y75382D01*
X97720Y75682D01*
X97645Y75952D01*
X97585Y76192D01*
X97570Y76296D01*
Y76386D01*
X97555Y76446D01*
Y76551D01*
X97570Y76791D01*
X97600Y77016D01*
X97645Y77226D01*
X97720Y77421D01*
X97870Y77765D01*
X97960Y77915D01*
X98065Y78065D01*
X98155Y78185D01*
X98245Y78290D01*
X98320Y78395D01*
X98410Y78470D01*
X98470Y78530D01*
X98514Y78575D01*
X98545Y78590D01*
X98559Y78605D01*
X98739Y78725D01*
X98904Y78830D01*
X99279Y79010D01*
X99639Y79129D01*
X99984Y79204D01*
X100133Y79234D01*
X100283Y79264D01*
X100403Y79279D01*
X100523D01*
X100613Y79294D01*
X100673D01*
X100718D01*
X100733D01*
X101153Y79264D01*
D02*
G37*
G36*
X102487Y73463D02*
X102712Y73433D01*
X102907Y73373D01*
X103086Y73298D01*
X103221Y73223D01*
X103341Y73133D01*
X103446Y73029D01*
X103521Y72924D01*
X103581Y72819D01*
X103626Y72714D01*
X103686Y72549D01*
Y72474D01*
X103701Y72414D01*
Y72369D01*
X103686Y72144D01*
X103671Y71934D01*
X103581Y71530D01*
X103476Y71170D01*
X103341Y70840D01*
X103266Y70705D01*
X103206Y70585D01*
X103131Y70480D01*
X103086Y70375D01*
X103042Y70315D01*
X102997Y70255D01*
X102981Y70225D01*
X102966Y70210D01*
X103176Y70151D01*
X103326Y70046D01*
X103446Y69926D01*
X103521Y69806D01*
X103566Y69671D01*
X103581Y69581D01*
X103596Y69506D01*
Y69476D01*
X103581Y69356D01*
X103566Y69251D01*
X103536Y69161D01*
X103491Y69086D01*
X103446Y69026D01*
X103416Y68981D01*
X103401Y68966D01*
X103386Y68951D01*
X103311Y68891D01*
X103221Y68846D01*
X103042Y68801D01*
X102966Y68786D01*
X102922Y68771D01*
X102877D01*
X102862D01*
X102787D01*
X102712D01*
X102547D01*
X102472Y68756D01*
X102412D01*
X102367D01*
X102352D01*
X102127D01*
X102052D01*
X101977D01*
X101917D01*
X101872D01*
X101857D01*
X101842D01*
X98230D01*
X98125Y68771D01*
X98020Y68786D01*
X97870Y68846D01*
X97810Y68876D01*
X97765Y68891D01*
X97750Y68921D01*
X97735D01*
X97660Y68996D01*
X97600Y69086D01*
X97570Y69176D01*
X97540Y69251D01*
X97525Y69326D01*
X97510Y69386D01*
Y69446D01*
X97525Y69566D01*
X97540Y69671D01*
X97570Y69761D01*
X97615Y69836D01*
X97660Y69896D01*
X97690Y69956D01*
X97705Y69971D01*
X97720Y69986D01*
X97795Y70061D01*
X97885Y70121D01*
X97975Y70151D01*
X98050Y70180D01*
X98125Y70196D01*
X98185Y70210D01*
X98215D01*
X98230D01*
X101003D01*
X101198Y70315D01*
X101363Y70435D01*
X101528Y70570D01*
X101662Y70705D01*
X101782Y70855D01*
X101887Y71005D01*
X102052Y71290D01*
X102172Y71560D01*
X102217Y71680D01*
X102247Y71784D01*
X102262Y71859D01*
X102277Y71919D01*
X102292Y71964D01*
Y71979D01*
X101722Y71994D01*
X101602Y72009D01*
X101497Y72024D01*
X101318Y72099D01*
X101198Y72219D01*
X101108Y72354D01*
X101063Y72474D01*
X101033Y72594D01*
X101018Y72669D01*
Y72699D01*
X101033Y72834D01*
X101048Y72939D01*
X101153Y73119D01*
X101288Y73253D01*
X101437Y73358D01*
X101587Y73418D01*
X101722Y73448D01*
X101827Y73463D01*
X101842D01*
X101857D01*
X101902D01*
X101947Y73478D01*
X102082D01*
X102142D01*
X102187D01*
X102217D01*
X102232D01*
X102487Y73463D01*
D02*
G37*
G36*
X100868Y68022D02*
X101288Y67977D01*
X101647Y67902D01*
X101812Y67857D01*
X101947Y67827D01*
X102082Y67782D01*
X102187Y67737D01*
X102292Y67707D01*
X102367Y67677D01*
X102427Y67647D01*
X102487Y67617D01*
X102502Y67602D01*
X102517D01*
X102712Y67482D01*
X102877Y67362D01*
X103012Y67212D01*
X103146Y67062D01*
X103251Y66913D01*
X103326Y66763D01*
X103401Y66598D01*
X103461Y66448D01*
X103536Y66178D01*
X103566Y66058D01*
X103581Y65953D01*
X103596Y65863D01*
Y65743D01*
X103581Y65474D01*
X103566Y65354D01*
X103551Y65249D01*
X103521Y65144D01*
X103506Y65069D01*
X103491Y65024D01*
Y65009D01*
X103401Y64739D01*
X103341Y64619D01*
X103296Y64499D01*
X103251Y64409D01*
X103206Y64334D01*
X103191Y64289D01*
X103176Y64274D01*
X103236D01*
X103341Y64259D01*
X103431Y64244D01*
X103596Y64170D01*
X103656Y64125D01*
X103701Y64095D01*
X103716Y64079D01*
X103731Y64065D01*
X103806Y63990D01*
X103851Y63900D01*
X103911Y63735D01*
X103926Y63660D01*
X103941Y63600D01*
Y63555D01*
X103926Y63405D01*
X103881Y63285D01*
X103821Y63180D01*
X103761Y63075D01*
X103686Y63015D01*
X103626Y62955D01*
X103581Y62925D01*
X103566Y62910D01*
X103431Y62850D01*
X103311Y62805D01*
X103176Y62760D01*
X103057Y62745D01*
X102952Y62730D01*
X102862Y62715D01*
X102802D01*
X102787D01*
X102772D01*
X102727D01*
X102652Y62730D01*
X102577D01*
X102487Y62745D01*
X102277Y62760D01*
X102067D01*
X101872Y62775D01*
X101797Y62790D01*
X101737D01*
X101707D01*
X101692D01*
X101363Y62805D01*
X101018Y62835D01*
X100673D01*
X100343Y62850D01*
X100058Y62865D01*
X99938D01*
X99834D01*
X99759D01*
X99699D01*
X99654D01*
X99639D01*
X99309D01*
X98949D01*
X98589D01*
X98245D01*
X98095D01*
X97945D01*
X97810D01*
X97705D01*
X97615D01*
X97540D01*
X97495D01*
X97480D01*
X97165D01*
X96881D01*
X96626D01*
X96401D01*
X96206D01*
X96041D01*
X95891D01*
X95786D01*
X95681D01*
X95606D01*
X95547D01*
X95502D01*
X95442D01*
X95426D01*
X95307Y62880D01*
X95202Y62895D01*
X95112Y62925D01*
X95037Y62970D01*
X94977Y63015D01*
X94932Y63045D01*
X94902Y63060D01*
X94887Y63075D01*
X94812Y63165D01*
X94767Y63255D01*
X94707Y63420D01*
X94692Y63495D01*
X94677Y63555D01*
Y63615D01*
X94692Y63735D01*
X94707Y63840D01*
X94737Y63930D01*
X94782Y64005D01*
X94827Y64065D01*
X94857Y64125D01*
X94872Y64139D01*
X94887Y64154D01*
X94977Y64229D01*
X95067Y64289D01*
X95157Y64319D01*
X95232Y64349D01*
X95307Y64364D01*
X95367Y64379D01*
X95412D01*
X95426D01*
X97675D01*
X97600Y64754D01*
X97585Y64919D01*
X97570Y65069D01*
X97555Y65189D01*
Y65369D01*
X97570Y65593D01*
X97585Y65803D01*
X97630Y66013D01*
X97690Y66193D01*
X97825Y66538D01*
X97990Y66823D01*
X98065Y66943D01*
X98140Y67048D01*
X98215Y67137D01*
X98275Y67212D01*
X98335Y67272D01*
X98380Y67317D01*
X98395Y67332D01*
X98410Y67347D01*
X98559Y67467D01*
X98724Y67572D01*
X99054Y67752D01*
X99384Y67872D01*
X99699Y67947D01*
X99984Y68007D01*
X100103Y68022D01*
X100208D01*
X100283Y68037D01*
X100343D01*
X100388D01*
X100403D01*
X100868Y68022D01*
D02*
G37*
G36*
X106129Y61396D02*
X106219Y61381D01*
X106384Y61306D01*
X106444Y61261D01*
X106489Y61231D01*
X106504Y61216D01*
X106519Y61202D01*
X106594Y61111D01*
X106639Y61037D01*
X106699Y60857D01*
X106714Y60782D01*
X106729Y60722D01*
Y60662D01*
X106714Y60542D01*
X106699Y60452D01*
X106639Y60272D01*
X106594Y60212D01*
X106564Y60167D01*
X106549Y60137D01*
X106534Y60122D01*
X106459Y60047D01*
X106369Y59987D01*
X106279Y59957D01*
X106189Y59927D01*
X106114Y59912D01*
X106070Y59897D01*
X106025D01*
X106009D01*
X98395D01*
X98275Y59912D01*
X98170Y59927D01*
X98080Y59957D01*
X97990Y60002D01*
X97930Y60047D01*
X97885Y60077D01*
X97870Y60092D01*
X97855Y60107D01*
X97780Y60197D01*
X97735Y60287D01*
X97675Y60452D01*
X97660Y60527D01*
X97645Y60587D01*
Y60647D01*
X97660Y60782D01*
X97690Y60902D01*
X97735Y61007D01*
X97810Y61097D01*
X97975Y61231D01*
X98170Y61321D01*
X98350Y61366D01*
X98514Y61396D01*
X98589Y61411D01*
X98634D01*
X98664D01*
X98679D01*
X106009D01*
X106129Y61396D01*
D02*
G37*
G36*
X103221Y58743D02*
X103386Y58668D01*
X103446Y58623D01*
X103491Y58593D01*
X103506Y58563D01*
X103521Y58548D01*
X103596Y58458D01*
X103641Y58368D01*
X103701Y58188D01*
X103716Y58113D01*
X103731Y58054D01*
Y57874D01*
X103701Y57769D01*
X103626Y57604D01*
X103521Y57469D01*
X103401Y57379D01*
X103281Y57319D01*
X103176Y57289D01*
X103101Y57259D01*
X103086D01*
X103071D01*
X102757Y57229D01*
X102412Y57199D01*
X102082Y57184D01*
X101782Y57169D01*
X101513Y57154D01*
X101393D01*
X101303D01*
X101213D01*
X101153D01*
X101123D01*
X101108D01*
X100988D01*
X100853D01*
X100553Y57169D01*
X100418D01*
X100298D01*
X100223D01*
X100208D01*
X100193D01*
X99998D01*
X99819Y57184D01*
X99654D01*
X99504D01*
X99384D01*
X99294D01*
X99234D01*
X99219D01*
X99159Y56914D01*
X99129Y56660D01*
X99099Y56420D01*
X99069Y56225D01*
Y56060D01*
X99054Y55925D01*
Y55715D01*
X99069Y55640D01*
X99084Y55580D01*
Y55550D01*
X99114Y55460D01*
X99144Y55385D01*
X99159Y55325D01*
X99174Y55295D01*
X99324Y55265D01*
X99474Y55235D01*
X99639Y55206D01*
X99789Y55176D01*
X99924Y55160D01*
X100029D01*
X100088Y55146D01*
X100118D01*
X100343Y55130D01*
X100583Y55115D01*
X100808D01*
X101018Y55101D01*
X101213D01*
X101348D01*
X101408D01*
X101453D01*
X101468D01*
X101482D01*
X101587D01*
X101722Y55115D01*
X101977Y55146D01*
X102082D01*
X102172Y55160D01*
X102247Y55176D01*
X102262D01*
X102442Y55206D01*
X102592Y55221D01*
X102727Y55235D01*
X102832D01*
X102907Y55250D01*
X102966D01*
X102997D01*
X103012D01*
X103131Y55235D01*
X103221Y55221D01*
X103386Y55146D01*
X103446Y55101D01*
X103491Y55056D01*
X103506Y55041D01*
X103521Y55026D01*
X103596Y54936D01*
X103641Y54846D01*
X103701Y54666D01*
X103716Y54591D01*
X103731Y54546D01*
Y54486D01*
X103701Y54276D01*
X103626Y54111D01*
X103536Y53976D01*
X103416Y53886D01*
X103296Y53811D01*
X103206Y53781D01*
X103131Y53751D01*
X103101D01*
X102772Y53692D01*
X102457Y53662D01*
X102187Y53632D01*
X101947Y53601D01*
X101752D01*
X101602Y53587D01*
X101558D01*
X101513D01*
X101497D01*
X101482D01*
X101063Y53601D01*
X100643Y53616D01*
X100223Y53646D01*
X99849Y53692D01*
X99669Y53707D01*
X99519Y53736D01*
X99369Y53751D01*
X99249Y53766D01*
X99159Y53781D01*
X99084D01*
X99039Y53796D01*
X99024D01*
X98769Y53856D01*
X98545Y53961D01*
X98365Y54081D01*
X98200Y54201D01*
X98080Y54321D01*
X97990Y54426D01*
X97930Y54486D01*
X97915Y54516D01*
X97810Y54726D01*
X97735Y54936D01*
X97675Y55160D01*
X97645Y55370D01*
X97615Y55550D01*
X97600Y55685D01*
Y55820D01*
X97615Y56105D01*
X97645Y56375D01*
X97690Y56615D01*
X97735Y56839D01*
X97780Y57019D01*
X97825Y57169D01*
X97855Y57259D01*
X97870Y57274D01*
Y57289D01*
X97735Y57379D01*
X97630Y57469D01*
X97555Y57589D01*
X97510Y57694D01*
X97480Y57799D01*
X97450Y57874D01*
Y57949D01*
X97465Y58069D01*
X97480Y58174D01*
X97510Y58263D01*
X97555Y58353D01*
X97600Y58413D01*
X97630Y58458D01*
X97645Y58488D01*
X97660Y58503D01*
X97735Y58578D01*
X97825Y58638D01*
X97900Y58668D01*
X97975Y58698D01*
X98050Y58713D01*
X98110Y58728D01*
X98140D01*
X98155D01*
X98260D01*
X98380Y58713D01*
X98470Y58698D01*
X98484D01*
X98500D01*
X98649Y58683D01*
X98754D01*
X98829D01*
X98844D01*
X98994D01*
X99174D01*
X99354D01*
X99534D01*
X99699D01*
X99834D01*
X99924D01*
X99938D01*
X99954D01*
X100223D01*
X100448D01*
X100628D01*
X100793D01*
X100913D01*
X101003D01*
X101048D01*
X101063D01*
X101108D01*
X101183Y58698D01*
X101303D01*
X101453D01*
X101617Y58713D01*
X101977Y58728D01*
X102352Y58743D01*
X102532Y58758D01*
X102682D01*
X102817D01*
X102922Y58773D01*
X102981D01*
X103012D01*
X103116D01*
X103221Y58743D01*
D02*
G37*
G36*
X98380Y52897D02*
X98440Y52882D01*
X98454D01*
X98634Y52852D01*
X98814Y52807D01*
X98994Y52777D01*
X99159Y52747D01*
X99294Y52732D01*
X99414Y52717D01*
X99489Y52702D01*
X99519D01*
X99564D01*
X99624Y52687D01*
X99774Y52672D01*
X99954Y52657D01*
X100133Y52627D01*
X100313Y52612D01*
X100463Y52597D01*
X100523D01*
X100553Y52582D01*
X100583D01*
X100598D01*
X100853Y52567D01*
X101108D01*
X101333Y52552D01*
X101542D01*
X101707Y52537D01*
X101842D01*
X101932D01*
X101962D01*
X102247Y52507D01*
X102502Y52447D01*
X102712Y52387D01*
X102877Y52327D01*
X103012Y52267D01*
X103101Y52207D01*
X103161Y52178D01*
X103176Y52162D01*
X103356Y51983D01*
X103491Y51773D01*
X103581Y51548D01*
X103656Y51323D01*
X103686Y51113D01*
X103701Y50948D01*
X103716Y50888D01*
Y50798D01*
X103701Y50603D01*
X103686Y50439D01*
X103656Y50274D01*
X103611Y50124D01*
X103566Y50004D01*
X103536Y49899D01*
X103521Y49839D01*
X103506Y49824D01*
X103431Y49659D01*
X103326Y49494D01*
X103236Y49344D01*
X103146Y49224D01*
X103057Y49119D01*
X102981Y49045D01*
X102936Y48985D01*
X102922Y48970D01*
X103311D01*
X103491Y48985D01*
X103656D01*
X103791D01*
X103896Y49000D01*
X103956D01*
X103986D01*
X104406Y49015D01*
X104585Y49030D01*
X104765D01*
X104900D01*
X105020D01*
X105080D01*
X105110D01*
X105350D01*
X105560Y49015D01*
X105725Y49000D01*
X105875Y48985D01*
X105980Y48955D01*
X106070Y48940D01*
X106114Y48925D01*
X106129D01*
X106324Y48835D01*
X106474Y48730D01*
X106579Y48610D01*
X106639Y48490D01*
X106684Y48370D01*
X106699Y48280D01*
X106714Y48220D01*
Y48190D01*
X106699Y48070D01*
X106684Y47980D01*
X106609Y47800D01*
X106564Y47740D01*
X106534Y47695D01*
X106519Y47666D01*
X106504Y47651D01*
X106429Y47576D01*
X106339Y47531D01*
X106174Y47471D01*
X106099Y47456D01*
X106054Y47441D01*
X106009D01*
X105994D01*
X105845Y47456D01*
X105680Y47471D01*
X105605D01*
X105545Y47486D01*
X105500D01*
X105485D01*
X105260Y47516D01*
X105185D01*
X105110Y47531D01*
X105050D01*
X105005D01*
X104990D01*
X104975D01*
X104885D01*
X104750D01*
X104615Y47516D01*
X104465D01*
X104331Y47501D01*
X104211D01*
X104136Y47486D01*
X104121D01*
X104106D01*
X103926D01*
X103461D01*
X103026Y47471D01*
X102622D01*
X102262D01*
X101932Y47456D01*
X101632D01*
X101363D01*
X101123D01*
X100913D01*
X100733Y47471D01*
X100568D01*
X100448D01*
X100358D01*
X100298D01*
X100253D01*
X100238D01*
X99998D01*
X99789Y47456D01*
X99594D01*
X99429D01*
X99294Y47441D01*
X99174D01*
X99069D01*
X98979Y47426D01*
X98919D01*
X98859D01*
X98799Y47411D01*
X98769D01*
X98754D01*
X98619Y47381D01*
X98529Y47366D01*
X98470Y47351D01*
X98454D01*
X98350Y47366D01*
X98245Y47396D01*
X98095Y47471D01*
X98035Y47516D01*
X97990Y47561D01*
X97960Y47576D01*
X97945Y47591D01*
X97885Y47681D01*
X97840Y47785D01*
X97780Y47965D01*
X97765Y48040D01*
X97750Y48100D01*
Y48145D01*
X97765Y48310D01*
X97825Y48445D01*
X97900Y48565D01*
X97975Y48670D01*
X98065Y48745D01*
X98125Y48790D01*
X98185Y48820D01*
X98200Y48835D01*
X98290Y48865D01*
X98425Y48895D01*
X98575Y48925D01*
X98739Y48940D01*
X98934Y48955D01*
X99144Y48970D01*
X99549Y49000D01*
X99759D01*
X99954D01*
X100118Y49015D01*
X100283D01*
X100418D01*
X100508D01*
X100583D01*
X100598D01*
X100868Y49165D01*
X101093Y49299D01*
X101273Y49419D01*
X101423Y49524D01*
X101528Y49599D01*
X101602Y49659D01*
X101647Y49689D01*
X101662Y49704D01*
X101857Y49899D01*
X101992Y50079D01*
X102097Y50274D01*
X102157Y50439D01*
X102202Y50589D01*
X102217Y50694D01*
X102232Y50768D01*
Y50798D01*
X102217Y50873D01*
X102187Y50948D01*
X102082Y51038D01*
X101962Y51083D01*
X101932Y51098D01*
X101917D01*
X101887D01*
X101827D01*
X101662D01*
X101587D01*
X101513D01*
X101468D01*
X101453D01*
X101333D01*
X101198D01*
X101138Y51083D01*
X101078D01*
X101048D01*
X101033D01*
X100853Y51068D01*
X100718D01*
X100643D01*
X100613D01*
X100418D01*
X100208Y51083D01*
X99998Y51098D01*
X99789Y51128D01*
X99609Y51143D01*
X99474Y51158D01*
X99414D01*
X99369Y51173D01*
X99354D01*
X99339D01*
X99054Y51218D01*
X98799Y51248D01*
X98589Y51293D01*
X98410Y51338D01*
X98260Y51368D01*
X98170Y51398D01*
X98095Y51413D01*
X98080D01*
X97900Y51488D01*
X97765Y51593D01*
X97675Y51698D01*
X97615Y51818D01*
X97570Y51938D01*
X97555Y52028D01*
X97540Y52087D01*
Y52118D01*
X97555Y52237D01*
X97570Y52342D01*
X97645Y52507D01*
X97675Y52582D01*
X97705Y52627D01*
X97720Y52657D01*
X97735Y52672D01*
X97810Y52747D01*
X97900Y52807D01*
X97990Y52852D01*
X98065Y52882D01*
X98140Y52897D01*
X98200Y52912D01*
X98230D01*
X98245D01*
X98320D01*
X98380Y52897D01*
D02*
G37*
G36*
X98874Y46361D02*
X98964Y46346D01*
X99129Y46271D01*
X99189Y46226D01*
X99234Y46181D01*
X99249Y46167D01*
X99264Y46152D01*
X99339Y46077D01*
X99399Y45987D01*
X99429Y45897D01*
X99459Y45822D01*
X99474Y45747D01*
X99489Y45687D01*
Y45642D01*
X99474Y45582D01*
X99444Y45477D01*
X99399Y45372D01*
X99354Y45252D01*
X99294Y45147D01*
X99249Y45057D01*
X99219Y44997D01*
X99204Y44967D01*
X99114Y44772D01*
X99039Y44592D01*
X98994Y44443D01*
X98949Y44323D01*
X98934Y44218D01*
X98919Y44128D01*
Y44068D01*
X98934Y43828D01*
X98964Y43633D01*
X99009Y43453D01*
X99069Y43303D01*
X99129Y43183D01*
X99174Y43093D01*
X99204Y43034D01*
X99219Y43019D01*
X99354Y42884D01*
X99504Y42779D01*
X99654Y42704D01*
X99804Y42659D01*
X99938Y42629D01*
X100043Y42599D01*
X100103D01*
X100133D01*
X100358Y42614D01*
X100598Y42674D01*
X100838Y42749D01*
X101048Y42839D01*
X101243Y42914D01*
X101393Y42989D01*
X101453Y43019D01*
X101497Y43049D01*
X101513Y43064D01*
X101528D01*
X101677Y43154D01*
X101812Y43243D01*
X101917Y43333D01*
X102007Y43423D01*
X102157Y43573D01*
X102262Y43708D01*
X102322Y43828D01*
X102352Y43918D01*
X102367Y43978D01*
Y43993D01*
X102352Y44233D01*
X102322Y44428D01*
X102292Y44592D01*
X102247Y44742D01*
X102187Y44847D01*
X102157Y44922D01*
X102127Y44967D01*
X102112Y44982D01*
X102022Y45102D01*
X101962Y45222D01*
X101917Y45312D01*
X101887Y45402D01*
X101872Y45477D01*
X101857Y45522D01*
Y45567D01*
X101872Y45687D01*
X101887Y45777D01*
X101977Y45942D01*
X102007Y46002D01*
X102052Y46047D01*
X102067Y46062D01*
X102082Y46077D01*
X102157Y46137D01*
X102247Y46196D01*
X102397Y46241D01*
X102472Y46256D01*
X102517Y46271D01*
X102547D01*
X102562D01*
X102652Y46256D01*
X102742Y46226D01*
X102832Y46181D01*
X102907Y46121D01*
X103057Y45972D01*
X103176Y45807D01*
X103281Y45627D01*
X103371Y45477D01*
X103401Y45417D01*
X103416Y45372D01*
X103431Y45342D01*
Y45327D01*
X103536Y45057D01*
X103611Y44802D01*
X103671Y44563D01*
X103701Y44368D01*
X103731Y44218D01*
X103746Y44098D01*
Y43993D01*
X103731Y43768D01*
X103686Y43558D01*
X103626Y43363D01*
X103536Y43169D01*
X103431Y42989D01*
X103326Y42824D01*
X103086Y42509D01*
X102952Y42389D01*
X102832Y42269D01*
X102727Y42164D01*
X102622Y42074D01*
X102532Y42014D01*
X102472Y41969D01*
X102427Y41939D01*
X102412Y41924D01*
X102187Y41789D01*
X101977Y41669D01*
X101767Y41565D01*
X101558Y41490D01*
X101183Y41340D01*
X100838Y41250D01*
X100688Y41220D01*
X100553Y41205D01*
X100433Y41190D01*
X100328Y41175D01*
X100238Y41160D01*
X100178D01*
X100148D01*
X100133D01*
X99924Y41175D01*
X99714Y41190D01*
X99519Y41235D01*
X99339Y41295D01*
X99009Y41430D01*
X98724Y41594D01*
X98514Y41744D01*
X98425Y41819D01*
X98350Y41879D01*
X98290Y41939D01*
X98245Y41984D01*
X98230Y41999D01*
X98215Y42014D01*
X98095Y42179D01*
X97990Y42344D01*
X97825Y42674D01*
X97705Y43019D01*
X97630Y43348D01*
X97570Y43633D01*
X97555Y43753D01*
Y43858D01*
X97540Y43933D01*
Y44053D01*
X97555Y44263D01*
X97600Y44503D01*
X97660Y44727D01*
X97735Y44952D01*
X97795Y45132D01*
X97855Y45297D01*
X97885Y45357D01*
X97900Y45402D01*
X97915Y45417D01*
Y45432D01*
X97990Y45597D01*
X98080Y45747D01*
X98155Y45867D01*
X98230Y45972D01*
X98305Y46077D01*
X98380Y46152D01*
X98500Y46256D01*
X98619Y46331D01*
X98694Y46361D01*
X98754Y46376D01*
X98769D01*
X98874Y46361D01*
D02*
G37*
G36*
X100463Y40710D02*
X100673Y40695D01*
X101033Y40605D01*
X101348Y40470D01*
X101602Y40335D01*
X101812Y40185D01*
X101962Y40051D01*
X102007Y40006D01*
X102052Y39961D01*
X102082Y39946D01*
Y39931D01*
X102277Y39646D01*
X102442Y39331D01*
X102562Y39016D01*
X102652Y38702D01*
X102712Y38417D01*
X102727Y38297D01*
X102742Y38207D01*
X102757Y38117D01*
X102772Y38057D01*
Y37997D01*
X102787Y37727D01*
X102802Y37487D01*
Y37247D01*
X102817Y37023D01*
X102832Y36843D01*
X102847Y36708D01*
Y36588D01*
X102862Y36453D01*
X102892Y36318D01*
X102922Y36228D01*
X102952Y36138D01*
X102981Y36078D01*
X103012Y36018D01*
X103026Y36003D01*
Y35988D01*
X103086Y35928D01*
X103131Y35883D01*
X103251Y35823D01*
X103341Y35793D01*
X103356D01*
X103371D01*
X103446Y35808D01*
X103521Y35823D01*
X103656Y35898D01*
X103791Y36003D01*
X103896Y36123D01*
X103986Y36243D01*
X104061Y36348D01*
X104106Y36423D01*
X104121Y36453D01*
X104226Y36693D01*
X104316Y36933D01*
X104376Y37157D01*
X104421Y37367D01*
X104451Y37547D01*
X104465Y37682D01*
Y37907D01*
X104451Y38027D01*
X104406Y38282D01*
X104391Y38387D01*
X104361Y38477D01*
X104346Y38552D01*
Y38567D01*
X104316Y38746D01*
X104286Y38911D01*
X104271Y39046D01*
X104256Y39151D01*
X104241Y39241D01*
Y39346D01*
X104256Y39481D01*
X104286Y39586D01*
X104316Y39691D01*
X104361Y39766D01*
X104406Y39826D01*
X104451Y39871D01*
X104465Y39901D01*
X104481Y39916D01*
X104570Y39991D01*
X104660Y40036D01*
X104825Y40095D01*
X104885Y40110D01*
X104945Y40126D01*
X104975D01*
X104990D01*
X105065Y40110D01*
X105140Y40080D01*
X105200Y40036D01*
X105275Y39976D01*
X105395Y39811D01*
X105500Y39631D01*
X105590Y39451D01*
X105650Y39286D01*
X105680Y39226D01*
X105695Y39181D01*
X105710Y39151D01*
Y39136D01*
X105800Y38851D01*
X105860Y38596D01*
X105905Y38372D01*
X105935Y38177D01*
X105949Y38012D01*
X105965Y37892D01*
Y37802D01*
X105949Y37547D01*
X105920Y37307D01*
X105875Y37068D01*
X105830Y36843D01*
X105680Y36423D01*
X105605Y36228D01*
X105515Y36048D01*
X105425Y35883D01*
X105350Y35748D01*
X105275Y35614D01*
X105200Y35509D01*
X105155Y35434D01*
X105110Y35359D01*
X105080Y35329D01*
X105065Y35314D01*
X104900Y35119D01*
X104720Y34939D01*
X104555Y34789D01*
X104376Y34669D01*
X104211Y34549D01*
X104046Y34459D01*
X103881Y34384D01*
X103746Y34324D01*
X103476Y34234D01*
X103371Y34220D01*
X103266Y34190D01*
X103191D01*
X103131Y34174D01*
X103101D01*
X103086D01*
X102936D01*
X102787Y34205D01*
X102652Y34249D01*
X102517Y34324D01*
X102292Y34474D01*
X102112Y34654D01*
X101962Y34849D01*
X101857Y34999D01*
X101812Y35074D01*
X101782Y35119D01*
X101767Y35149D01*
Y35164D01*
X101662Y35464D01*
X101573Y35748D01*
X101513Y36048D01*
X101468Y36303D01*
X101453Y36528D01*
X101437Y36633D01*
Y36708D01*
X101423Y36783D01*
Y37097D01*
X101408Y37292D01*
X101393Y37487D01*
X101378Y37652D01*
X101363Y37802D01*
X101348Y37937D01*
X101333Y38042D01*
X101318Y38147D01*
X101288Y38312D01*
X101258Y38432D01*
X101243Y38492D01*
X101228Y38507D01*
X101123Y38702D01*
X101003Y38851D01*
X100853Y38956D01*
X100703Y39016D01*
X100553Y39061D01*
X100433Y39076D01*
X100358Y39091D01*
X100343D01*
X100328D01*
X100238Y39076D01*
X100148Y39046D01*
X100058Y39001D01*
X99968Y38941D01*
X99804Y38791D01*
X99669Y38627D01*
X99564Y38462D01*
X99474Y38312D01*
X99444Y38252D01*
X99414Y38207D01*
X99399Y38177D01*
Y38162D01*
X99264Y37832D01*
X99159Y37502D01*
X99099Y37203D01*
X99039Y36918D01*
X99009Y36678D01*
Y36573D01*
X98994Y36498D01*
Y36333D01*
X99009Y36138D01*
X99024Y35958D01*
X99054Y35793D01*
X99099Y35644D01*
X99144Y35509D01*
X99204Y35404D01*
X99339Y35209D01*
X99459Y35074D01*
X99564Y34984D01*
X99639Y34939D01*
X99669Y34924D01*
X99834Y34819D01*
X99968Y34714D01*
X100058Y34579D01*
X100118Y34474D01*
X100148Y34354D01*
X100178Y34264D01*
Y34190D01*
X100163Y34055D01*
X100148Y33935D01*
X100103Y33845D01*
X100058Y33755D01*
X100013Y33695D01*
X99984Y33650D01*
X99954Y33620D01*
X99938Y33605D01*
X99849Y33545D01*
X99759Y33500D01*
X99564Y33440D01*
X99489Y33425D01*
X99429Y33410D01*
X99384D01*
X99369D01*
X99249Y33425D01*
X99129Y33440D01*
X98904Y33515D01*
X98694Y33620D01*
X98514Y33755D01*
X98365Y33875D01*
X98260Y33980D01*
X98200Y34055D01*
X98170Y34085D01*
X97960Y34414D01*
X97810Y34759D01*
X97705Y35134D01*
X97630Y35479D01*
X97600Y35644D01*
X97585Y35793D01*
X97570Y35943D01*
Y36063D01*
X97555Y36153D01*
Y36288D01*
X97585Y36858D01*
X97645Y37397D01*
X97690Y37637D01*
X97735Y37877D01*
X97780Y38087D01*
X97840Y38282D01*
X97885Y38462D01*
X97930Y38627D01*
X97975Y38776D01*
X98020Y38881D01*
X98065Y38986D01*
X98080Y39046D01*
X98110Y39091D01*
Y39106D01*
X98260Y39391D01*
X98410Y39646D01*
X98575Y39856D01*
X98754Y40036D01*
X98919Y40200D01*
X99099Y40335D01*
X99279Y40440D01*
X99459Y40530D01*
X99609Y40590D01*
X99759Y40635D01*
X99909Y40680D01*
X100013Y40695D01*
X100118Y40710D01*
X100193Y40725D01*
X100238D01*
X100253D01*
X100463Y40710D01*
D02*
G37*
%LPC*%
G36*
X55507Y89416D02*
X54757D01*
X54457D01*
X54232D01*
X54082D01*
X54007D01*
X38034D01*
X37209D01*
X36459D01*
X35785Y89341D01*
X35260D01*
X34285Y89192D01*
X33610Y89117D01*
X33160Y88967D01*
X32860Y88816D01*
X32785Y88741D01*
X32710D01*
X32560Y88591D01*
X32485Y88292D01*
X32335Y87617D01*
X32185Y86717D01*
X32110Y85817D01*
Y84842D01*
X32035Y84092D01*
Y35574D01*
X32110Y34899D01*
Y34374D01*
X32260Y33399D01*
X32335Y32724D01*
X32485Y32274D01*
X32560Y31974D01*
X32635Y31899D01*
Y31824D01*
X32785Y31749D01*
X33085Y31599D01*
X33760Y31449D01*
X34660Y31374D01*
X35560Y31299D01*
X36534Y31224D01*
X37284D01*
X37584D01*
X37809D01*
X37959D01*
X38034D01*
X54007D01*
X54832D01*
X55582D01*
X56257Y31299D01*
X56782D01*
X57757Y31449D01*
X58432Y31599D01*
X58881Y31674D01*
X59181Y31824D01*
X59331Y31899D01*
X59481Y32049D01*
X59556Y32349D01*
X59781Y33024D01*
X59931Y33849D01*
X60006Y34749D01*
X60081Y35649D01*
Y84917D01*
X60006Y85592D01*
X59931Y86117D01*
X59856Y87092D01*
X59706Y87767D01*
X59556Y88217D01*
X59481Y88516D01*
X59331Y88666D01*
X59181Y88816D01*
X58881Y88892D01*
X58206Y89117D01*
X57382Y89266D01*
X56407Y89341D01*
X55507Y89416D01*
D02*
G37*
%LPD*%
G36*
X56407Y78393D02*
X52282D01*
Y75693D01*
X56407D01*
Y69994D01*
X52282D01*
Y67444D01*
X56407D01*
Y61745D01*
X52282D01*
Y58895D01*
X56407D01*
Y53196D01*
X52282D01*
Y50497D01*
X56407D01*
Y44797D01*
X52282D01*
Y42098D01*
X56407D01*
Y36549D01*
X50858D01*
Y40673D01*
X48008D01*
Y36549D01*
X42459D01*
Y42098D01*
X46583D01*
Y44797D01*
X42459D01*
Y50497D01*
X46583D01*
Y53196D01*
X42459D01*
Y58895D01*
X46583D01*
Y61745D01*
X42459D01*
Y67444D01*
X46583D01*
Y69994D01*
X42459D01*
Y75693D01*
X46583D01*
Y78393D01*
X42459D01*
Y83942D01*
X48008D01*
Y79818D01*
X50858D01*
Y83942D01*
X56407D01*
Y78393D01*
D02*
G37*
G36*
X41259Y44797D02*
X35710D01*
Y75693D01*
X41259D01*
Y44797D01*
D02*
G37*
%LPC*%
G36*
X50858Y74268D02*
X48008D01*
Y71419D01*
X50858D01*
Y74268D01*
D02*
G37*
G36*
Y66020D02*
X48008D01*
Y63170D01*
X50858D01*
Y66020D01*
D02*
G37*
G36*
Y57471D02*
X48008D01*
Y54621D01*
X50858D01*
Y57471D01*
D02*
G37*
G36*
Y49072D02*
X48008D01*
Y46222D01*
X50858D01*
Y49072D01*
D02*
G37*
G36*
X31679Y187720D02*
X31604D01*
X31154D01*
X30779Y187645D01*
X30554D01*
X30479D01*
X44877Y166798D01*
X42703Y176847D01*
X37528Y183221D01*
X36854Y184046D01*
X36179Y184721D01*
X35579Y185321D01*
X35054Y185846D01*
X34454Y186221D01*
X34004Y186595D01*
X33179Y187120D01*
X32504Y187495D01*
X31979Y187645D01*
X31679Y187720D01*
D02*
G37*
G36*
X27855Y177222D02*
X27555D01*
X27480D01*
X26505Y177147D01*
X25830Y176922D01*
X25455Y176697D01*
X25305Y176622D01*
X43453Y165973D01*
X37078Y173772D01*
X33704Y175347D01*
X32279Y175947D01*
X31004Y176397D01*
X29954Y176772D01*
X29055Y176997D01*
X28380Y177147D01*
X27855Y177222D01*
D02*
G37*
G36*
X37528Y165523D02*
X37003D01*
X36479D01*
X36179D01*
X35879D01*
X35729D01*
X35654D01*
X34454D01*
X33404Y165448D01*
X32504Y165298D01*
X31829Y165148D01*
X31304Y165073D01*
X31004Y164923D01*
X30779Y164848D01*
X30704D01*
X30180Y164548D01*
X29730Y164248D01*
X29430Y164023D01*
X29130Y163724D01*
X28830Y163349D01*
X28755Y163274D01*
Y163199D01*
X30105Y163274D01*
X30704D01*
X31229Y163349D01*
X31679D01*
X31979D01*
X32204D01*
X32279D01*
X35204Y163274D01*
X37828Y163199D01*
X39028Y163124D01*
X40153Y163049D01*
X41203Y162974D01*
X42178Y162899D01*
X43078Y162824D01*
X43828Y162749D01*
X44502D01*
X45028Y162674D01*
X45477Y162599D01*
X45777Y162524D01*
X46002D01*
X46077D01*
X38953Y165448D01*
X38203D01*
X37528Y165523D01*
D02*
G37*
G36*
X58676Y184796D02*
X52002D01*
X45402Y177747D01*
X48627Y163498D01*
X70974Y146251D01*
X72249Y147076D01*
X73374Y147976D01*
X74349Y148875D01*
X75173Y149700D01*
X75848Y150450D01*
X76373Y151125D01*
X76748Y151500D01*
X76823Y151575D01*
Y151650D01*
X73299Y154650D01*
X73149Y156149D01*
X72849Y157574D01*
X72474Y158924D01*
X72099Y160199D01*
X71574Y161474D01*
X71049Y162599D01*
X70524Y163724D01*
X69999Y164698D01*
X69474Y165598D01*
X68949Y166423D01*
X68499Y167098D01*
X68049Y167698D01*
X67749Y168148D01*
X67449Y168448D01*
X67299Y168673D01*
X67225Y168748D01*
X66475Y176622D01*
X63550Y183746D01*
X62950Y183146D01*
X62500Y182546D01*
X62200Y181871D01*
X61975Y181271D01*
X61825Y180746D01*
X61750Y180296D01*
Y179921D01*
X61825Y179246D01*
X61900Y178647D01*
X62050Y178272D01*
X62125Y178197D01*
Y178122D01*
X62425Y177372D01*
X62800Y176697D01*
X62950Y176397D01*
X63100Y176172D01*
X63175Y176022D01*
X63250Y175947D01*
X63100Y175347D01*
X62950Y174747D01*
X62650Y173547D01*
X62500Y173022D01*
X62350Y172647D01*
X62275Y172347D01*
Y172272D01*
X62200Y171897D01*
X62050Y171372D01*
X61900Y170398D01*
X61825Y169948D01*
X61750Y169573D01*
X61675Y169348D01*
Y169273D01*
X60400Y168898D01*
X59126Y168598D01*
X58076Y168448D01*
X57101Y168298D01*
X56351Y168223D01*
X55751Y168148D01*
X55451D01*
X55301D01*
X54101Y169573D01*
X53051Y170923D01*
X52002Y172047D01*
X51102Y173097D01*
X50352Y173922D01*
X49827Y174522D01*
X49452Y174897D01*
X49302Y175047D01*
X50052Y176322D01*
X50652Y177597D01*
X51252Y178797D01*
X51777Y179921D01*
X52152Y180971D01*
X52451Y181721D01*
X52526Y182021D01*
X52601Y182246D01*
X52676Y182321D01*
Y182396D01*
X53426D01*
X53951D01*
X54251D01*
X54401D01*
X55601Y182471D01*
X56576Y182771D01*
X57326Y183146D01*
X57851Y183596D01*
X58226Y184046D01*
X58526Y184421D01*
X58601Y184721D01*
X58676Y184796D01*
D02*
G37*
G36*
X102156Y178316D02*
X102141D01*
X102126D01*
X102111Y178241D01*
X102096Y178121D01*
Y178001D01*
X102081Y177867D01*
X102066Y177747D01*
Y177642D01*
X102051Y177567D01*
Y177537D01*
X102036Y177357D01*
X102021Y177192D01*
Y177057D01*
X102006Y176952D01*
X101991Y176862D01*
Y176802D01*
X101976Y176772D01*
Y176757D01*
X102426Y177027D01*
X102815Y177267D01*
X103160Y177462D01*
X103460Y177642D01*
X103580Y177702D01*
X103685Y177762D01*
X103775Y177822D01*
X103850Y177867D01*
X103910Y177897D01*
X103955Y177927D01*
X103970Y177942D01*
X103984D01*
X103580Y178032D01*
X103205Y178106D01*
X102890Y178166D01*
X102620Y178226D01*
X102410Y178256D01*
X102321Y178271D01*
X102261Y178286D01*
X102201Y178301D01*
X102156Y178316D01*
D02*
G37*
G36*
X104584Y163716D02*
X104539D01*
X104524D01*
X104329Y163701D01*
X104149Y163641D01*
X103999Y163566D01*
X103865Y163446D01*
X103745Y163326D01*
X103640Y163176D01*
X103565Y163026D01*
X103490Y162877D01*
X103385Y162562D01*
X103340Y162412D01*
X103325Y162292D01*
X103295Y162172D01*
Y162097D01*
X103280Y162037D01*
Y161797D01*
X103295Y161557D01*
X103310Y161438D01*
Y161348D01*
X103325Y161288D01*
Y161273D01*
X104479D01*
X105663D01*
Y162127D01*
X105648Y162337D01*
X105603Y162532D01*
X105543Y162727D01*
X105483Y162877D01*
X105409Y163012D01*
X105349Y163116D01*
X105304Y163176D01*
X105289Y163206D01*
X105154Y163371D01*
X105019Y163506D01*
X104884Y163596D01*
X104764Y163656D01*
X104674Y163686D01*
X104584Y163716D01*
D02*
G37*
G36*
X100717Y164301D02*
X100702D01*
X100642Y164286D01*
X100582Y164256D01*
X100522Y164211D01*
X100477Y164151D01*
X100372Y163986D01*
X100282Y163821D01*
X100207Y163641D01*
X100147Y163476D01*
X100132Y163416D01*
X100117Y163371D01*
X100102Y163341D01*
Y163326D01*
X99997Y162922D01*
X99907Y162532D01*
X99847Y162187D01*
X99802Y161887D01*
X99787Y161752D01*
X99772Y161632D01*
X99757Y161528D01*
Y161438D01*
X99742Y161363D01*
Y161273D01*
X101811D01*
X101796Y161617D01*
X101781Y161932D01*
Y162187D01*
X101766Y162397D01*
Y162772D01*
X101736Y162937D01*
X101691Y163086D01*
X101646Y163236D01*
X101586Y163386D01*
X101541Y163491D01*
X101496Y163596D01*
X101466Y163656D01*
X101451Y163671D01*
X101331Y163866D01*
X101196Y164016D01*
X101076Y164136D01*
X100956Y164211D01*
X100852Y164256D01*
X100777Y164286D01*
X100717Y164301D01*
D02*
G37*
G36*
X102592Y118913D02*
X102502D01*
X102442D01*
X102397D01*
X102382D01*
X102082D01*
X101797Y118898D01*
X101542Y118868D01*
X101303Y118838D01*
X101078Y118808D01*
X100868Y118763D01*
X100688Y118718D01*
X100523Y118688D01*
X100388Y118643D01*
X100253Y118598D01*
X100148Y118553D01*
X100058Y118523D01*
X99998Y118493D01*
X99954Y118463D01*
X99924Y118448D01*
X99909D01*
X99774Y118358D01*
X99639Y118268D01*
X99534Y118164D01*
X99444Y118043D01*
X99294Y117819D01*
X99204Y117609D01*
X99144Y117414D01*
X99114Y117249D01*
X99099Y117189D01*
Y117099D01*
X99114Y116904D01*
X99144Y116724D01*
X99204Y116560D01*
X99279Y116410D01*
X99474Y116155D01*
X99684Y115945D01*
X99894Y115795D01*
X100088Y115690D01*
X100163Y115645D01*
X100223Y115615D01*
X100253Y115600D01*
X100268D01*
X100568Y115525D01*
X100898Y115465D01*
X101243Y115420D01*
X101573Y115390D01*
X101872Y115375D01*
X102007D01*
X102112Y115360D01*
X102202D01*
X102277D01*
X102322D01*
X102337D01*
X102712Y115375D01*
X103042Y115435D01*
X103356Y115510D01*
X103611Y115600D01*
X103821Y115675D01*
X103986Y115750D01*
X104046Y115780D01*
X104091Y115810D01*
X104106Y115825D01*
X104121D01*
X104286Y115930D01*
X104421Y116035D01*
X104541Y116155D01*
X104645Y116275D01*
X104735Y116395D01*
X104795Y116515D01*
X104915Y116754D01*
X104975Y116949D01*
X105005Y117114D01*
X105020Y117174D01*
Y117414D01*
X104990Y117549D01*
X104915Y117804D01*
X104810Y118014D01*
X104690Y118193D01*
X104570Y118328D01*
X104465Y118418D01*
X104391Y118478D01*
X104376Y118493D01*
X104361D01*
X104226Y118568D01*
X104091Y118628D01*
X103776Y118733D01*
X103446Y118808D01*
X103131Y118868D01*
X102832Y118898D01*
X102712D01*
X102592Y118913D01*
D02*
G37*
G36*
X102097Y88378D02*
X101977Y88199D01*
X101872Y88004D01*
X101767Y87809D01*
X101677Y87614D01*
X101587Y87434D01*
X101528Y87299D01*
X101482Y87209D01*
X101468Y87194D01*
Y87179D01*
X101363Y86939D01*
X101273Y86714D01*
X101183Y86505D01*
X101108Y86325D01*
X101033Y86160D01*
X100988Y86040D01*
X100958Y85965D01*
X100943Y85935D01*
X101183Y86025D01*
X101393Y86115D01*
X101558Y86205D01*
X101707Y86295D01*
X101812Y86385D01*
X101902Y86445D01*
X101947Y86490D01*
X101962Y86505D01*
X102082Y86655D01*
X102157Y86804D01*
X102217Y86954D01*
X102262Y87089D01*
X102292Y87224D01*
X102307Y87314D01*
Y87404D01*
X102292Y87614D01*
X102277Y87809D01*
X102247Y87974D01*
X102202Y88124D01*
X102157Y88228D01*
X102127Y88318D01*
X102112Y88363D01*
X102097Y88378D01*
D02*
G37*
G36*
X100628Y77810D02*
X100523D01*
X100433D01*
X100373D01*
X100358D01*
X100133Y77780D01*
X99924Y77735D01*
X99744Y77661D01*
X99594Y77586D01*
X99489Y77511D01*
X99399Y77436D01*
X99339Y77391D01*
X99324Y77376D01*
X99219Y77241D01*
X99144Y77091D01*
X99084Y76956D01*
X99054Y76836D01*
X99024Y76716D01*
X99009Y76626D01*
Y76551D01*
X99024Y76401D01*
X99054Y76266D01*
X99099Y76147D01*
X99144Y76042D01*
X99189Y75967D01*
X99234Y75907D01*
X99264Y75862D01*
X99279Y75847D01*
X99429Y75727D01*
X99594Y75637D01*
X99759Y75577D01*
X99924Y75532D01*
X100074Y75502D01*
X100193Y75487D01*
X100268D01*
X100298D01*
X100553Y75502D01*
X100778Y75532D01*
X100988Y75592D01*
X101168Y75652D01*
X101318Y75697D01*
X101423Y75757D01*
X101482Y75787D01*
X101513Y75802D01*
X101722Y75967D01*
X101872Y76147D01*
X101992Y76326D01*
X102067Y76491D01*
X102112Y76641D01*
X102127Y76776D01*
X102142Y76851D01*
Y76881D01*
X102127Y77061D01*
X102067Y77211D01*
X101977Y77331D01*
X101857Y77451D01*
X101722Y77541D01*
X101573Y77615D01*
X101243Y77720D01*
X100913Y77780D01*
X100763Y77795D01*
X100628Y77810D01*
D02*
G37*
G36*
X100658Y66523D02*
X100523D01*
X100433D01*
X100418D01*
X100403D01*
X100178Y66508D01*
X99984Y66478D01*
X99819Y66433D01*
X99684Y66388D01*
X99564Y66328D01*
X99489Y66283D01*
X99429Y66253D01*
X99414Y66238D01*
X99279Y66118D01*
X99189Y65983D01*
X99114Y65833D01*
X99069Y65698D01*
X99039Y65563D01*
X99024Y65459D01*
Y65369D01*
X99054Y65009D01*
X99069Y64844D01*
X99099Y64694D01*
X99129Y64574D01*
X99144Y64484D01*
X99174Y64409D01*
Y64394D01*
X99609D01*
X100013Y64379D01*
X100403D01*
X100748Y64364D01*
X100913D01*
X101048Y64349D01*
X101168D01*
X101273D01*
X101363Y64334D01*
X101423D01*
X101453D01*
X101468D01*
X101587Y64469D01*
X101677Y64604D01*
X101767Y64709D01*
X101842Y64829D01*
X101887Y64904D01*
X101932Y64979D01*
X101962Y65024D01*
Y65039D01*
X102022Y65174D01*
X102052Y65309D01*
X102082Y65429D01*
X102112Y65534D01*
Y65623D01*
X102127Y65698D01*
Y65848D01*
X102097Y65938D01*
X102022Y66088D01*
X101902Y66208D01*
X101782Y66298D01*
X101662Y66373D01*
X101542Y66418D01*
X101468Y66433D01*
X101453Y66448D01*
X101437D01*
X101318Y66478D01*
X101153Y66493D01*
X100988Y66508D01*
X100808D01*
X100658Y66523D01*
D02*
G37*
%LPD*%
M02*
