G04*
G04 #@! TF.GenerationSoftware,Altium Limited,Altium Designer,20.2.7 (254)*
G04*
G04 Layer_Physical_Order=1*
G04 Layer_Color=255*
%FSLAX25Y25*%
%MOIN*%
G70*
G04*
G04 #@! TF.SameCoordinates,4998CC98-4955-4D50-BC1E-778ED6EA16F9*
G04*
G04*
G04 #@! TF.FilePolarity,Positive*
G04*
G01*
G75*
%ADD10C,0.00787*%
%ADD17R,0.05500X0.01100*%
G04:AMPARAMS|DCode=18|XSize=55.12mil|YSize=35.43mil|CornerRadius=1.77mil|HoleSize=0mil|Usage=FLASHONLY|Rotation=90.000|XOffset=0mil|YOffset=0mil|HoleType=Round|Shape=RoundedRectangle|*
%AMROUNDEDRECTD18*
21,1,0.05512,0.03189,0,0,90.0*
21,1,0.05158,0.03543,0,0,90.0*
1,1,0.00354,0.01595,0.02579*
1,1,0.00354,0.01595,-0.02579*
1,1,0.00354,-0.01595,-0.02579*
1,1,0.00354,-0.01595,0.02579*
%
%ADD18ROUNDEDRECTD18*%
G04:AMPARAMS|DCode=19|XSize=55.12mil|YSize=35.43mil|CornerRadius=1.77mil|HoleSize=0mil|Usage=FLASHONLY|Rotation=180.000|XOffset=0mil|YOffset=0mil|HoleType=Round|Shape=RoundedRectangle|*
%AMROUNDEDRECTD19*
21,1,0.05512,0.03189,0,0,180.0*
21,1,0.05158,0.03543,0,0,180.0*
1,1,0.00354,-0.02579,0.01595*
1,1,0.00354,0.02579,0.01595*
1,1,0.00354,0.02579,-0.01595*
1,1,0.00354,-0.02579,-0.01595*
%
%ADD19ROUNDEDRECTD19*%
%ADD20R,0.03150X0.03543*%
%ADD21R,0.03543X0.04528*%
%ADD22R,0.03150X0.04528*%
%ADD23R,0.02756X0.04528*%
%ADD24R,0.05200X0.02362*%
%ADD25R,0.05200X0.01400*%
G04:AMPARAMS|DCode=26|XSize=31.5mil|YSize=86.61mil|CornerRadius=1.58mil|HoleSize=0mil|Usage=FLASHONLY|Rotation=90.000|XOffset=0mil|YOffset=0mil|HoleType=Round|Shape=RoundedRectangle|*
%AMROUNDEDRECTD26*
21,1,0.03150,0.08346,0,0,90.0*
21,1,0.02835,0.08661,0,0,90.0*
1,1,0.00315,0.04173,0.01417*
1,1,0.00315,0.04173,-0.01417*
1,1,0.00315,-0.04173,-0.01417*
1,1,0.00315,-0.04173,0.01417*
%
%ADD26ROUNDEDRECTD26*%
G04:AMPARAMS|DCode=27|XSize=37.4mil|YSize=35.43mil|CornerRadius=1.77mil|HoleSize=0mil|Usage=FLASHONLY|Rotation=90.000|XOffset=0mil|YOffset=0mil|HoleType=Round|Shape=RoundedRectangle|*
%AMROUNDEDRECTD27*
21,1,0.03740,0.03189,0,0,90.0*
21,1,0.03386,0.03543,0,0,90.0*
1,1,0.00354,0.01595,0.01693*
1,1,0.00354,0.01595,-0.01693*
1,1,0.00354,-0.01595,-0.01693*
1,1,0.00354,-0.01595,0.01693*
%
%ADD27ROUNDEDRECTD27*%
G04:AMPARAMS|DCode=28|XSize=61.02mil|YSize=41.34mil|CornerRadius=2.07mil|HoleSize=0mil|Usage=FLASHONLY|Rotation=90.000|XOffset=0mil|YOffset=0mil|HoleType=Round|Shape=RoundedRectangle|*
%AMROUNDEDRECTD28*
21,1,0.06102,0.03720,0,0,90.0*
21,1,0.05689,0.04134,0,0,90.0*
1,1,0.00413,0.01860,0.02845*
1,1,0.00413,0.01860,-0.02845*
1,1,0.00413,-0.01860,-0.02845*
1,1,0.00413,-0.01860,0.02845*
%
%ADD28ROUNDEDRECTD28*%
G04:AMPARAMS|DCode=29|XSize=61.02mil|YSize=41.34mil|CornerRadius=2.07mil|HoleSize=0mil|Usage=FLASHONLY|Rotation=180.000|XOffset=0mil|YOffset=0mil|HoleType=Round|Shape=RoundedRectangle|*
%AMROUNDEDRECTD29*
21,1,0.06102,0.03720,0,0,180.0*
21,1,0.05689,0.04134,0,0,180.0*
1,1,0.00413,-0.02845,0.01860*
1,1,0.00413,0.02845,0.01860*
1,1,0.00413,0.02845,-0.01860*
1,1,0.00413,-0.02845,-0.01860*
%
%ADD29ROUNDEDRECTD29*%
G04:AMPARAMS|DCode=30|XSize=23.62mil|YSize=35.43mil|CornerRadius=1.18mil|HoleSize=0mil|Usage=FLASHONLY|Rotation=90.000|XOffset=0mil|YOffset=0mil|HoleType=Round|Shape=RoundedRectangle|*
%AMROUNDEDRECTD30*
21,1,0.02362,0.03307,0,0,90.0*
21,1,0.02126,0.03543,0,0,90.0*
1,1,0.00236,0.01654,0.01063*
1,1,0.00236,0.01654,-0.01063*
1,1,0.00236,-0.01654,-0.01063*
1,1,0.00236,-0.01654,0.01063*
%
%ADD30ROUNDEDRECTD30*%
%ADD31R,0.07874X0.07087*%
%ADD32R,0.02362X0.05118*%
%ADD33R,0.03150X0.05906*%
%ADD34R,0.05512X0.07480*%
%ADD35R,0.07087X0.05512*%
%ADD65R,0.07600X0.17000*%
%ADD66C,0.01181*%
%ADD67C,0.00984*%
%ADD68C,0.01575*%
%ADD69C,0.01000*%
%ADD70C,0.06000*%
%ADD71C,0.04173*%
%ADD72C,0.06900*%
%ADD73R,0.06900X0.06900*%
%ADD74O,0.03937X0.06693*%
%ADD75C,0.13780*%
%ADD76C,0.01850*%
%ADD77C,0.02756*%
%ADD78C,0.02953*%
G36*
X106505Y221509D02*
X106421Y221483D01*
X105053Y220752D01*
X103854Y219768D01*
X102870Y218569D01*
X102139Y217201D01*
X101689Y215717D01*
X101537Y214173D01*
X101689Y212630D01*
X102139Y211145D01*
X102870Y209777D01*
X103854Y208578D01*
X105053Y207594D01*
X106421Y206863D01*
X107905Y206413D01*
X109449Y206261D01*
X110992Y206413D01*
X112477Y206863D01*
X113845Y207594D01*
X115043Y208578D01*
X116027Y209777D01*
X116759Y211145D01*
X117209Y212630D01*
X117361Y214173D01*
X117209Y215717D01*
X116759Y217201D01*
X116027Y218569D01*
X115043Y219768D01*
X113845Y220752D01*
X112477Y221483D01*
X112384Y221511D01*
X112480Y221994D01*
X112694Y221983D01*
X113584Y221895D01*
X114911Y221493D01*
X116133Y220840D01*
X117204Y219960D01*
X118084Y218889D01*
X118737Y217667D01*
X119140Y216340D01*
X119268Y215037D01*
X119253Y214961D01*
Y204682D01*
X100083D01*
Y193960D01*
X100083Y193674D01*
X100081Y193665D01*
X99589Y193488D01*
X99272Y193902D01*
X98480Y194509D01*
X97559Y194891D01*
X96964Y194969D01*
Y191595D01*
X100339D01*
X100260Y192190D01*
X99890Y193084D01*
X99973Y193223D01*
X100207Y193504D01*
X100512Y193504D01*
X119253D01*
Y185736D01*
X118930Y185626D01*
X118753Y185599D01*
X117847Y186295D01*
X116768Y186741D01*
X115610Y186894D01*
X114453Y186741D01*
X113374Y186295D01*
X112448Y185584D01*
X111737Y184658D01*
X111290Y183579D01*
X111138Y182421D01*
X111290Y181264D01*
X111737Y180185D01*
X112448Y179259D01*
X113374Y178548D01*
X114453Y178101D01*
X115610Y177949D01*
X116768Y178101D01*
X117847Y178548D01*
X118753Y179243D01*
X118930Y179216D01*
X119253Y179106D01*
Y175736D01*
X118930Y175627D01*
X118753Y175599D01*
X117847Y176295D01*
X116768Y176741D01*
X115610Y176894D01*
X114453Y176741D01*
X113374Y176295D01*
X112448Y175584D01*
X111737Y174657D01*
X111290Y173579D01*
X111138Y172421D01*
X111290Y171264D01*
X111737Y170185D01*
X112448Y169259D01*
X113374Y168548D01*
X114453Y168101D01*
X115610Y167949D01*
X116768Y168101D01*
X117847Y168548D01*
X118753Y169243D01*
X118930Y169216D01*
X119253Y169106D01*
Y165736D01*
X118930Y165627D01*
X118753Y165599D01*
X117847Y166295D01*
X116768Y166741D01*
X115610Y166894D01*
X114453Y166741D01*
X113374Y166295D01*
X112448Y165584D01*
X111737Y164657D01*
X111290Y163579D01*
X111138Y162421D01*
X111290Y161264D01*
X111737Y160185D01*
X112448Y159259D01*
X113374Y158548D01*
X114453Y158101D01*
X115610Y157949D01*
X116768Y158101D01*
X117847Y158548D01*
X118753Y159243D01*
X118930Y159216D01*
X119253Y159107D01*
Y156236D01*
X118930Y156126D01*
X118753Y156099D01*
X117847Y156795D01*
X116768Y157241D01*
X115610Y157394D01*
X114453Y157241D01*
X113421Y156814D01*
X107503Y162731D01*
Y183391D01*
X108308Y183724D01*
X109141Y184363D01*
X109779Y185195D01*
X110181Y186165D01*
X110318Y187205D01*
X110181Y188245D01*
X109779Y189214D01*
X109141Y190046D01*
X108308Y190685D01*
X107339Y191086D01*
X106299Y191223D01*
X105259Y191086D01*
X104290Y190685D01*
X103458Y190046D01*
X102819Y189214D01*
X102418Y188245D01*
X102281Y187205D01*
X102418Y186165D01*
X102819Y185195D01*
X103458Y184363D01*
X104290Y183724D01*
X105095Y183391D01*
Y162232D01*
X105095Y162232D01*
X105187Y161771D01*
X105448Y161381D01*
X111718Y155111D01*
X111290Y154079D01*
X111138Y152921D01*
X111290Y151764D01*
X111737Y150685D01*
X112448Y149759D01*
X113374Y149048D01*
X114453Y148601D01*
X115610Y148449D01*
X116768Y148601D01*
X117847Y149048D01*
X118753Y149743D01*
X118930Y149716D01*
X119253Y149607D01*
Y145736D01*
X118930Y145626D01*
X118753Y145599D01*
X117847Y146295D01*
X116768Y146741D01*
X115610Y146894D01*
X114453Y146741D01*
X113374Y146295D01*
X112448Y145584D01*
X111737Y144658D01*
X111290Y143579D01*
X111138Y142421D01*
X111290Y141264D01*
X111737Y140185D01*
X112448Y139259D01*
X113374Y138548D01*
X114453Y138101D01*
X115610Y137949D01*
X116768Y138101D01*
X117847Y138548D01*
X118753Y139243D01*
X118930Y139216D01*
X119253Y139107D01*
Y135736D01*
X118930Y135626D01*
X118753Y135599D01*
X117847Y136295D01*
X116768Y136741D01*
X115610Y136894D01*
X114453Y136741D01*
X113374Y136295D01*
X112448Y135584D01*
X111737Y134658D01*
X111290Y133579D01*
X111138Y132421D01*
X111290Y131264D01*
X111737Y130185D01*
X112448Y129259D01*
X113374Y128548D01*
X114453Y128101D01*
X115610Y127949D01*
X116768Y128101D01*
X117847Y128548D01*
X118753Y129243D01*
X118930Y129216D01*
X119253Y129106D01*
Y126159D01*
X116004D01*
Y121921D01*
Y117684D01*
X119253D01*
Y115736D01*
X118930Y115627D01*
X118753Y115599D01*
X117847Y116295D01*
X116768Y116741D01*
X115610Y116894D01*
X114453Y116741D01*
X113374Y116295D01*
X112448Y115584D01*
X111737Y114657D01*
X111737Y114657D01*
X111227D01*
X105927Y119957D01*
Y156693D01*
X105843Y157116D01*
X105604Y157474D01*
X71420Y191658D01*
Y193307D01*
X72875D01*
Y194291D01*
X74252D01*
Y198031D01*
Y201771D01*
X72284D01*
Y201181D01*
X68544D01*
Y201968D01*
X66988D01*
Y204213D01*
X72387D01*
X72771Y204289D01*
X73097Y204507D01*
X76051Y207461D01*
X82678D01*
Y203741D01*
X90158D01*
Y213189D01*
X82678D01*
Y209468D01*
X75636D01*
X75252Y209392D01*
X74926Y209174D01*
X71972Y206220D01*
X66400D01*
X59510Y213111D01*
X59184Y213328D01*
X58800Y213405D01*
X38386D01*
Y217126D01*
X30906D01*
Y207677D01*
X33642D01*
Y202753D01*
X15432Y184543D01*
X15215Y184218D01*
X15138Y183834D01*
Y159449D01*
X15215Y159065D01*
X15432Y158739D01*
X23916Y150255D01*
X24242Y150037D01*
X24626Y149961D01*
X77951D01*
X79460Y148452D01*
X79391Y147952D01*
X77933D01*
X77557Y147877D01*
X77238Y147664D01*
X77025Y147345D01*
X76950Y146968D01*
Y146378D01*
X74606D01*
X74222Y146301D01*
X73897Y146084D01*
X70550Y142737D01*
X70333Y142412D01*
X70256Y142028D01*
Y136833D01*
X67202Y133779D01*
X65369D01*
Y138444D01*
X63068D01*
Y143549D01*
X63659D01*
X64035Y143624D01*
X64354Y143837D01*
X64567Y144156D01*
X64642Y144533D01*
Y147918D01*
X64567Y148295D01*
X64354Y148614D01*
X64035Y148827D01*
X63659Y148902D01*
X60470D01*
X60093Y148827D01*
X59774Y148614D01*
X59561Y148295D01*
X59486Y147918D01*
Y144533D01*
X59561Y144156D01*
X59774Y143837D01*
X60093Y143624D01*
X60470Y143549D01*
X61061D01*
Y138444D01*
X58595D01*
Y137479D01*
X58220D01*
X57836Y137403D01*
X57510Y137185D01*
X56172Y135847D01*
X55955Y135522D01*
X55879Y135138D01*
Y131332D01*
X55669Y131175D01*
X55169Y131425D01*
Y132382D01*
X48395D01*
Y129551D01*
X43412D01*
Y129965D01*
X43338Y130334D01*
X43130Y130646D01*
X42817Y130855D01*
X42448Y130928D01*
X34102D01*
X33733Y130855D01*
X33421Y130646D01*
X33212Y130334D01*
X33138Y129965D01*
Y127130D01*
X33212Y126762D01*
X33421Y126449D01*
X33733Y126240D01*
X34102Y126167D01*
X37272D01*
Y124775D01*
X37182Y124715D01*
X36847Y124213D01*
X36730Y123622D01*
X36847Y123031D01*
X37182Y122529D01*
X37684Y122194D01*
X37736Y122184D01*
X37686Y121684D01*
X31594D01*
X31210Y121607D01*
X30884Y121390D01*
X29704Y120210D01*
X29486Y119884D01*
X29410Y119500D01*
Y118329D01*
X28819D01*
X28442Y118254D01*
X28375Y118209D01*
X27875Y118476D01*
Y119039D01*
X27798Y119423D01*
X27581Y119748D01*
X27119Y120210D01*
X26794Y120427D01*
X26410Y120503D01*
X25460D01*
X22756Y123208D01*
Y131004D01*
X22679Y131388D01*
X22462Y131713D01*
X19856Y134319D01*
X19863Y134336D01*
X19968Y135138D01*
X19863Y135940D01*
X19553Y136687D01*
X19061Y137328D01*
X18420Y137820D01*
X17673Y138130D01*
X16871Y138235D01*
X16069Y138130D01*
X15725Y137987D01*
X14098Y139614D01*
Y141102D01*
X14322Y141436D01*
X14439Y142028D01*
X14322Y142619D01*
X13986Y143120D01*
X13485Y143455D01*
X12894Y143573D01*
X12302Y143455D01*
X11801Y143120D01*
X11466Y142619D01*
X11348Y142028D01*
X11466Y141436D01*
X11689Y141102D01*
Y139115D01*
X11689Y139115D01*
X11781Y138654D01*
X12042Y138264D01*
X14022Y136284D01*
X13879Y135940D01*
X13774Y135138D01*
X13879Y134336D01*
X14022Y133992D01*
X10960Y130929D01*
X10698Y130539D01*
X10607Y130078D01*
X10607Y130078D01*
Y120680D01*
X10607Y120680D01*
X10698Y120220D01*
X10960Y119829D01*
X13461Y117327D01*
Y30544D01*
X13461Y30544D01*
X13553Y30083D01*
X13814Y29693D01*
X20571Y22936D01*
Y19521D01*
X25295D01*
Y24639D01*
X22274D01*
X15870Y31043D01*
Y117826D01*
X15778Y118287D01*
X15517Y118678D01*
X15517Y118678D01*
X13015Y121179D01*
Y129579D01*
X15725Y132289D01*
X16069Y132146D01*
X16871Y132040D01*
X17673Y132146D01*
X18420Y132455D01*
X18681Y132656D01*
X20748Y130588D01*
Y122792D01*
X20825Y122408D01*
X21042Y122082D01*
X24296Y118829D01*
X24278Y118666D01*
X24125Y118329D01*
X21732D01*
X21356Y118254D01*
X21037Y118041D01*
X20824Y117722D01*
X20749Y117345D01*
Y112188D01*
X20824Y111812D01*
X21037Y111493D01*
X21356Y111279D01*
X21732Y111205D01*
X22323D01*
Y110434D01*
X17105Y105216D01*
X16888Y104890D01*
X16811Y104506D01*
Y96555D01*
X16888Y96171D01*
X17105Y95846D01*
X17774Y95177D01*
X18099Y94959D01*
X18484Y94883D01*
X19235D01*
Y91799D01*
Y89299D01*
X21328D01*
X21471Y88799D01*
X21195Y88387D01*
X21081Y87815D01*
X17920Y84654D01*
X17681Y84296D01*
X17597Y83873D01*
Y71358D01*
X17681Y70936D01*
X17920Y70578D01*
X18806Y69692D01*
X19164Y69453D01*
X19587Y69369D01*
X20552D01*
Y68878D01*
X20627Y68502D01*
X20840Y68182D01*
X21159Y67969D01*
X21535Y67895D01*
X23010D01*
Y66930D01*
X23094Y66508D01*
X23334Y66149D01*
X29802Y59681D01*
Y49680D01*
X29724Y49213D01*
X29302Y49213D01*
X20275D01*
Y40551D01*
X29302D01*
X29724Y40551D01*
X29802Y40083D01*
Y28839D01*
X29886Y28416D01*
X30125Y28058D01*
X31503Y26680D01*
X31861Y26441D01*
X32283Y26357D01*
X40551D01*
X40974Y26441D01*
X41332Y26680D01*
X42710Y28058D01*
X42949Y28416D01*
X43033Y28839D01*
Y30355D01*
X43387Y30709D01*
X43897Y30709D01*
X44397Y30709D01*
X47834D01*
Y33052D01*
X53127D01*
X58725Y27453D01*
X59051Y27236D01*
X59435Y27159D01*
X101352D01*
X101736Y27236D01*
X102061Y27453D01*
X113251Y38642D01*
X113374Y38548D01*
X114453Y38101D01*
X115610Y37949D01*
X116768Y38101D01*
X117847Y38548D01*
X118753Y39243D01*
X118930Y39216D01*
X119253Y39107D01*
Y9055D01*
X119268Y8979D01*
X119140Y7676D01*
X118737Y6349D01*
X118084Y5127D01*
X117204Y4055D01*
X116133Y3176D01*
X114911Y2523D01*
X113584Y2120D01*
X112694Y2033D01*
X112480Y2021D01*
X112384Y2505D01*
X112477Y2533D01*
X113845Y3264D01*
X115043Y4248D01*
X116027Y5447D01*
X116759Y6815D01*
X117209Y8299D01*
X117361Y9843D01*
X117209Y11386D01*
X116759Y12870D01*
X116027Y14238D01*
X115043Y15437D01*
X113845Y16421D01*
X112477Y17152D01*
X110992Y17603D01*
X109449Y17755D01*
X107905Y17603D01*
X106421Y17152D01*
X105053Y16421D01*
X103854Y15437D01*
X102870Y14238D01*
X102139Y12870D01*
X101689Y11386D01*
X101537Y9843D01*
X101689Y8299D01*
X102139Y6815D01*
X102870Y5447D01*
X103854Y4248D01*
X105053Y3264D01*
X106421Y2533D01*
X106505Y2507D01*
X106431Y2007D01*
X80516D01*
X80238Y2423D01*
X80323Y2627D01*
X80418Y3347D01*
Y4331D01*
X74858D01*
Y3347D01*
X74953Y2627D01*
X75037Y2423D01*
X74760Y2007D01*
X46500Y2007D01*
X46222Y2423D01*
X46307Y2627D01*
X46402Y3347D01*
Y4331D01*
X40842D01*
Y3347D01*
X40937Y2627D01*
X41022Y2423D01*
X40744Y2007D01*
X14829D01*
X14754Y2507D01*
X14839Y2533D01*
X16207Y3264D01*
X17406Y4248D01*
X18390Y5447D01*
X19121Y6815D01*
X19571Y8299D01*
X19723Y9843D01*
X19571Y11386D01*
X19121Y12870D01*
X18390Y14238D01*
X17406Y15437D01*
X16207Y16421D01*
X14839Y17152D01*
X13355Y17603D01*
X11811Y17755D01*
X10267Y17603D01*
X8783Y17152D01*
X7415Y16421D01*
X6216Y15437D01*
X5232Y14238D01*
X4501Y12870D01*
X4051Y11386D01*
X3899Y9843D01*
X4051Y8299D01*
X4501Y6815D01*
X5232Y5447D01*
X6216Y4248D01*
X7415Y3264D01*
X8783Y2533D01*
X8876Y2505D01*
X8778Y2012D01*
X7676Y2120D01*
X6349Y2523D01*
X5127Y3176D01*
X4055Y4055D01*
X3176Y5127D01*
X2523Y6349D01*
X2120Y7676D01*
X1992Y8979D01*
X2007Y9055D01*
Y39098D01*
X2507Y39213D01*
X3374Y38548D01*
X4453Y38101D01*
X5610Y37949D01*
X6768Y38101D01*
X7846Y38548D01*
X8773Y39259D01*
X9483Y40185D01*
X9930Y41264D01*
X10083Y42421D01*
X9930Y43579D01*
X9483Y44657D01*
X8773Y45584D01*
X7846Y46295D01*
X6768Y46741D01*
X5610Y46894D01*
X4453Y46741D01*
X3374Y46295D01*
X2507Y45629D01*
X2007Y45744D01*
Y48184D01*
X5217D01*
Y52421D01*
Y56659D01*
X2007D01*
Y59098D01*
X2507Y59213D01*
X3374Y58548D01*
X4453Y58101D01*
X5610Y57949D01*
X6768Y58101D01*
X7846Y58548D01*
X8773Y59259D01*
X9483Y60185D01*
X9930Y61264D01*
X10083Y62421D01*
X9930Y63579D01*
X9483Y64657D01*
X8773Y65584D01*
X7846Y66295D01*
X6768Y66741D01*
X5610Y66894D01*
X4453Y66741D01*
X3374Y66295D01*
X2507Y65629D01*
X2007Y65745D01*
Y69098D01*
X2507Y69213D01*
X3374Y68548D01*
X4453Y68101D01*
X5610Y67949D01*
X6768Y68101D01*
X7846Y68548D01*
X8773Y69259D01*
X9483Y70185D01*
X9930Y71264D01*
X10083Y72421D01*
X9930Y73579D01*
X9483Y74657D01*
X8773Y75584D01*
X7846Y76295D01*
X6768Y76741D01*
X5610Y76894D01*
X4453Y76741D01*
X3374Y76295D01*
X2507Y75629D01*
X2007Y75744D01*
Y79098D01*
X2507Y79213D01*
X3374Y78548D01*
X4453Y78101D01*
X5610Y77949D01*
X6768Y78101D01*
X7846Y78548D01*
X8773Y79259D01*
X9483Y80185D01*
X9930Y81264D01*
X10083Y82421D01*
X9930Y83579D01*
X9483Y84658D01*
X8773Y85584D01*
X7846Y86295D01*
X6768Y86741D01*
X5610Y86894D01*
X4453Y86741D01*
X3374Y86295D01*
X2507Y85629D01*
X2007Y85745D01*
Y87684D01*
X5217D01*
Y91921D01*
Y96159D01*
X2007D01*
Y99098D01*
X2507Y99213D01*
X3374Y98548D01*
X4453Y98101D01*
X5610Y97949D01*
X6768Y98101D01*
X7846Y98548D01*
X8773Y99259D01*
X9483Y100185D01*
X9930Y101264D01*
X10083Y102421D01*
X9930Y103579D01*
X9483Y104657D01*
X8773Y105584D01*
X7846Y106295D01*
X6768Y106741D01*
X5610Y106894D01*
X4453Y106741D01*
X3374Y106295D01*
X2507Y105629D01*
X2007Y105745D01*
Y109098D01*
X2507Y109213D01*
X3374Y108548D01*
X4453Y108101D01*
X5610Y107949D01*
X6768Y108101D01*
X7846Y108548D01*
X8773Y109259D01*
X9483Y110185D01*
X9930Y111264D01*
X10083Y112421D01*
X9930Y113579D01*
X9483Y114657D01*
X8773Y115584D01*
X7846Y116295D01*
X6768Y116741D01*
X5610Y116894D01*
X4453Y116741D01*
X3374Y116295D01*
X2507Y115629D01*
X2007Y115744D01*
Y119598D01*
X2507Y119713D01*
X3374Y119048D01*
X4453Y118601D01*
X5610Y118449D01*
X6768Y118601D01*
X7846Y119048D01*
X8773Y119759D01*
X9483Y120685D01*
X9930Y121764D01*
X10083Y122921D01*
X9930Y124079D01*
X9483Y125157D01*
X8773Y126084D01*
X7846Y126795D01*
X6768Y127241D01*
X5610Y127394D01*
X4453Y127241D01*
X3374Y126795D01*
X2507Y126129D01*
X2007Y126244D01*
Y129098D01*
X2507Y129213D01*
X3374Y128548D01*
X4453Y128101D01*
X5610Y127949D01*
X6768Y128101D01*
X7846Y128548D01*
X8773Y129259D01*
X9483Y130185D01*
X9930Y131264D01*
X10083Y132421D01*
X9930Y133579D01*
X9483Y134658D01*
X8773Y135584D01*
X7846Y136295D01*
X6768Y136741D01*
X5610Y136894D01*
X4453Y136741D01*
X3374Y136295D01*
X2507Y135629D01*
X2007Y135745D01*
Y139098D01*
X2507Y139213D01*
X3374Y138548D01*
X4453Y138101D01*
X5610Y137949D01*
X6768Y138101D01*
X7846Y138548D01*
X8773Y139259D01*
X9483Y140185D01*
X9930Y141264D01*
X10083Y142421D01*
X9930Y143579D01*
X9483Y144658D01*
X8773Y145584D01*
X7846Y146295D01*
X6768Y146741D01*
X5610Y146894D01*
X4453Y146741D01*
X3374Y146295D01*
X2507Y145629D01*
X2007Y145745D01*
Y149098D01*
X2507Y149213D01*
X3374Y148548D01*
X4453Y148101D01*
X5610Y147949D01*
X6768Y148101D01*
X7846Y148548D01*
X8773Y149259D01*
X9483Y150185D01*
X9930Y151264D01*
X9951Y151418D01*
X12478D01*
X15868Y148028D01*
Y144060D01*
X15944Y143676D01*
X16161Y143351D01*
X19178Y140334D01*
X19504Y140116D01*
X19888Y140040D01*
X51801D01*
X51860Y139951D01*
X52362Y139615D01*
X52953Y139498D01*
X53545Y139615D01*
X54046Y139951D01*
X54381Y140452D01*
X54499Y141043D01*
X54381Y141635D01*
X54046Y142136D01*
X53545Y142471D01*
X52953Y142589D01*
X52362Y142471D01*
X51860Y142136D01*
X51801Y142047D01*
X20303D01*
X17875Y144476D01*
Y148444D01*
X17798Y148828D01*
X17581Y149153D01*
X13603Y153131D01*
X13278Y153348D01*
X12894Y153425D01*
X9951D01*
X9930Y153579D01*
X9483Y154657D01*
X8773Y155584D01*
X7846Y156295D01*
X6768Y156741D01*
X5610Y156894D01*
X4453Y156741D01*
X3374Y156295D01*
X2507Y155629D01*
X2007Y155745D01*
Y159098D01*
X2507Y159213D01*
X3374Y158548D01*
X4453Y158101D01*
X5610Y157949D01*
X6768Y158101D01*
X7846Y158548D01*
X8773Y159259D01*
X9483Y160185D01*
X9930Y161264D01*
X10083Y162421D01*
X9930Y163579D01*
X9483Y164657D01*
X8773Y165584D01*
X7846Y166295D01*
X6768Y166741D01*
X5610Y166894D01*
X4453Y166741D01*
X3374Y166295D01*
X2507Y165629D01*
X2007Y165744D01*
Y169378D01*
X2481Y169539D01*
X2588Y169399D01*
X3473Y168720D01*
X4504Y168293D01*
X5217Y168199D01*
Y172421D01*
Y176643D01*
X4504Y176550D01*
X3473Y176123D01*
X2588Y175443D01*
X2481Y175303D01*
X2007Y175464D01*
Y179098D01*
X2507Y179213D01*
X3374Y178548D01*
X4453Y178101D01*
X5610Y177949D01*
X6768Y178101D01*
X7846Y178548D01*
X8773Y179259D01*
X9483Y180185D01*
X9930Y181264D01*
X10083Y182421D01*
X9930Y183579D01*
X9483Y184658D01*
X8773Y185584D01*
X7846Y186295D01*
X6768Y186741D01*
X5610Y186894D01*
X4453Y186741D01*
X3374Y186295D01*
X2507Y185629D01*
X2007Y185745D01*
Y214961D01*
X1992Y215037D01*
X2120Y216340D01*
X2523Y217667D01*
X3176Y218889D01*
X4055Y219960D01*
X5127Y220840D01*
X6349Y221493D01*
X7676Y221895D01*
X8778Y222004D01*
X8876Y221511D01*
X8783Y221483D01*
X7415Y220752D01*
X6216Y219768D01*
X5232Y218569D01*
X4501Y217201D01*
X4051Y215717D01*
X3899Y214173D01*
X4051Y212630D01*
X4501Y211145D01*
X5232Y209777D01*
X6216Y208578D01*
X7415Y207594D01*
X8783Y206863D01*
X10267Y206413D01*
X11811Y206261D01*
X13355Y206413D01*
X14839Y206863D01*
X16207Y207594D01*
X17406Y208578D01*
X18390Y209777D01*
X19121Y211145D01*
X19571Y212630D01*
X19723Y214173D01*
X19571Y215717D01*
X19121Y217201D01*
X18390Y218569D01*
X17406Y219768D01*
X16207Y220752D01*
X14839Y221483D01*
X14754Y221509D01*
X14829Y222009D01*
X106431Y222009D01*
X106505Y221509D01*
D02*
G37*
G36*
X64981Y204801D02*
Y201968D01*
X63426D01*
Y201181D01*
X59095D01*
Y199606D01*
X55552D01*
Y201181D01*
X50434D01*
Y193307D01*
X54764D01*
Y191732D01*
X56219D01*
Y189823D01*
X56303Y189400D01*
X56542Y189042D01*
X84654Y160930D01*
X84444Y160433D01*
X84230Y160433D01*
X75591D01*
Y157797D01*
X62205D01*
Y160433D01*
X58782D01*
Y161220D01*
X58698Y161642D01*
X58458Y162001D01*
X50800Y169659D01*
X50442Y169898D01*
X50020Y169982D01*
X26185D01*
Y170472D01*
X26110Y170849D01*
X25897Y171168D01*
X25578Y171381D01*
X25202Y171456D01*
X20044D01*
X19668Y171381D01*
X19349Y171168D01*
X19136Y170849D01*
X19061Y170472D01*
Y167283D01*
X19136Y166907D01*
X19349Y166588D01*
X19668Y166375D01*
X20044Y166300D01*
X25202D01*
X25578Y166375D01*
X25897Y166588D01*
X26110Y166907D01*
X26185Y167283D01*
Y167774D01*
X49562D01*
X56403Y160933D01*
X56196Y160433D01*
X53150D01*
Y152953D01*
X62205D01*
Y155589D01*
X75591D01*
Y152953D01*
X84646D01*
Y159985D01*
X84646Y160231D01*
X85143Y160441D01*
X86298Y159286D01*
Y150965D01*
X86382Y150542D01*
X86621Y150184D01*
X91711Y145094D01*
Y114096D01*
X91795Y113674D01*
X92035Y113316D01*
X94861Y110490D01*
Y105472D01*
X94945Y105050D01*
X95184Y104691D01*
X103719Y96156D01*
Y88387D01*
X103803Y87964D01*
X104043Y87606D01*
X109903Y81745D01*
X110261Y81506D01*
X110684Y81422D01*
X111269D01*
X111290Y81264D01*
X111737Y80185D01*
X112448Y79259D01*
X113374Y78548D01*
X114453Y78101D01*
X115610Y77949D01*
X116768Y78101D01*
X117847Y78548D01*
X118753Y79243D01*
X118930Y79216D01*
X119253Y79106D01*
Y75736D01*
X118930Y75626D01*
X118753Y75599D01*
X117847Y76295D01*
X116768Y76741D01*
X115610Y76894D01*
X114453Y76741D01*
X113374Y76295D01*
X112448Y75584D01*
X111737Y74657D01*
X111290Y73579D01*
X111138Y72421D01*
X111290Y71264D01*
X111737Y70185D01*
X112448Y69259D01*
X113374Y68548D01*
X114453Y68101D01*
X115610Y67949D01*
X116768Y68101D01*
X117847Y68548D01*
X118753Y69243D01*
X118930Y69216D01*
X119253Y69107D01*
Y65736D01*
X118930Y65627D01*
X118753Y65599D01*
X117847Y66295D01*
X116768Y66741D01*
X115610Y66894D01*
X114453Y66741D01*
X113374Y66295D01*
X112448Y65584D01*
X111737Y64657D01*
X111290Y63579D01*
X111138Y62421D01*
X111290Y61264D01*
X111737Y60185D01*
X112448Y59259D01*
X113374Y58548D01*
X114453Y58101D01*
X115610Y57949D01*
X116768Y58101D01*
X117847Y58548D01*
X118753Y59243D01*
X118930Y59216D01*
X119253Y59106D01*
Y56659D01*
X116004D01*
Y52421D01*
Y48184D01*
X119253D01*
Y45736D01*
X118930Y45627D01*
X118753Y45599D01*
X117847Y46295D01*
X116768Y46741D01*
X115610Y46894D01*
X114453Y46741D01*
X113374Y46295D01*
X112448Y45584D01*
X111737Y44657D01*
X111290Y43579D01*
X111138Y42421D01*
X111290Y41264D01*
X111737Y40185D01*
X111831Y40062D01*
X100936Y29166D01*
X59851D01*
X54252Y34765D01*
X53927Y34982D01*
X53543Y35059D01*
X47834D01*
Y37402D01*
X44397D01*
X43897Y37402D01*
X43397Y37402D01*
X40460D01*
X39960Y37402D01*
X39460Y37402D01*
X38385D01*
Y34055D01*
X37598D01*
Y37402D01*
X35158D01*
Y44425D01*
X38772Y48038D01*
X39011Y48396D01*
X39095Y48819D01*
Y67895D01*
X40570D01*
X40947Y67969D01*
X41266Y68182D01*
X41479Y68502D01*
X41554Y68878D01*
Y69369D01*
X43167D01*
X43589Y69453D01*
X43947Y69692D01*
X44833Y70578D01*
X45072Y70936D01*
X45156Y71358D01*
Y80849D01*
X45072Y81271D01*
X44833Y81629D01*
X38564Y87898D01*
X38451Y88470D01*
X38231Y88799D01*
X38443Y89299D01*
X40410D01*
Y91799D01*
Y92893D01*
X37023D01*
X33635D01*
Y91799D01*
Y89299D01*
X35603D01*
X35815Y88799D01*
X35595Y88470D01*
X35477Y87878D01*
X35595Y87287D01*
X35930Y86786D01*
X36431Y86451D01*
X37003Y86337D01*
X42948Y80392D01*
Y71816D01*
X42709Y71576D01*
X41554D01*
Y72067D01*
X41479Y72443D01*
X41266Y72762D01*
X40947Y72975D01*
X40570Y73050D01*
X35413D01*
X35036Y72975D01*
X34717Y72762D01*
X34504Y72443D01*
X34429Y72067D01*
Y68878D01*
X34504Y68502D01*
X34717Y68182D01*
X35036Y67969D01*
X35413Y67895D01*
X36888D01*
Y49276D01*
X33274Y45662D01*
X33035Y45304D01*
X32951Y44882D01*
Y37755D01*
X32597Y37402D01*
X32086Y37402D01*
X32009Y37870D01*
Y60139D01*
X31925Y60561D01*
X31686Y60919D01*
X25218Y67387D01*
Y67895D01*
X26693D01*
X27069Y67969D01*
X27388Y68182D01*
X27602Y68502D01*
X27676Y68878D01*
Y72067D01*
X27602Y72443D01*
X27388Y72762D01*
X27069Y72975D01*
X26693Y73050D01*
X21535D01*
X21159Y72975D01*
X20840Y72762D01*
X20627Y72443D01*
X20552Y72067D01*
Y71576D01*
X20044D01*
X19805Y71816D01*
Y83416D01*
X22642Y86254D01*
X23214Y86367D01*
X23716Y86703D01*
X24051Y87204D01*
X24168Y87795D01*
X24051Y88387D01*
X23775Y88799D01*
X23918Y89299D01*
X26010D01*
Y91549D01*
X26510Y91756D01*
X31968Y86298D01*
X32293Y86081D01*
X32677Y86004D01*
X32799D01*
X36462Y82341D01*
X36564Y81830D01*
X36899Y81328D01*
X36988Y81269D01*
Y80137D01*
X35413D01*
X35036Y80062D01*
X34717Y79849D01*
X34504Y79530D01*
X34429Y79154D01*
Y75965D01*
X34504Y75588D01*
X34717Y75269D01*
X35036Y75056D01*
X35413Y74981D01*
X40570D01*
X40947Y75056D01*
X41266Y75269D01*
X41479Y75588D01*
X41554Y75965D01*
Y79154D01*
X41479Y79530D01*
X41266Y79849D01*
X40947Y80062D01*
X40570Y80137D01*
X38995D01*
Y81269D01*
X39084Y81328D01*
X39419Y81830D01*
X39537Y82421D01*
X39419Y83013D01*
X39084Y83514D01*
X38583Y83849D01*
X37991Y83967D01*
X37727Y83914D01*
X33924Y87717D01*
X33599Y87935D01*
X33215Y88011D01*
X33093D01*
X29837Y91267D01*
X30029Y91782D01*
X30414Y91859D01*
X30916Y92194D01*
X31251Y92695D01*
X31368Y93287D01*
X31251Y93878D01*
X30916Y94379D01*
X30414Y94714D01*
X29842Y94828D01*
X28958Y95712D01*
Y97190D01*
X28874Y97613D01*
X28635Y97971D01*
X27439Y99167D01*
X27080Y99406D01*
X26658Y99490D01*
X26010D01*
Y99874D01*
X19235D01*
X18819Y100075D01*
Y104090D01*
X24036Y109308D01*
X24254Y109634D01*
X24330Y110018D01*
Y111205D01*
X24921D01*
X25298Y111279D01*
X25368Y111326D01*
X25868Y111059D01*
Y109798D01*
X25944Y109414D01*
X26161Y109088D01*
X29168Y106082D01*
X29493Y105865D01*
X29877Y105788D01*
X32677D01*
X33061Y105865D01*
X33387Y106082D01*
X35158Y107854D01*
X35376Y108179D01*
X35452Y108563D01*
Y111437D01*
X35655Y111565D01*
X35952Y111652D01*
X36377Y111369D01*
X36968Y111251D01*
X37559Y111369D01*
X38061Y111704D01*
X38120Y111793D01*
X39339D01*
Y109489D01*
Y109250D01*
X42876D01*
Y108463D01*
X39339D01*
Y107281D01*
X42876D01*
Y106887D01*
X43270D01*
Y105549D01*
X46389D01*
X46414Y105549D01*
X46889Y105490D01*
Y101539D01*
X56064D01*
Y105490D01*
X56539Y105549D01*
X56564Y105549D01*
X58341D01*
X58451Y105313D01*
X58478Y105049D01*
X57907Y104611D01*
X57415Y103970D01*
X57106Y103223D01*
X57000Y102421D01*
X57106Y101620D01*
X57372Y100977D01*
X57206Y100680D01*
X57046Y100532D01*
X56918Y100558D01*
X45834D01*
X43795Y102597D01*
X43437Y102836D01*
X43014Y102920D01*
X31875D01*
X31453Y102836D01*
X31095Y102597D01*
X30518Y102020D01*
X30279Y101662D01*
X30195Y101240D01*
Y96408D01*
X30279Y95986D01*
X30518Y95628D01*
X31095Y95051D01*
X31453Y94812D01*
X31875Y94728D01*
X33635D01*
Y93680D01*
X37023D01*
X40410D01*
Y94399D01*
Y97283D01*
X41934D01*
X70509Y68708D01*
X70868Y68468D01*
X71290Y68384D01*
X78524D01*
Y67894D01*
X78599Y67517D01*
X78812Y67198D01*
X79132Y66985D01*
X79508Y66910D01*
X80983D01*
Y64237D01*
X73826Y57080D01*
X73586Y56722D01*
X73502Y56299D01*
Y37402D01*
X72638D01*
Y30709D01*
X78150D01*
Y34055D01*
Y37402D01*
X75710D01*
Y55842D01*
X82867Y62999D01*
X83106Y63357D01*
X83191Y63779D01*
Y66910D01*
X84665D01*
X85042Y66985D01*
X85361Y67198D01*
X85574Y67517D01*
X85649Y67894D01*
Y71083D01*
X85580Y71428D01*
X85581Y71470D01*
X85862Y71928D01*
X86747D01*
X89968Y68708D01*
X90326Y68468D01*
X90748Y68384D01*
X91910D01*
Y67894D01*
X91985Y67517D01*
X92198Y67198D01*
X92517Y66985D01*
X92894Y66910D01*
X94369D01*
Y65123D01*
X81700Y52454D01*
X81460Y52096D01*
X81376Y51673D01*
Y37755D01*
X81023Y37402D01*
X80512Y37402D01*
Y37402D01*
X80512D01*
Y37402D01*
X78937D01*
Y34055D01*
Y30709D01*
X80012D01*
X80512Y30709D01*
Y30709D01*
X80512D01*
Y30709D01*
X83949D01*
X84449Y30709D01*
Y30709D01*
X84449D01*
Y30709D01*
X88386D01*
Y37402D01*
X87521D01*
Y47377D01*
X105604Y65460D01*
X105843Y65818D01*
X105927Y66241D01*
Y74016D01*
X105843Y74438D01*
X105604Y74796D01*
X103045Y77355D01*
X102687Y77595D01*
X102264Y77679D01*
X99035D01*
Y78169D01*
X98960Y78546D01*
X98747Y78865D01*
X98427Y79078D01*
X98051Y79153D01*
X92894D01*
X92517Y79078D01*
X92198Y78865D01*
X91985Y78546D01*
X91910Y78169D01*
Y77679D01*
X85649D01*
Y78169D01*
X85574Y78546D01*
X85361Y78865D01*
X85042Y79078D01*
X84665Y79153D01*
X83783D01*
X83576Y79653D01*
X86017Y82094D01*
X86256Y82452D01*
X86340Y82874D01*
Y83150D01*
X87097D01*
X87484Y83227D01*
X87813Y83447D01*
X88033Y83776D01*
X88110Y84163D01*
Y89852D01*
X88033Y90240D01*
X87813Y90569D01*
X87484Y90789D01*
X87097Y90866D01*
X86340D01*
Y91831D01*
X86256Y92253D01*
X86017Y92611D01*
X81857Y96771D01*
X81922Y97064D01*
X82048Y97287D01*
X82322Y97341D01*
X82621Y97541D01*
X82822Y97841D01*
X82892Y98194D01*
Y100320D01*
X82822Y100673D01*
X82621Y100973D01*
X82322Y101173D01*
X81968Y101243D01*
X78662D01*
X78308Y101173D01*
X78009Y100973D01*
X77808Y100673D01*
X77738Y100320D01*
Y98194D01*
X77808Y97841D01*
X78009Y97541D01*
X77992Y96954D01*
X77933Y96872D01*
X71295D01*
X71014Y97329D01*
X71013Y97372D01*
X71082Y97716D01*
Y100906D01*
X71007Y101282D01*
X70794Y101601D01*
X70475Y101814D01*
X70098Y101889D01*
X68523D01*
Y106575D01*
X68523Y106575D01*
X69021Y106798D01*
X69507Y106473D01*
X70276Y106320D01*
X70766Y106417D01*
X74895Y102288D01*
X75221Y102070D01*
X75605Y101994D01*
X82892D01*
X86338Y98548D01*
X86664Y98330D01*
X87048Y98254D01*
X88368D01*
Y98194D01*
X88438Y97841D01*
X88639Y97541D01*
X88938Y97341D01*
X89291Y97271D01*
X92598D01*
X92952Y97341D01*
X93251Y97541D01*
X93451Y97841D01*
X93522Y98194D01*
Y98254D01*
X96155D01*
X96437Y97971D01*
Y94902D01*
X94596D01*
X94209Y94825D01*
X93880Y94605D01*
X93660Y94276D01*
X93583Y93889D01*
Y90168D01*
X93660Y89780D01*
X93880Y89451D01*
X94209Y89232D01*
X94596Y89154D01*
X100285D01*
X100673Y89232D01*
X101002Y89451D01*
X101222Y89780D01*
X101299Y90168D01*
Y93889D01*
X101222Y94276D01*
X101002Y94605D01*
X100673Y94825D01*
X100285Y94902D01*
X98444D01*
Y98387D01*
X98368Y98771D01*
X98150Y99096D01*
X97280Y99967D01*
X96954Y100184D01*
X96570Y100261D01*
X93522D01*
Y100320D01*
X93451Y100673D01*
X93387Y100771D01*
X93292Y101127D01*
X93387Y101484D01*
X93451Y101581D01*
X93522Y101934D01*
Y102604D01*
X90945D01*
X88368D01*
Y101934D01*
X88438Y101581D01*
X88503Y101484D01*
X88598Y101127D01*
X88503Y100771D01*
X88438Y100673D01*
X88368Y100320D01*
Y100261D01*
X87463D01*
X84017Y103707D01*
X83692Y103925D01*
X83308Y104001D01*
X76021D01*
X72185Y107836D01*
X72283Y108327D01*
X72130Y109095D01*
X71695Y109746D01*
X71044Y110181D01*
X70276Y110334D01*
X69785Y110236D01*
X69224Y110797D01*
X69478Y111251D01*
X69710Y111205D01*
X72900D01*
X73276Y111279D01*
X73595Y111493D01*
X73808Y111812D01*
X73883Y112188D01*
Y117345D01*
X73808Y117722D01*
X73595Y118041D01*
X73276Y118254D01*
X72900Y118329D01*
X69710D01*
X69334Y118254D01*
X69015Y118041D01*
X68802Y117722D01*
X68727Y117345D01*
Y115770D01*
X63614D01*
Y116104D01*
X61080D01*
Y121921D01*
X61004Y122305D01*
X60786Y122631D01*
X59085Y124332D01*
X58760Y124549D01*
X58376Y124626D01*
X45205D01*
X45145Y124715D01*
X44644Y125050D01*
X44052Y125168D01*
X43461Y125050D01*
X42960Y124715D01*
X42625Y124213D01*
X42507Y123622D01*
X42625Y123031D01*
X42960Y122529D01*
X43461Y122194D01*
X44052Y122077D01*
X44644Y122194D01*
X45145Y122529D01*
X45205Y122618D01*
X57960D01*
X59073Y121506D01*
Y116104D01*
X56564D01*
X56539Y116104D01*
X56064Y116164D01*
Y120114D01*
X46889D01*
Y116164D01*
X46414Y116104D01*
X46389Y116104D01*
X43880D01*
Y116814D01*
X43969Y116873D01*
X44304Y117375D01*
X44422Y117966D01*
X44304Y118558D01*
X43969Y119059D01*
X43468Y119394D01*
X42876Y119511D01*
X42771Y119491D01*
X40872Y121390D01*
X40546Y121607D01*
X40162Y121684D01*
X38864D01*
X38815Y122184D01*
X38866Y122194D01*
X39368Y122529D01*
X39703Y123031D01*
X39821Y123622D01*
X39703Y124213D01*
X39368Y124715D01*
X39279Y124775D01*
Y126167D01*
X42448D01*
X42817Y126240D01*
X43130Y126449D01*
X43338Y126762D01*
X43412Y127130D01*
Y127544D01*
X48395D01*
Y127107D01*
X55169D01*
Y128072D01*
X55276D01*
X55660Y128148D01*
X55986Y128366D01*
X57592Y129972D01*
X57809Y130297D01*
X57886Y130681D01*
Y134563D01*
X58095Y134724D01*
X58595Y134479D01*
Y130807D01*
Y127107D01*
X65369D01*
Y128072D01*
X70513D01*
X70897Y128148D01*
X71222Y128366D01*
X72561Y129705D01*
X76950D01*
Y129114D01*
X77025Y128738D01*
X77238Y128419D01*
X77557Y128206D01*
X77933Y128131D01*
X83091D01*
X83467Y128206D01*
X83786Y128419D01*
X83999Y128738D01*
X84074Y129114D01*
Y132303D01*
X83999Y132679D01*
X83786Y132999D01*
X83467Y133212D01*
X83091Y133287D01*
X81515D01*
Y135709D01*
X83091D01*
X83467Y135784D01*
X83786Y135997D01*
X83999Y136317D01*
X84074Y136693D01*
Y139882D01*
X83999Y140258D01*
X83786Y140577D01*
X83467Y140790D01*
X83091Y140865D01*
X77933D01*
X77557Y140790D01*
X77238Y140577D01*
X77025Y140258D01*
X76950Y139882D01*
Y136693D01*
X77025Y136317D01*
X77238Y135997D01*
X77557Y135784D01*
X77933Y135709D01*
X79508D01*
Y133287D01*
X77933D01*
X77557Y133212D01*
X77238Y132999D01*
X77025Y132679D01*
X76950Y132303D01*
Y131712D01*
X72146D01*
X71762Y131636D01*
X71436Y131418D01*
X70097Y130079D01*
X65369D01*
Y131772D01*
X67618D01*
X68002Y131848D01*
X68328Y132066D01*
X71969Y135708D01*
X72187Y136033D01*
X72263Y136417D01*
Y141612D01*
X75022Y144370D01*
X76950D01*
Y143780D01*
X77025Y143403D01*
X77238Y143084D01*
X77557Y142871D01*
X77933Y142796D01*
X83091D01*
X83467Y142871D01*
X83786Y143084D01*
X83999Y143403D01*
X84074Y143780D01*
Y146968D01*
X83999Y147345D01*
X83786Y147664D01*
X83467Y147877D01*
X83091Y147952D01*
X81515D01*
Y148819D01*
X81439Y149203D01*
X81221Y149529D01*
X79076Y151674D01*
X78750Y151892D01*
X78366Y151968D01*
X25042D01*
X17145Y159864D01*
Y183418D01*
X35355Y201628D01*
X35573Y201954D01*
X35649Y202338D01*
Y207677D01*
X38386D01*
Y211398D01*
X58384D01*
X64981Y204801D01*
D02*
G37*
G36*
X67757Y193307D02*
X69212D01*
Y191201D01*
X69296Y190778D01*
X69535Y190420D01*
X103719Y156236D01*
Y153260D01*
X103717Y153259D01*
X103219Y153177D01*
X103045Y153438D01*
X99770Y156713D01*
X99656Y157285D01*
X99321Y157786D01*
X98820Y158121D01*
X98228Y158239D01*
X97637Y158121D01*
X97136Y157786D01*
X96801Y157285D01*
X96683Y156693D01*
X96801Y156102D01*
X97136Y155601D01*
X97637Y155265D01*
X98209Y155152D01*
X101160Y152200D01*
Y115767D01*
X101244Y115345D01*
X101484Y114987D01*
X111770Y104701D01*
X111737Y104657D01*
X111290Y103579D01*
X111138Y102421D01*
X111290Y101264D01*
X111737Y100185D01*
X112448Y99259D01*
X113374Y98548D01*
X114453Y98101D01*
X115610Y97949D01*
X116768Y98101D01*
X117847Y98548D01*
X118753Y99243D01*
X118930Y99216D01*
X119253Y99107D01*
Y95736D01*
X118930Y95626D01*
X118753Y95599D01*
X117847Y96295D01*
X116768Y96741D01*
X115610Y96894D01*
X114453Y96741D01*
X113374Y96295D01*
X113331Y96262D01*
X100317Y109276D01*
Y148622D01*
X100233Y149045D01*
X99993Y149403D01*
X93328Y156068D01*
Y162500D01*
X93244Y162922D01*
X93005Y163281D01*
X63440Y192845D01*
X63632Y193307D01*
X64213D01*
Y194094D01*
X67757D01*
Y193307D01*
D02*
G37*
G36*
X104043Y118719D02*
X109989Y112773D01*
X110347Y112533D01*
X110770Y112449D01*
X111113D01*
X111138Y112421D01*
X111290Y111264D01*
X111737Y110185D01*
X112448Y109259D01*
X113374Y108548D01*
X114453Y108101D01*
X115610Y107949D01*
X116768Y108101D01*
X117847Y108548D01*
X118753Y109243D01*
X118930Y109216D01*
X119253Y109107D01*
Y105736D01*
X118930Y105626D01*
X118753Y105599D01*
X117847Y106295D01*
X116768Y106741D01*
X115610Y106894D01*
X114453Y106741D01*
X113374Y106295D01*
X113331Y106262D01*
X103368Y116225D01*
Y118897D01*
X103371Y118899D01*
X103868Y118981D01*
X104043Y118719D01*
D02*
G37*
G36*
X66516Y106376D02*
Y101889D01*
X64941D01*
X64565Y101814D01*
X64245Y101601D01*
X64032Y101282D01*
X63958Y100906D01*
Y97716D01*
X64026Y97372D01*
X64026Y97329D01*
X63744Y96872D01*
X61061D01*
X58867Y99066D01*
X59150Y99490D01*
X59296Y99429D01*
X60098Y99324D01*
X60899Y99429D01*
X61646Y99739D01*
X62288Y100231D01*
X62780Y100873D01*
X63090Y101620D01*
X63195Y102421D01*
X63090Y103223D01*
X62780Y103970D01*
X62288Y104611D01*
X61717Y105049D01*
X61744Y105313D01*
X61854Y105549D01*
X63614D01*
Y107853D01*
X65039D01*
X66516Y106376D01*
D02*
G37*
G36*
X60550Y193071D02*
X60634Y192648D01*
X60873Y192290D01*
X91120Y162043D01*
Y155611D01*
X91205Y155188D01*
X91444Y154830D01*
X98109Y148165D01*
Y108819D01*
X98193Y108396D01*
X98432Y108038D01*
X111770Y94700D01*
X111737Y94657D01*
X111290Y93579D01*
X111138Y92421D01*
X111290Y91264D01*
X111737Y90185D01*
X112448Y89259D01*
X113374Y88548D01*
X114453Y88101D01*
X115610Y87949D01*
X116768Y88101D01*
X117847Y88548D01*
X118753Y89243D01*
X118930Y89216D01*
X119253Y89107D01*
Y85736D01*
X118930Y85627D01*
X118753Y85599D01*
X117847Y86295D01*
X116768Y86741D01*
X115610Y86894D01*
X114453Y86741D01*
X113374Y86295D01*
X112448Y85584D01*
X111737Y84658D01*
X111469Y84009D01*
X110879Y83892D01*
X105927Y88844D01*
Y96613D01*
X105843Y97036D01*
X105604Y97394D01*
X97068Y105929D01*
Y110947D01*
X96984Y111370D01*
X96745Y111728D01*
X93919Y114554D01*
Y145551D01*
X93835Y145973D01*
X93596Y146331D01*
X88506Y151422D01*
Y159744D01*
X88421Y160166D01*
X88182Y160524D01*
X58426Y190280D01*
Y191732D01*
X59882D01*
Y193307D01*
X60550D01*
Y193071D01*
D02*
G37*
G36*
X44596Y98673D02*
X44954Y98434D01*
X45376Y98350D01*
X56461D01*
X59824Y94987D01*
X60182Y94748D01*
X60604Y94664D01*
X63744D01*
X64026Y94206D01*
X64026Y94164D01*
X63958Y93819D01*
Y92618D01*
X67520D01*
X71082D01*
Y93819D01*
X71013Y94164D01*
X71014Y94206D01*
X71295Y94664D01*
X79331D01*
X79753Y94748D01*
X80111Y94987D01*
X80315Y95191D01*
X84132Y91373D01*
Y90866D01*
X83376D01*
X82988Y90789D01*
X82659Y90569D01*
X82440Y90240D01*
X82362Y89852D01*
Y84163D01*
X82440Y83776D01*
X82659Y83447D01*
X82988Y83227D01*
X83266Y83172D01*
X83506Y82705D01*
X81306Y80505D01*
X81067Y80147D01*
X80983Y79724D01*
Y79153D01*
X79508D01*
X79132Y79078D01*
X78812Y78865D01*
X78599Y78546D01*
X78524Y78169D01*
Y74980D01*
X78593Y74635D01*
X78592Y74593D01*
X78311Y74135D01*
X75990D01*
X54406Y95719D01*
X54381Y95846D01*
X54046Y96348D01*
X53545Y96683D01*
X52953Y96801D01*
X52362Y96683D01*
X51860Y96348D01*
X51525Y95846D01*
X51408Y95255D01*
X51525Y94664D01*
X51860Y94162D01*
X52362Y93827D01*
X52953Y93710D01*
X53237Y93766D01*
X74752Y72251D01*
X75111Y72012D01*
X75533Y71928D01*
X78311D01*
X78592Y71470D01*
X78593Y71428D01*
X78524Y71083D01*
Y70592D01*
X71747D01*
X43172Y99167D01*
X42814Y99406D01*
X42392Y99490D01*
X40410D01*
Y99874D01*
X33635D01*
Y96936D01*
X32403D01*
Y100712D01*
X42557D01*
X44596Y98673D01*
D02*
G37*
G36*
X103719Y73558D02*
Y66698D01*
X85637Y48615D01*
X85397Y48257D01*
X85313Y47835D01*
Y37755D01*
X84960Y37402D01*
X84449Y37402D01*
Y37402D01*
X84449D01*
Y37402D01*
X83584D01*
Y51216D01*
X96253Y63885D01*
X96492Y64243D01*
X96576Y64665D01*
Y66910D01*
X98051D01*
X98427Y66985D01*
X98747Y67198D01*
X98960Y67517D01*
X99035Y67894D01*
Y71083D01*
X98960Y71459D01*
X98747Y71778D01*
X98427Y71991D01*
X98051Y72066D01*
X92894D01*
X92517Y71991D01*
X92198Y71778D01*
X91985Y71459D01*
X91910Y71083D01*
Y70592D01*
X91205D01*
X87985Y73812D01*
X87627Y74051D01*
X87205Y74135D01*
X85862D01*
X85581Y74593D01*
X85580Y74635D01*
X85649Y74980D01*
Y75471D01*
X91910D01*
Y74980D01*
X91985Y74604D01*
X92198Y74285D01*
X92517Y74072D01*
X92894Y73997D01*
X98051D01*
X98427Y74072D01*
X98747Y74285D01*
X98960Y74604D01*
X99035Y74980D01*
Y75471D01*
X101807D01*
X103719Y73558D01*
D02*
G37*
%LPC*%
G36*
X96177Y194969D02*
X95582Y194891D01*
X94660Y194509D01*
X93869Y193902D01*
X93262Y193111D01*
X92880Y192190D01*
X92802Y191595D01*
X96177D01*
Y194969D01*
D02*
G37*
G36*
X100339Y190807D02*
X96964D01*
Y187433D01*
X97559Y187511D01*
X98480Y187892D01*
X99272Y188500D01*
X99879Y189291D01*
X100260Y190212D01*
X100339Y190807D01*
D02*
G37*
G36*
X96177D02*
X92802D01*
X92880Y190212D01*
X93262Y189291D01*
X93869Y188500D01*
X94660Y187892D01*
X95582Y187511D01*
X96177Y187433D01*
Y190807D01*
D02*
G37*
G36*
X6004Y176643D02*
Y172815D01*
X9832D01*
X9739Y173527D01*
X9312Y174558D01*
X8632Y175443D01*
X7747Y176123D01*
X6716Y176550D01*
X6004Y176643D01*
D02*
G37*
G36*
X9832Y172028D02*
X6004D01*
Y168199D01*
X6716Y168293D01*
X7747Y168720D01*
X8632Y169399D01*
X9312Y170284D01*
X9739Y171315D01*
X9832Y172028D01*
D02*
G37*
G36*
X77008Y201771D02*
X75039D01*
Y198031D01*
Y194291D01*
X76418D01*
Y193307D01*
X77873D01*
Y190354D01*
X77957Y189932D01*
X78196Y189574D01*
X81542Y186228D01*
X81900Y185988D01*
X82323Y185904D01*
X89405D01*
X97174Y178135D01*
Y170417D01*
X96850Y169932D01*
X96732Y169341D01*
X96850Y168749D01*
X97185Y168248D01*
X97686Y167913D01*
X98278Y167795D01*
X98869Y167913D01*
X99370Y168248D01*
X99705Y168749D01*
X99823Y169341D01*
X99705Y169932D01*
X99381Y170417D01*
Y178593D01*
X99297Y179015D01*
X99058Y179373D01*
X90642Y187789D01*
X90284Y188028D01*
X89862Y188112D01*
X82780D01*
X80081Y190812D01*
Y193307D01*
X85867D01*
Y201181D01*
X77008D01*
Y201771D01*
D02*
G37*
G36*
X57556Y148902D02*
X56356D01*
Y146619D01*
X58540D01*
Y147918D01*
X58465Y148295D01*
X58252Y148614D01*
X57933Y148827D01*
X57556Y148902D01*
D02*
G37*
G36*
X55568D02*
X54367D01*
X53991Y148827D01*
X53672Y148614D01*
X53459Y148295D01*
X53384Y147918D01*
Y146619D01*
X55568D01*
Y148902D01*
D02*
G37*
G36*
X58540Y145832D02*
X56356D01*
Y143549D01*
X57556D01*
X57933Y143624D01*
X58252Y143837D01*
X58465Y144156D01*
X58540Y144533D01*
Y145832D01*
D02*
G37*
G36*
X55568D02*
X53384D01*
Y144533D01*
X53459Y144156D01*
X53672Y143837D01*
X53991Y143624D01*
X54367Y143549D01*
X55568D01*
Y145832D01*
D02*
G37*
G36*
X27658Y136119D02*
Y133666D01*
X30112D01*
X30065Y134022D01*
X29775Y134722D01*
X29315Y135322D01*
X28714Y135783D01*
X28015Y136072D01*
X27658Y136119D01*
D02*
G37*
G36*
X26871D02*
X26515Y136072D01*
X25815Y135783D01*
X25215Y135322D01*
X24754Y134722D01*
X24465Y134022D01*
X24418Y133666D01*
X26871D01*
Y136119D01*
D02*
G37*
G36*
X42448Y138803D02*
X34102D01*
X33733Y138729D01*
X33421Y138520D01*
X33212Y138208D01*
X33138Y137839D01*
Y135004D01*
X33212Y134636D01*
X33421Y134323D01*
X33733Y134114D01*
X34102Y134041D01*
X42448D01*
X42817Y134114D01*
X43130Y134323D01*
X43338Y134636D01*
X43412Y135004D01*
Y135418D01*
X48395D01*
Y133169D01*
X55169D01*
Y134507D01*
Y138444D01*
X48395D01*
Y137425D01*
X43412D01*
Y137839D01*
X43338Y138208D01*
X43130Y138520D01*
X42817Y138729D01*
X42448Y138803D01*
D02*
G37*
G36*
X26871Y132878D02*
X24418D01*
X24465Y132522D01*
X24754Y131823D01*
X25215Y131222D01*
X25815Y130762D01*
X26515Y130472D01*
X26871Y130425D01*
Y132878D01*
D02*
G37*
G36*
X30112D02*
X27658D01*
Y130425D01*
X28015Y130472D01*
X28714Y130762D01*
X29315Y131222D01*
X29775Y131823D01*
X30065Y132522D01*
X30112Y132878D01*
D02*
G37*
G36*
X17265Y129225D02*
Y126772D01*
X19718D01*
X19671Y127128D01*
X19381Y127827D01*
X18921Y128428D01*
X18320Y128888D01*
X17621Y129178D01*
X17265Y129225D01*
D02*
G37*
G36*
X16477D02*
X16121Y129178D01*
X15422Y128888D01*
X14821Y128428D01*
X14361Y127827D01*
X14071Y127128D01*
X14024Y126772D01*
X16477D01*
Y129225D01*
D02*
G37*
G36*
X19718Y125984D02*
X17265D01*
Y123531D01*
X17621Y123578D01*
X18320Y123867D01*
X18921Y124328D01*
X19381Y124928D01*
X19671Y125628D01*
X19718Y125984D01*
D02*
G37*
G36*
X16477D02*
X14024D01*
X14071Y125628D01*
X14361Y124928D01*
X14821Y124328D01*
X15422Y123867D01*
X16121Y123578D01*
X16477Y123531D01*
Y125984D01*
D02*
G37*
G36*
X115217Y126159D02*
X111373D01*
Y122315D01*
X115217D01*
Y126159D01*
D02*
G37*
G36*
Y121528D02*
X111373D01*
Y117684D01*
X115217D01*
Y121528D01*
D02*
G37*
G36*
X9848Y96159D02*
X6004D01*
Y92315D01*
X9848D01*
Y96159D01*
D02*
G37*
G36*
Y91528D02*
X6004D01*
Y87684D01*
X9848D01*
Y91528D01*
D02*
G37*
G36*
Y56659D02*
X6004D01*
Y52815D01*
X9848D01*
Y56659D01*
D02*
G37*
G36*
Y52028D02*
X6004D01*
Y48184D01*
X9848D01*
Y52028D01*
D02*
G37*
G36*
X74016Y22736D02*
X71850D01*
Y20079D01*
X74016D01*
Y22736D01*
D02*
G37*
G36*
X78031Y23791D02*
Y20079D01*
X80418D01*
Y21063D01*
X80323Y21782D01*
X80045Y22453D01*
X79603Y23029D01*
X79028Y23470D01*
X78357Y23748D01*
X78031Y23791D01*
D02*
G37*
G36*
X77244D02*
X76918Y23748D01*
X76248Y23470D01*
X75672Y23029D01*
X75230Y22453D01*
X74953Y21782D01*
X74858Y21063D01*
Y20079D01*
X77244D01*
Y23791D01*
D02*
G37*
G36*
X44016D02*
Y20079D01*
X46402D01*
Y21063D01*
X46307Y21782D01*
X46029Y22453D01*
X45588Y23029D01*
X45012Y23470D01*
X44341Y23748D01*
X44016Y23791D01*
D02*
G37*
G36*
X43228D02*
X42903Y23748D01*
X42232Y23470D01*
X41657Y23029D01*
X41215Y22453D01*
X40937Y21782D01*
X40842Y21063D01*
Y20079D01*
X43228D01*
Y23791D01*
D02*
G37*
G36*
X49409Y22736D02*
X47244D01*
Y20079D01*
X49409D01*
Y22736D01*
D02*
G37*
G36*
X74016Y19291D02*
X71850D01*
Y16634D01*
X74016D01*
Y19291D01*
D02*
G37*
G36*
X49409Y19291D02*
X47244D01*
Y16634D01*
X49409D01*
Y19291D01*
D02*
G37*
G36*
X80418Y19291D02*
X78031D01*
Y15579D01*
X78357Y15622D01*
X79028Y15900D01*
X79603Y16342D01*
X80045Y16917D01*
X80323Y17588D01*
X80418Y18307D01*
Y19291D01*
D02*
G37*
G36*
X77244D02*
X74858D01*
Y18307D01*
X74953Y17588D01*
X75230Y16917D01*
X75672Y16342D01*
X76248Y15900D01*
X76918Y15622D01*
X77244Y15579D01*
Y19291D01*
D02*
G37*
G36*
X46402D02*
X44016D01*
Y15579D01*
X44341Y15622D01*
X45012Y15900D01*
X45588Y16342D01*
X46029Y16917D01*
X46307Y17588D01*
X46402Y18307D01*
Y19291D01*
D02*
G37*
G36*
X43228D02*
X40842D01*
Y18307D01*
X40937Y17588D01*
X41215Y16917D01*
X41657Y16342D01*
X42232Y15900D01*
X42903Y15622D01*
X43228Y15579D01*
Y19291D01*
D02*
G37*
G36*
X65814Y26516D02*
X55276D01*
X54739Y26409D01*
X54283Y26105D01*
X53652Y25474D01*
X53348Y25018D01*
X53241Y24480D01*
Y22736D01*
X50197D01*
Y19685D01*
Y16634D01*
X53441D01*
Y15676D01*
X50682Y12917D01*
X36621D01*
X33192Y16345D01*
Y19521D01*
X34350D01*
Y24639D01*
X29626D01*
Y19521D01*
X30784D01*
Y15846D01*
X30784Y15846D01*
X30876Y15386D01*
X31137Y14995D01*
X35271Y10861D01*
X35661Y10600D01*
X36122Y10508D01*
X51181D01*
X51181Y10508D01*
X51642Y10600D01*
X52033Y10861D01*
X55497Y14326D01*
X55497Y14326D01*
X55758Y14716D01*
X55850Y15177D01*
Y16634D01*
X65209D01*
Y13260D01*
X65124Y13203D01*
X64667Y12519D01*
X64507Y11713D01*
X64667Y10906D01*
X65124Y10222D01*
X65808Y9766D01*
X66614Y9605D01*
X67421Y9766D01*
X68104Y10222D01*
X68561Y10906D01*
X68722Y11713D01*
X68561Y12519D01*
X68104Y13203D01*
X68019Y13260D01*
Y16634D01*
X71063D01*
Y19685D01*
Y22736D01*
X68019D01*
Y24311D01*
X67912Y24849D01*
X67608Y25304D01*
X66808Y26105D01*
X66352Y26409D01*
X65814Y26516D01*
D02*
G37*
G36*
X78031Y8830D02*
Y5118D01*
X80418D01*
Y6102D01*
X80323Y6822D01*
X80045Y7492D01*
X79603Y8068D01*
X79028Y8510D01*
X78357Y8787D01*
X78031Y8830D01*
D02*
G37*
G36*
X77244D02*
X76918Y8787D01*
X76248Y8510D01*
X75672Y8068D01*
X75230Y7492D01*
X74953Y6822D01*
X74858Y6102D01*
Y5118D01*
X77244D01*
Y8830D01*
D02*
G37*
G36*
X44016D02*
Y5118D01*
X46402D01*
Y6102D01*
X46307Y6822D01*
X46029Y7492D01*
X45588Y8068D01*
X45012Y8510D01*
X44341Y8787D01*
X44016Y8830D01*
D02*
G37*
G36*
X43228D02*
X42903Y8787D01*
X42232Y8510D01*
X41657Y8068D01*
X41215Y7492D01*
X40937Y6822D01*
X40842Y6102D01*
Y5118D01*
X43228D01*
Y8830D01*
D02*
G37*
G36*
X25202Y178542D02*
X23017D01*
Y176358D01*
X26185D01*
Y177559D01*
X26110Y177935D01*
X25897Y178254D01*
X25578Y178468D01*
X25202Y178542D01*
D02*
G37*
G36*
X22229D02*
X20044D01*
X19668Y178468D01*
X19349Y178254D01*
X19136Y177935D01*
X19061Y177559D01*
Y176358D01*
X22229D01*
Y178542D01*
D02*
G37*
G36*
X26185Y175571D02*
X23017D01*
Y173387D01*
X25202D01*
X25578Y173461D01*
X25897Y173675D01*
X26110Y173994D01*
X26185Y174370D01*
Y175571D01*
D02*
G37*
G36*
X22229D02*
X19061D01*
Y174370D01*
X19136Y173994D01*
X19349Y173675D01*
X19668Y173461D01*
X20044Y173387D01*
X22229D01*
Y175571D01*
D02*
G37*
G36*
X83091Y126200D02*
X80905D01*
Y124016D01*
X84074D01*
Y125216D01*
X83999Y125593D01*
X83786Y125912D01*
X83467Y126125D01*
X83091Y126200D01*
D02*
G37*
G36*
X80118D02*
X77933D01*
X77557Y126125D01*
X77238Y125912D01*
X77025Y125593D01*
X76950Y125216D01*
Y124016D01*
X80118D01*
Y126200D01*
D02*
G37*
G36*
X84074Y123228D02*
X80905D01*
Y121044D01*
X83091D01*
X83467Y121119D01*
X83786Y121332D01*
X83999Y121651D01*
X84074Y122028D01*
Y123228D01*
D02*
G37*
G36*
X80118D02*
X76950D01*
Y122028D01*
X77025Y121651D01*
X77238Y121332D01*
X77557Y121119D01*
X77933Y121044D01*
X80118D01*
Y123228D01*
D02*
G37*
G36*
X79986Y118329D02*
X76797D01*
X76421Y118254D01*
X76102Y118041D01*
X75889Y117722D01*
X75814Y117345D01*
Y112188D01*
X75889Y111812D01*
X76102Y111493D01*
X76421Y111279D01*
X76797Y111205D01*
X79986D01*
X80362Y111279D01*
X80682Y111493D01*
X80895Y111812D01*
X80970Y112188D01*
Y113763D01*
X84561D01*
X84724Y113520D01*
X85225Y113184D01*
X85817Y113067D01*
X86408Y113184D01*
X86910Y113520D01*
X87245Y114021D01*
X87362Y114612D01*
X87245Y115204D01*
X86910Y115705D01*
X86408Y116040D01*
X85817Y116158D01*
X85225Y116040D01*
X84822Y115770D01*
X80970D01*
Y117345D01*
X80895Y117722D01*
X80682Y118041D01*
X80362Y118254D01*
X79986Y118329D01*
D02*
G37*
G36*
X42483Y106493D02*
X39339D01*
Y105549D01*
X42483D01*
Y106493D01*
D02*
G37*
G36*
X81968Y108724D02*
X78662D01*
X78308Y108653D01*
X78009Y108453D01*
X77808Y108154D01*
X77738Y107800D01*
Y105675D01*
X77808Y105321D01*
X78009Y105022D01*
X78308Y104822D01*
X78662Y104751D01*
X81968D01*
X82322Y104822D01*
X82621Y105022D01*
X82822Y105321D01*
X82892Y105675D01*
Y107800D01*
X82822Y108154D01*
X82621Y108453D01*
X82322Y108653D01*
X81968Y108724D01*
D02*
G37*
G36*
X92598D02*
X89291D01*
X88938Y108653D01*
X88639Y108453D01*
X88438Y108154D01*
X88368Y107800D01*
Y105675D01*
X88438Y105321D01*
X88503Y105224D01*
X88598Y104867D01*
X88503Y104511D01*
X88438Y104414D01*
X88368Y104060D01*
Y103391D01*
X90945D01*
X93522D01*
Y104060D01*
X93451Y104414D01*
X93387Y104511D01*
X93292Y104867D01*
X93387Y105224D01*
X93451Y105321D01*
X93522Y105675D01*
Y107800D01*
X93451Y108154D01*
X93251Y108453D01*
X92952Y108653D01*
X92598Y108724D01*
D02*
G37*
G36*
X100285Y87619D02*
X97835D01*
Y85139D01*
X101299D01*
Y86605D01*
X101222Y86993D01*
X101002Y87322D01*
X100673Y87542D01*
X100285Y87619D01*
D02*
G37*
G36*
X97047D02*
X94596D01*
X94209Y87542D01*
X93880Y87322D01*
X93660Y86993D01*
X93583Y86605D01*
Y85139D01*
X97047D01*
Y87619D01*
D02*
G37*
G36*
X101299Y84351D02*
X97835D01*
Y81871D01*
X100285D01*
X100673Y81948D01*
X101002Y82168D01*
X101222Y82497D01*
X101299Y82885D01*
Y84351D01*
D02*
G37*
G36*
X97047D02*
X93583D01*
Y82885D01*
X93660Y82497D01*
X93880Y82168D01*
X94209Y81948D01*
X94596Y81871D01*
X97047D01*
Y84351D01*
D02*
G37*
G36*
X24114Y83967D02*
X23523Y83849D01*
X23021Y83514D01*
X22686Y83013D01*
X22569Y82421D01*
X22686Y81830D01*
X23021Y81328D01*
X23111Y81269D01*
Y80137D01*
X21535D01*
X21159Y80062D01*
X20840Y79849D01*
X20627Y79530D01*
X20552Y79154D01*
Y75965D01*
X20627Y75588D01*
X20840Y75269D01*
X21159Y75056D01*
X21535Y74981D01*
X26693D01*
X27069Y75056D01*
X27388Y75269D01*
X27602Y75588D01*
X27676Y75965D01*
Y79154D01*
X27602Y79530D01*
X27388Y79849D01*
X27069Y80062D01*
X26693Y80137D01*
X25118D01*
Y81269D01*
X25207Y81328D01*
X25542Y81830D01*
X25660Y82421D01*
X25542Y83013D01*
X25207Y83514D01*
X24706Y83849D01*
X24114Y83967D01*
D02*
G37*
G36*
X115217Y56659D02*
X111373D01*
Y52815D01*
X115217D01*
Y56659D01*
D02*
G37*
G36*
Y52028D02*
X111373D01*
Y48184D01*
X115217D01*
Y52028D01*
D02*
G37*
G36*
X100197Y49213D02*
X90748D01*
Y40551D01*
X100197D01*
Y49213D01*
D02*
G37*
G36*
X70276D02*
X60827D01*
Y40551D01*
X70276D01*
Y49213D01*
D02*
G37*
G36*
X59645D02*
X50196D01*
Y40551D01*
X59645D01*
Y49213D01*
D02*
G37*
G36*
X71082Y91831D02*
X67913D01*
Y89647D01*
X70098D01*
X70475Y89721D01*
X70794Y89934D01*
X71007Y90254D01*
X71082Y90630D01*
Y91831D01*
D02*
G37*
G36*
X67126D02*
X63958D01*
Y90630D01*
X64032Y90254D01*
X64245Y89934D01*
X64565Y89721D01*
X64941Y89647D01*
X67126D01*
Y91831D01*
D02*
G37*
G36*
X79813Y90866D02*
X78347D01*
Y87402D01*
X80827D01*
Y89852D01*
X80749Y90240D01*
X80530Y90569D01*
X80201Y90789D01*
X79813Y90866D01*
D02*
G37*
G36*
X77559D02*
X76092D01*
X75705Y90789D01*
X75376Y90569D01*
X75156Y90240D01*
X75079Y89852D01*
Y87402D01*
X77559D01*
Y90866D01*
D02*
G37*
G36*
X80827Y86614D02*
X78347D01*
Y83150D01*
X79813D01*
X80201Y83227D01*
X80530Y83447D01*
X80749Y83776D01*
X80827Y84163D01*
Y86614D01*
D02*
G37*
G36*
X77559D02*
X75079D01*
Y84163D01*
X75156Y83776D01*
X75376Y83447D01*
X75705Y83227D01*
X76092Y83150D01*
X77559D01*
Y86614D01*
D02*
G37*
%LPD*%
D10*
X16871Y135138D02*
X17618D01*
X21752Y131004D01*
Y122792D02*
X25044Y119500D01*
X21752Y122792D02*
Y131004D01*
X26410Y119500D02*
X26871Y119039D01*
X25044Y119500D02*
X26410D01*
X26871Y109798D02*
X29877Y106792D01*
X26871Y109798D02*
Y119039D01*
X29877Y106792D02*
X32677D01*
X34449Y108563D01*
Y116732D01*
X35683Y117966D01*
X36968Y112797D02*
X42876D01*
X35683Y117966D02*
X38275D01*
X60076Y112797D02*
X65985D01*
X5610Y152421D02*
X12894D01*
X16871Y144060D02*
Y148444D01*
X12894Y152421D02*
X16871Y148444D01*
Y144060D02*
X19888Y141043D01*
X52953D01*
X58376Y123622D02*
X60076Y121921D01*
X44052Y123622D02*
X58376D01*
X60076Y106887D02*
X60098Y106866D01*
Y102421D02*
Y106866D01*
X60076Y114767D02*
Y121921D01*
X67520Y99311D02*
Y106792D01*
X65455Y108857D02*
X67520Y106792D01*
X67776Y110827D02*
X70276Y108327D01*
X60076Y108857D02*
X65455D01*
X70276Y108327D02*
X75605Y102997D01*
X60076Y110827D02*
X67776D01*
X75605Y102997D02*
X83308D01*
X60076Y114767D02*
X71305D01*
X78366Y150965D02*
X80512Y148819D01*
X16142Y159449D02*
X24626Y150965D01*
X78366D01*
X34646Y202338D02*
Y212401D01*
X16142Y183834D02*
X34646Y202338D01*
X16142Y159449D02*
Y183834D01*
X80512Y145374D02*
Y148819D01*
X75636Y208465D02*
X86418D01*
X65985Y205217D02*
X72387D01*
X75636Y208465D01*
X65985Y198031D02*
Y205217D01*
X34646Y212401D02*
X58800D01*
X65985Y205217D01*
X58220Y136476D02*
X61982D01*
X56882Y135138D02*
X58220Y136476D01*
X55276Y129076D02*
X56882Y130681D01*
Y135138D01*
X51782Y129076D02*
X55276D01*
X51254Y128548D02*
X51782Y129076D01*
X38275Y123622D02*
Y128548D01*
X30413Y114767D02*
Y119500D01*
X42876Y114767D02*
Y117966D01*
X40162Y120680D02*
X42876Y117966D01*
X31594Y120680D02*
X40162D01*
X30413Y119500D02*
X31594Y120680D01*
X38275Y128548D02*
X51254D01*
X38275Y136422D02*
X51728D01*
X51782Y136476D01*
X62064Y136558D02*
Y146225D01*
X61982Y136476D02*
X62064Y136558D01*
X97441Y92028D02*
Y98387D01*
X90945Y99257D02*
X96570D01*
X97441Y98387D01*
X74606Y145374D02*
X80512D01*
X71260Y136417D02*
Y142028D01*
X74606Y145374D01*
X61982Y132776D02*
X67618D01*
X71260Y136417D01*
X85662Y114767D02*
X85817Y114612D01*
X78392Y114767D02*
X85662D01*
X80512Y130709D02*
Y138287D01*
X72146Y130709D02*
X80512D01*
X61982Y129076D02*
X70513D01*
X72146Y130709D01*
X87048Y99257D02*
X90945D01*
X83308Y102997D02*
X87048Y99257D01*
X53543Y34055D02*
X59435Y28163D01*
X101352D02*
X115610Y42421D01*
X59435Y28163D02*
X101352D01*
X23327Y110018D02*
Y114767D01*
X17815Y104506D02*
X23327Y110018D01*
X17815Y96555D02*
Y104506D01*
Y96555D02*
X18484Y95887D01*
X22623D01*
X37801Y82421D02*
X37991D01*
X33215Y87008D02*
X37801Y82421D01*
X32677Y87008D02*
X33215D01*
X26398Y93287D02*
X32677Y87008D01*
X22623Y93287D02*
X26398D01*
X37991Y77559D02*
Y82421D01*
X22623Y93287D02*
Y95887D01*
X45865Y34055D02*
X53543D01*
X24114Y77559D02*
Y82421D01*
X22933Y22080D02*
Y22276D01*
D17*
X42876Y110827D02*
D03*
Y112797D02*
D03*
Y106887D02*
D03*
Y108857D02*
D03*
X60076Y110827D02*
D03*
Y114767D02*
D03*
Y112797D02*
D03*
Y108857D02*
D03*
Y106887D02*
D03*
X42876Y114767D02*
D03*
D18*
X71305D02*
D03*
X78392D02*
D03*
X30413D02*
D03*
X23327D02*
D03*
D19*
X67520Y92224D02*
D03*
Y99311D02*
D03*
X22623Y175965D02*
D03*
Y168878D02*
D03*
X80512Y145374D02*
D03*
Y138287D02*
D03*
Y130709D02*
D03*
Y123622D02*
D03*
X37991Y77559D02*
D03*
Y70472D02*
D03*
X24114Y77559D02*
D03*
Y70472D02*
D03*
X95473Y76575D02*
D03*
Y69488D02*
D03*
X82087Y76575D02*
D03*
Y69488D02*
D03*
D20*
X22933Y22080D02*
D03*
X31988D02*
D03*
D21*
X71457Y19685D02*
D03*
X49803D02*
D03*
D22*
X66614D02*
D03*
X54646D02*
D03*
D23*
X58661D02*
D03*
X62598D02*
D03*
D24*
X61982Y136476D02*
D03*
Y132776D02*
D03*
Y129076D02*
D03*
X51782D02*
D03*
Y132776D02*
D03*
Y136476D02*
D03*
D25*
X37023Y90787D02*
D03*
Y93287D02*
D03*
Y95887D02*
D03*
Y98387D02*
D03*
X22623D02*
D03*
Y95887D02*
D03*
Y93287D02*
D03*
Y90787D02*
D03*
D26*
X38275Y128548D02*
D03*
Y136422D02*
D03*
D27*
X55962Y146225D02*
D03*
X62064D02*
D03*
D28*
X85236Y87008D02*
D03*
X77953D02*
D03*
D29*
X97441Y92028D02*
D03*
Y84745D02*
D03*
D30*
X80315Y99257D02*
D03*
X90945D02*
D03*
X80315Y106737D02*
D03*
X90945D02*
D03*
Y102997D02*
D03*
D31*
X95472Y44882D02*
D03*
X65551D02*
D03*
X54921D02*
D03*
X24999D02*
D03*
D32*
X74606Y34055D02*
D03*
X78543D02*
D03*
X82480D02*
D03*
X86417D02*
D03*
X34054D02*
D03*
X37991D02*
D03*
X41928D02*
D03*
X45865D02*
D03*
D33*
X52993Y197244D02*
D03*
X57323Y195669D02*
D03*
X61654Y197244D02*
D03*
X65985Y198031D02*
D03*
X70316Y197244D02*
D03*
X74646Y198031D02*
D03*
X78977Y197244D02*
D03*
X83308D02*
D03*
D34*
X34646Y212401D02*
D03*
X86418Y208465D02*
D03*
D35*
X57678Y156693D02*
D03*
X80119D02*
D03*
D65*
X51476Y110827D02*
D03*
D66*
X106299Y162232D02*
Y187205D01*
Y162232D02*
X115610Y152921D01*
X12894Y139115D02*
X16871Y135138D01*
X12894Y139115D02*
Y142028D01*
X14665Y30544D02*
X22933Y22276D01*
X11811Y120680D02*
X14665Y117826D01*
Y30544D02*
Y117826D01*
X11811Y130078D02*
X16871Y135138D01*
X11811Y120680D02*
Y130078D01*
X54646Y15177D02*
Y19685D01*
X51181Y11713D02*
X54646Y15177D01*
X36122Y11713D02*
X51181D01*
X31988Y15846D02*
X36122Y11713D01*
X31988Y15846D02*
Y22080D01*
D67*
X37023Y98387D02*
X42392D01*
X71290Y69488D01*
X82087D01*
X53309Y95255D02*
X75533Y73032D01*
X52953Y95255D02*
X53309D01*
X75533Y73032D02*
X87205D01*
X27854Y95255D02*
X29823Y93287D01*
X31875Y95832D02*
X36968D01*
X31875Y101816D02*
X43014D01*
X31299Y96408D02*
X31875Y95832D01*
X31299Y96408D02*
Y101240D01*
X31875Y101816D01*
X45376Y99454D02*
X56918D01*
X43014Y101816D02*
X45376Y99454D01*
X98278Y169341D02*
Y178593D01*
X89862Y187008D02*
X98278Y178593D01*
X82323Y187008D02*
X89862D01*
X115506Y82526D02*
X115610Y82421D01*
X110684Y82526D02*
X115506D01*
X104823Y88387D02*
X110684Y82526D01*
X104823Y88387D02*
Y96613D01*
X95965Y105472D02*
X104823Y96613D01*
X92815Y114096D02*
X95965Y110947D01*
Y105472D02*
Y110947D01*
X92815Y114096D02*
Y145551D01*
X87402Y150965D02*
X92815Y145551D01*
X87402Y150965D02*
Y159744D01*
X57323Y189823D02*
X87402Y159744D01*
X57323Y189823D02*
Y195669D01*
X57678Y156693D02*
X80119D01*
X92224Y155611D02*
Y162500D01*
Y155611D02*
X99213Y148622D01*
Y108819D02*
Y148622D01*
X61654Y193071D02*
Y197244D01*
Y193071D02*
X92224Y162500D01*
X98228Y156693D02*
X102264Y152657D01*
X99213Y108819D02*
X115610Y92421D01*
X78977Y190354D02*
Y197244D01*
Y190354D02*
X82323Y187008D01*
X102264Y115767D02*
Y152657D01*
X104823Y119500D02*
Y156693D01*
X70316Y191201D02*
X104823Y156693D01*
X70316Y191201D02*
Y197244D01*
X102264Y115767D02*
X115610Y102421D01*
X114478Y113553D02*
X115610Y112421D01*
X110770Y113553D02*
X114478D01*
X104823Y119500D02*
X110770Y113553D01*
X57678Y156693D02*
Y161220D01*
X50020Y168878D02*
X57678Y161220D01*
X22623Y168878D02*
X50020D01*
X22623Y87795D02*
Y90787D01*
X18701Y83873D02*
X22623Y87795D01*
X36968Y95832D02*
X37023Y95887D01*
X27854Y95255D02*
Y97190D01*
X26658Y98387D02*
X27854Y97190D01*
X22623Y98387D02*
X26658D01*
X90748Y69488D02*
X95473D01*
X87205Y73032D02*
X90748Y69488D01*
X56918Y99454D02*
X60604Y95768D01*
X79331D01*
X80315Y96752D01*
X37023Y87878D02*
Y90787D01*
X44052Y71358D02*
Y80849D01*
X37023Y87878D02*
X44052Y80849D01*
X43167Y70472D02*
X44052Y71358D01*
X37991Y70472D02*
X43167D01*
X18701Y71358D02*
Y83873D01*
Y71358D02*
X19587Y70472D01*
X24114D01*
X85236Y87008D02*
Y91831D01*
X80315Y96752D02*
Y99257D01*
Y96752D02*
X85236Y91831D01*
Y82874D02*
Y87008D01*
X82087Y79724D02*
X85236Y82874D01*
X82087Y76575D02*
Y79724D01*
Y76575D02*
X95473D01*
X102264D02*
X104823Y74016D01*
X95473Y76575D02*
X102264D01*
X86417Y47835D02*
X104823Y66241D01*
Y74016D01*
X86417Y34055D02*
Y47835D01*
X82480Y34055D02*
Y51673D01*
X95473Y64665D02*
Y69488D01*
X82480Y51673D02*
X95473Y64665D01*
X74606Y34055D02*
Y56299D01*
X82087Y63779D01*
Y69488D01*
X41928Y34055D02*
X41929Y34054D01*
Y28839D02*
Y34054D01*
X40551Y27461D02*
X41929Y28839D01*
X32283Y27461D02*
X40551D01*
X30906Y28839D02*
X32283Y27461D01*
X30906Y28839D02*
Y60139D01*
X24114Y66930D02*
X30906Y60139D01*
X24114Y66930D02*
Y70472D01*
X34054Y34055D02*
Y44882D01*
X37991Y48819D02*
Y70472D01*
X34054Y44882D02*
X37991Y48819D01*
D68*
X66614Y11713D02*
Y19685D01*
Y24311D01*
X55276Y25111D02*
X65814D01*
X66614Y24311D01*
X54646Y19685D02*
Y24480D01*
X55276Y25111D01*
D69*
X101673Y203092D02*
X105672D01*
X103673D01*
Y197094D01*
X108671D02*
X110670D01*
X111670Y198093D01*
Y200093D01*
X110670Y201092D01*
X108671D01*
X107671Y200093D01*
Y198093D01*
X108671Y197094D01*
X113669Y195094D02*
Y201092D01*
X116668D01*
X117668Y200093D01*
Y198093D01*
X116668Y197094D01*
X113669D01*
D70*
X96570Y191201D02*
D03*
X106299Y187205D02*
D03*
D71*
X27265Y133272D02*
D03*
X16871Y135138D02*
D03*
Y126378D02*
D03*
X60098Y102421D02*
D03*
D72*
X115610Y42421D02*
D03*
Y82421D02*
D03*
Y72421D02*
D03*
Y62421D02*
D03*
Y92421D02*
D03*
Y102421D02*
D03*
Y112421D02*
D03*
Y172421D02*
D03*
Y162421D02*
D03*
Y152921D02*
D03*
Y142421D02*
D03*
Y132421D02*
D03*
Y182421D02*
D03*
X5610Y42421D02*
D03*
Y82421D02*
D03*
Y72421D02*
D03*
Y62421D02*
D03*
Y102421D02*
D03*
Y112421D02*
D03*
Y122921D02*
D03*
Y162421D02*
D03*
Y152421D02*
D03*
Y142421D02*
D03*
Y132421D02*
D03*
Y172421D02*
D03*
Y182421D02*
D03*
D73*
X115610Y52421D02*
D03*
Y121921D02*
D03*
X5610Y52421D02*
D03*
Y91921D02*
D03*
D74*
X77638Y4724D02*
D03*
X43622D02*
D03*
X77638Y19685D02*
D03*
X43622D02*
D03*
D75*
X11811Y9843D02*
D03*
Y214173D02*
D03*
X109449Y9843D02*
D03*
Y214173D02*
D03*
D76*
X66663Y87795D02*
D03*
X61552Y92412D02*
D03*
X52953Y95255D02*
D03*
X12894Y142028D02*
D03*
X38275Y117966D02*
D03*
X36968Y112797D02*
D03*
X65985D02*
D03*
X52953Y141043D02*
D03*
X44052Y123622D02*
D03*
X42876Y117966D02*
D03*
X29823Y93287D02*
D03*
X37023Y87878D02*
D03*
X98278Y169341D02*
D03*
X22623Y87795D02*
D03*
X98228Y156693D02*
D03*
X38275Y123622D02*
D03*
X80512Y145374D02*
D03*
X85817Y114612D02*
D03*
X37991Y82421D02*
D03*
X24114D02*
D03*
D77*
X70276Y108327D02*
D03*
D78*
X66614Y11713D02*
D03*
M02*
