G04*
G04 #@! TF.GenerationSoftware,Altium Limited,Altium Designer,20.2.7 (254)*
G04*
G04 Layer_Color=65535*
%FSLAX25Y25*%
%MOIN*%
G70*
G04*
G04 #@! TF.SameCoordinates,4998CC98-4955-4D50-BC1E-778ED6EA16F9*
G04*
G04*
G04 #@! TF.FilePolarity,Positive*
G04*
G01*
G75*
%ADD10C,0.00787*%
%ADD11C,0.00000*%
%ADD12C,0.00600*%
%ADD13C,0.02362*%
%ADD14C,0.00591*%
%ADD15C,0.00500*%
%ADD16C,0.00394*%
D10*
X36122Y22080D02*
X35335D01*
X36122D01*
X63287Y35630D02*
X72146D01*
X88878D02*
X97736D01*
X63287Y49606D02*
Y58858D01*
Y35630D02*
Y40157D01*
X97736Y35630D02*
Y40157D01*
Y49606D02*
Y58858D01*
X63287D02*
X97736D01*
X22736Y35630D02*
X31594D01*
X48326D02*
X57184D01*
X22736Y49606D02*
Y58858D01*
Y35630D02*
Y40157D01*
X57184Y35630D02*
Y40157D01*
Y49606D02*
Y58858D01*
X22736D02*
X57184D01*
X50394Y209252D02*
X82481D01*
X50394D02*
Y211614D01*
X44488D02*
X50394D01*
X44488D02*
Y214961D01*
X33071Y155119D02*
Y207481D01*
X88190Y155119D02*
Y203544D01*
X84843Y155119D02*
X88190D01*
X62402D02*
X75394D01*
X33071D02*
X52953D01*
X38583Y214961D02*
X44488D01*
D11*
X55682Y138876D02*
X56033Y138027D01*
X56882Y137676D01*
X57731Y138027D01*
X58082Y138876D01*
D12*
X31023Y88387D02*
X30671Y89235D01*
X29823Y89587D01*
X28974Y89235D01*
X28623Y88387D01*
X54682Y138876D02*
X55682D01*
X58082D01*
X59082D01*
X24123Y100787D02*
X35523D01*
X24123Y88387D02*
X28623D01*
X31023D01*
X35523D01*
X69851Y34252D02*
Y30253D01*
X71850Y32253D01*
X69185D01*
X90748Y34252D02*
X89415D01*
X90082D01*
Y30253D01*
X90748Y30920D01*
X29299Y34252D02*
Y30253D01*
X31299Y32253D01*
X28633D01*
X50196Y34252D02*
X48863D01*
X49530D01*
Y30253D01*
X50196Y30920D01*
D13*
X87008Y99454D02*
X86221D01*
X87008D01*
D14*
X74455Y111420D02*
X75242D01*
X74455Y118113D02*
X75242D01*
X26476D02*
X27264D01*
X26476Y111420D02*
X27264D01*
X70866Y95374D02*
Y96161D01*
X64173Y95374D02*
Y96161D01*
X19276Y172028D02*
Y172815D01*
X25969Y172028D02*
Y172815D01*
X77165Y141437D02*
Y142224D01*
X83858Y141437D02*
Y142224D01*
X77165Y126772D02*
Y127559D01*
X83858Y126772D02*
Y127559D01*
X33748Y131697D02*
Y133272D01*
X42803Y131697D02*
Y133272D01*
X34645Y73622D02*
Y74410D01*
X41338Y73622D02*
Y74410D01*
X20768Y73622D02*
Y74410D01*
X27461Y73622D02*
Y74410D01*
X92126Y72638D02*
Y73425D01*
X98819Y72638D02*
Y73425D01*
X78740Y72638D02*
Y73425D01*
X85433Y72638D02*
Y73425D01*
X81398Y90453D02*
X81791D01*
X81398Y83563D02*
X81791D01*
X93996Y88190D02*
Y88583D01*
X100886Y88190D02*
Y88583D01*
X81595Y101816D02*
Y104179D01*
X82087Y96403D02*
X89174D01*
X82087Y109592D02*
X89174D01*
D15*
X24114Y25111D02*
X30807D01*
X24114Y19048D02*
X30807D01*
D16*
X28969Y206200D02*
X28313D01*
X28641D01*
Y204560D01*
X28313Y204232D01*
X27986D01*
X27657Y204560D01*
X30937Y206200D02*
X29625D01*
Y205216D01*
X30281Y205544D01*
X30609D01*
X30937Y205216D01*
Y204560D01*
X30609Y204232D01*
X29953D01*
X29625Y204560D01*
M02*
