M48
;Layer_Color=9474304
;FILE_FORMAT=2:4
INCH,TZ
;TYPE=PLATED
T1F00S00C0.0087
T2F00S00C0.0157
T4F00S00C0.0280
T5F00S00C0.0300
T6F00S00C0.0350
T7F00S00C0.1299
%
T01
X8582Y11461
X8051Y14537
X9823Y15669
X9828Y16934
X5295Y14104
X4405Y12362
X3828
Y11797
X4288
X3697Y11280
X3702Y8788
X3799Y8242
X2411
X2262Y8780
X2982Y9329
X5295Y9526
X6155Y9241
X6666Y8780
X6598Y11280
X1289Y14203
T02
X6661Y1171
X7028Y10833
T04
X1687Y12638
Y13514
X2726Y13327
X6010Y10242
T05
X9657Y19120
X10630Y18720
T06
X561Y4242
Y5242
X11561
Y4242
Y6242
Y7242
Y8242
Y9242
Y10242
Y11242
Y12192
Y13242
Y14242
Y15292
Y16242
Y17242
Y18242
X561
Y17242
Y16242
Y15242
Y14242
Y13242
Y12292
Y11242
Y10242
Y9192
Y8242
Y7242
Y6242
T07
X1181Y984
X10945
Y21417
X1181
M30
