G04*
G04 #@! TF.GenerationSoftware,Altium Limited,Altium Designer,20.2.7 (254)*
G04*
G04 Layer_Color=16711935*
%FSLAX25Y25*%
%MOIN*%
G70*
G04*
G04 #@! TF.SameCoordinates,4998CC98-4955-4D50-BC1E-778ED6EA16F9*
G04*
G04*
G04 #@! TF.FilePolarity,Positive*
G04*
G01*
G75*
%ADD10C,0.00787*%
D10*
X0Y9055D02*
X57Y8041D01*
X227Y7040D01*
X508Y6064D01*
X897Y5126D01*
X1388Y4237D01*
X1976Y3409D01*
X2652Y2652D01*
X3409Y1976D01*
X4237Y1388D01*
X5126Y897D01*
X6064Y508D01*
X7040Y227D01*
X8041Y57D01*
X9055Y0D01*
X9055Y224016D02*
X8041Y223959D01*
X7040Y223789D01*
X6064Y223508D01*
X5126Y223119D01*
X4237Y222628D01*
X3409Y222040D01*
X2652Y221364D01*
X1976Y220606D01*
X1388Y219778D01*
X897Y218889D01*
X508Y217951D01*
X227Y216976D01*
X57Y215974D01*
X-0Y214961D01*
X121260D02*
X121203Y215974D01*
X121033Y216976D01*
X120752Y217951D01*
X120363Y218889D01*
X119872Y219778D01*
X119284Y220606D01*
X118608Y221364D01*
X117850Y222040D01*
X117022Y222628D01*
X116134Y223119D01*
X115196Y223508D01*
X114220Y223789D01*
X113219Y223959D01*
X112205Y224016D01*
X112205Y0D02*
X113219Y57D01*
X114220Y227D01*
X115196Y508D01*
X116134Y897D01*
X117022Y1388D01*
X117850Y1976D01*
X118608Y2652D01*
X119284Y3409D01*
X119872Y4237D01*
X120363Y5126D01*
X120752Y6064D01*
X121033Y7040D01*
X121203Y8041D01*
X121260Y9055D01*
X-0Y214961D02*
X0Y9055D01*
X9042Y224016D02*
X112205Y224016D01*
X121260Y214961D02*
X121260Y9055D01*
X9042Y0D02*
X112205Y0D01*
M02*
