G04*
G04 #@! TF.GenerationSoftware,Altium Limited,Altium Designer,20.2.7 (254)*
G04*
G04 Layer_Color=32768*
%FSLAX25Y25*%
%MOIN*%
G70*
G04*
G04 #@! TF.SameCoordinates,4998CC98-4955-4D50-BC1E-778ED6EA16F9*
G04*
G04*
G04 #@! TF.FilePolarity,Positive*
G04*
G01*
G75*
%ADD79C,0.00197*%
D79*
X69435Y111027D02*
X80262D01*
X69435D02*
Y118507D01*
X80262D01*
Y111027D02*
Y118507D01*
X21457D02*
X32283D01*
Y111027D02*
Y118507D01*
X21457Y111027D02*
X32283D01*
X21457D02*
Y118507D01*
X71260Y90354D02*
Y101181D01*
X63779Y90354D02*
X71260D01*
X63779D02*
Y101181D01*
X71260D01*
X18883Y167008D02*
Y177835D01*
X26363D01*
Y167008D02*
Y177835D01*
X18883Y167008D02*
X26363D01*
X76772Y147244D02*
X84252D01*
X76772Y136417D02*
Y147244D01*
Y136417D02*
X84252D01*
Y147244D01*
X76772Y132579D02*
X84252D01*
X76772Y121752D02*
Y132579D01*
Y121752D02*
X84252D01*
Y132579D01*
X33354Y126874D02*
X43196D01*
X33354D02*
Y138095D01*
X43196D01*
Y126874D02*
Y138095D01*
X60588Y148391D02*
X63934D01*
Y144060D02*
Y148391D01*
X54092Y144060D02*
X63934D01*
X54092D02*
Y148391D01*
X60588D01*
X34251Y79429D02*
X41732D01*
X34251Y68602D02*
Y79429D01*
Y68602D02*
X41732D01*
Y79429D01*
X20374D02*
X27854D01*
X20374Y68602D02*
Y79429D01*
Y68602D02*
X27854D01*
Y79429D01*
X91732Y78445D02*
X99213D01*
X91732Y67618D02*
Y78445D01*
Y67618D02*
X99213D01*
Y78445D01*
X78347D02*
X85827D01*
X78347Y67618D02*
Y78445D01*
Y67618D02*
X85827D01*
Y78445D01*
X80610Y90847D02*
X87402D01*
X75787D02*
X80610D01*
X75787Y83169D02*
Y90847D01*
Y83169D02*
X87402D01*
Y90847D01*
X93602Y87402D02*
Y94194D01*
Y82579D02*
Y87402D01*
Y82579D02*
X101279D01*
Y94194D01*
X93602D02*
X101279D01*
X92815Y96009D02*
Y109985D01*
X78445Y96009D02*
X92815D01*
X78445Y109985D02*
X92815D01*
X78445Y96009D02*
Y109985D01*
M02*
