G04*
G04 #@! TF.GenerationSoftware,Altium Limited,Altium Designer,20.2.7 (254)*
G04*
G04 Layer_Physical_Order=2*
G04 Layer_Color=16711680*
%FSLAX25Y25*%
%MOIN*%
G70*
G04*
G04 #@! TF.SameCoordinates,4998CC98-4955-4D50-BC1E-778ED6EA16F9*
G04*
G04*
G04 #@! TF.FilePolarity,Positive*
G04*
G01*
G75*
%ADD10C,0.00787*%
%ADD66C,0.01181*%
%ADD67C,0.00984*%
%ADD68C,0.01575*%
%ADD69C,0.01000*%
%ADD70C,0.06000*%
%ADD71C,0.04173*%
%ADD72C,0.06900*%
%ADD73R,0.06900X0.06900*%
%ADD74O,0.03937X0.06693*%
%ADD75C,0.13780*%
%ADD76C,0.01850*%
%ADD77C,0.02756*%
%ADD78C,0.02953*%
G36*
X106505Y221509D02*
X106421Y221483D01*
X105053Y220752D01*
X103854Y219768D01*
X102870Y218569D01*
X102139Y217201D01*
X101689Y215717D01*
X101537Y214173D01*
X101689Y212630D01*
X102139Y211145D01*
X102870Y209777D01*
X103854Y208578D01*
X105053Y207594D01*
X106421Y206863D01*
X107905Y206413D01*
X109449Y206261D01*
X110992Y206413D01*
X112477Y206863D01*
X113845Y207594D01*
X115043Y208578D01*
X116027Y209777D01*
X116759Y211145D01*
X117209Y212630D01*
X117361Y214173D01*
X117209Y215717D01*
X116759Y217201D01*
X116027Y218569D01*
X115043Y219768D01*
X113845Y220752D01*
X112477Y221483D01*
X112384Y221511D01*
X112480Y221994D01*
X112694Y221983D01*
X113584Y221895D01*
X114911Y221493D01*
X116133Y220840D01*
X117204Y219960D01*
X118084Y218889D01*
X118737Y217667D01*
X119140Y216340D01*
X119268Y215037D01*
X119253Y214961D01*
Y204200D01*
X118753Y203766D01*
X101918D01*
Y194587D01*
X118753D01*
X119095Y194587D01*
X119253Y194152D01*
Y185736D01*
X118930Y185626D01*
X118753Y185599D01*
X117847Y186295D01*
X116768Y186741D01*
X115610Y186894D01*
X114453Y186741D01*
X113374Y186295D01*
X112448Y185584D01*
X111737Y184658D01*
X111290Y183579D01*
X111138Y182421D01*
X111290Y181264D01*
X111737Y180185D01*
X112448Y179259D01*
X113374Y178548D01*
X114453Y178101D01*
X115610Y177949D01*
X116768Y178101D01*
X117847Y178548D01*
X118753Y179243D01*
X118930Y179216D01*
X119253Y179106D01*
Y175736D01*
X118930Y175627D01*
X118753Y175599D01*
X117847Y176295D01*
X116768Y176741D01*
X115610Y176894D01*
X114453Y176741D01*
X113374Y176295D01*
X112448Y175584D01*
X111737Y174657D01*
X111290Y173579D01*
X111221Y173053D01*
X41831D01*
X41408Y172969D01*
X41050Y172729D01*
X21842Y153522D01*
X21603Y153163D01*
X21519Y152741D01*
Y88872D01*
X21195Y88387D01*
X21077Y87795D01*
X21195Y87204D01*
X21530Y86703D01*
X22031Y86367D01*
X22623Y86250D01*
X23214Y86367D01*
X23716Y86703D01*
X24051Y87204D01*
X24168Y87795D01*
X24051Y88387D01*
X23727Y88872D01*
Y152284D01*
X42288Y170845D01*
X96904D01*
X97025Y170668D01*
X97126Y170345D01*
X96850Y169932D01*
X96732Y169341D01*
X96850Y168749D01*
X97124Y168338D01*
Y157770D01*
X96801Y157285D01*
X96683Y156693D01*
X96801Y156102D01*
X97136Y155601D01*
X97637Y155265D01*
X98228Y155148D01*
X98820Y155265D01*
X99321Y155601D01*
X99656Y156102D01*
X99774Y156693D01*
X99656Y157285D01*
X99332Y157770D01*
Y168222D01*
X99370Y168248D01*
X99705Y168749D01*
X99823Y169341D01*
X99705Y169932D01*
X99429Y170345D01*
X99531Y170668D01*
X99651Y170845D01*
X111464D01*
X111737Y170185D01*
X112448Y169259D01*
X113374Y168548D01*
X114453Y168101D01*
X115610Y167949D01*
X116768Y168101D01*
X117847Y168548D01*
X118753Y169243D01*
X118930Y169216D01*
X119253Y169106D01*
Y165736D01*
X118930Y165627D01*
X118753Y165599D01*
X117847Y166295D01*
X116768Y166741D01*
X115610Y166894D01*
X114453Y166741D01*
X113374Y166295D01*
X112448Y165584D01*
X111737Y164657D01*
X111290Y163579D01*
X111283Y163525D01*
X109468D01*
X109046Y163441D01*
X108688Y163202D01*
X104633Y159147D01*
X104393Y158789D01*
X104309Y158366D01*
Y150851D01*
X101905Y148446D01*
X97012D01*
X84934Y160525D01*
X84576Y160764D01*
X84153Y160848D01*
X64567D01*
X64144Y160764D01*
X63786Y160525D01*
X32094Y128832D01*
X31854Y128474D01*
X31770Y128051D01*
Y122015D01*
X25302Y115547D01*
X25063Y115189D01*
X24979Y114767D01*
Y91535D01*
X25063Y91113D01*
X25302Y90755D01*
X28959Y87098D01*
X29317Y86859D01*
X29740Y86775D01*
X35947D01*
X36431Y86451D01*
X37023Y86333D01*
X37614Y86451D01*
X38116Y86786D01*
X38451Y87287D01*
X38568Y87878D01*
X38451Y88470D01*
X38116Y88971D01*
X37614Y89306D01*
X37023Y89424D01*
X36431Y89306D01*
X35947Y88982D01*
X30197D01*
X27187Y91993D01*
Y114310D01*
X33655Y120778D01*
X33806Y121004D01*
X34277Y120809D01*
X34232Y120583D01*
Y114529D01*
X34308Y114145D01*
X34526Y113820D01*
X35443Y112902D01*
X35423Y112797D01*
X35540Y112205D01*
X35875Y111704D01*
X36377Y111369D01*
X36968Y111251D01*
X37073Y111272D01*
X40728Y107617D01*
X41054Y107400D01*
X41438Y107323D01*
X68579D01*
X68856Y106908D01*
X68871Y106898D01*
Y15956D01*
X66715Y13800D01*
X66614Y13820D01*
X65808Y13660D01*
X65124Y13203D01*
X64667Y12519D01*
X64507Y11713D01*
X64667Y10906D01*
X65124Y10222D01*
X65808Y9766D01*
X66614Y9605D01*
X67421Y9766D01*
X68104Y10222D01*
X68561Y10906D01*
X68722Y11713D01*
X68702Y11813D01*
X71269Y14381D01*
X71574Y14836D01*
X71681Y15374D01*
Y106898D01*
X71695Y106908D01*
X72130Y107559D01*
X72283Y108327D01*
X72130Y109095D01*
X71695Y109746D01*
X71044Y110181D01*
X70276Y110334D01*
X69507Y110181D01*
X68856Y109746D01*
X68579Y109330D01*
X41854D01*
X38492Y112691D01*
X38513Y112797D01*
X38396Y113388D01*
X38061Y113890D01*
X37559Y114225D01*
X36968Y114342D01*
X36863Y114321D01*
X36239Y114945D01*
Y120167D01*
X38170Y122098D01*
X38275Y122077D01*
X38866Y122194D01*
X39368Y122529D01*
X39703Y123031D01*
X39821Y123622D01*
X39703Y124213D01*
X39368Y124715D01*
X38866Y125050D01*
X38275Y125168D01*
X37684Y125050D01*
X37182Y124715D01*
X36847Y124213D01*
X36730Y123622D01*
X36751Y123517D01*
X34526Y121292D01*
X34396Y121098D01*
X33925Y121293D01*
X33978Y121558D01*
Y127594D01*
X65024Y158640D01*
X83696D01*
X95775Y146562D01*
X96133Y146323D01*
X96555Y146239D01*
X102362D01*
X102785Y146323D01*
X103143Y146562D01*
X106194Y149613D01*
X106433Y149971D01*
X106517Y150394D01*
Y157909D01*
X109926Y161317D01*
X111283D01*
X111290Y161264D01*
X111737Y160185D01*
X112448Y159259D01*
X113374Y158548D01*
X114453Y158101D01*
X115610Y157949D01*
X116768Y158101D01*
X117847Y158548D01*
X118753Y159243D01*
X118930Y159216D01*
X119253Y159107D01*
Y156236D01*
X118930Y156126D01*
X118753Y156099D01*
X117847Y156795D01*
X116768Y157241D01*
X115610Y157394D01*
X114453Y157241D01*
X113374Y156795D01*
X112448Y156084D01*
X111737Y155157D01*
X111290Y154079D01*
X111138Y152921D01*
X111290Y151764D01*
X111737Y150685D01*
X112448Y149759D01*
X113374Y149048D01*
X114453Y148601D01*
X115610Y148449D01*
X116768Y148601D01*
X117847Y149048D01*
X118753Y149743D01*
X118930Y149716D01*
X119253Y149607D01*
Y145736D01*
X118930Y145626D01*
X118753Y145599D01*
X117847Y146295D01*
X116768Y146741D01*
X115610Y146894D01*
X114453Y146741D01*
X113374Y146295D01*
X112448Y145584D01*
X111737Y144658D01*
X111308Y143622D01*
X92148D01*
X84095Y151674D01*
X83770Y151892D01*
X83386Y151968D01*
X75875D01*
X75491Y151892D01*
X75165Y151674D01*
X42982Y119491D01*
X42876Y119511D01*
X42285Y119394D01*
X41784Y119059D01*
X41449Y118558D01*
X41331Y117966D01*
X41449Y117375D01*
X41784Y116873D01*
X42285Y116538D01*
X42876Y116421D01*
X43468Y116538D01*
X43969Y116873D01*
X44304Y117375D01*
X44422Y117966D01*
X44401Y118071D01*
X76291Y149961D01*
X82970D01*
X91023Y141909D01*
X91348Y141691D01*
X91732Y141615D01*
X111244D01*
X111290Y141264D01*
X111737Y140185D01*
X112448Y139259D01*
X113374Y138548D01*
X114453Y138101D01*
X115610Y137949D01*
X116768Y138101D01*
X117847Y138548D01*
X118753Y139243D01*
X118930Y139216D01*
X119253Y139107D01*
Y135736D01*
X118930Y135626D01*
X118753Y135599D01*
X117847Y136295D01*
X116768Y136741D01*
X115610Y136894D01*
X114453Y136741D01*
X113374Y136295D01*
X112448Y135584D01*
X111737Y134658D01*
X111290Y133579D01*
X111270Y133425D01*
X103626D01*
X103242Y133348D01*
X102916Y133131D01*
X100464Y130679D01*
X85060Y146084D01*
X84734Y146301D01*
X84350Y146378D01*
X81664D01*
X81605Y146467D01*
X81103Y146802D01*
X80512Y146920D01*
X79920Y146802D01*
X79419Y146467D01*
X79084Y145965D01*
X78966Y145374D01*
X79084Y144783D01*
X79419Y144281D01*
X79920Y143946D01*
X80512Y143829D01*
X81103Y143946D01*
X81605Y144281D01*
X81664Y144370D01*
X83934D01*
X99045Y129260D01*
X85922Y116137D01*
X85817Y116158D01*
X85225Y116040D01*
X84724Y115705D01*
X84389Y115204D01*
X84272Y114612D01*
X84389Y114021D01*
X84724Y113520D01*
X85225Y113184D01*
X85817Y113067D01*
X86408Y113184D01*
X86910Y113520D01*
X87245Y114021D01*
X87362Y114612D01*
X87341Y114718D01*
X101174Y128550D01*
X101174Y128550D01*
X104042Y131418D01*
X111270D01*
X111290Y131264D01*
X111737Y130185D01*
X112448Y129259D01*
X113374Y128548D01*
X114453Y128101D01*
X115610Y127949D01*
X116768Y128101D01*
X117847Y128548D01*
X118753Y129243D01*
X118930Y129216D01*
X119253Y129106D01*
Y126159D01*
X116004D01*
Y121921D01*
Y117684D01*
X119253D01*
Y115736D01*
X118930Y115627D01*
X118753Y115599D01*
X117847Y116295D01*
X116768Y116741D01*
X115610Y116894D01*
X114453Y116741D01*
X113374Y116295D01*
X112448Y115584D01*
X111737Y114657D01*
X111290Y113579D01*
X111138Y112421D01*
X111290Y111264D01*
X111737Y110185D01*
X112448Y109259D01*
X113374Y108548D01*
X114453Y108101D01*
X115610Y107949D01*
X116768Y108101D01*
X117847Y108548D01*
X118753Y109243D01*
X118930Y109216D01*
X119253Y109107D01*
Y105736D01*
X118930Y105626D01*
X118753Y105599D01*
X117847Y106295D01*
X116768Y106741D01*
X115610Y106894D01*
X114453Y106741D01*
X113374Y106295D01*
X112448Y105584D01*
X111737Y104657D01*
X111290Y103579D01*
X111138Y102421D01*
X111290Y101264D01*
X111737Y100185D01*
X112448Y99259D01*
X113374Y98548D01*
X114453Y98101D01*
X115610Y97949D01*
X116768Y98101D01*
X117847Y98548D01*
X118753Y99243D01*
X118930Y99216D01*
X119253Y99107D01*
Y95736D01*
X118930Y95626D01*
X118753Y95599D01*
X117847Y96295D01*
X116768Y96741D01*
X115610Y96894D01*
X114453Y96741D01*
X113374Y96295D01*
X112448Y95584D01*
X111737Y94657D01*
X111290Y93579D01*
X111138Y92421D01*
X111290Y91264D01*
X111737Y90185D01*
X112448Y89259D01*
X113374Y88548D01*
X114453Y88101D01*
X115610Y87949D01*
X116768Y88101D01*
X117847Y88548D01*
X118753Y89243D01*
X118930Y89216D01*
X119253Y89107D01*
Y85736D01*
X118930Y85627D01*
X118753Y85599D01*
X117847Y86295D01*
X116768Y86741D01*
X115610Y86894D01*
X114453Y86741D01*
X113374Y86295D01*
X112448Y85584D01*
X111737Y84658D01*
X111290Y83579D01*
X111138Y82421D01*
X111290Y81264D01*
X111737Y80185D01*
X112448Y79259D01*
X113374Y78548D01*
X114453Y78101D01*
X115610Y77949D01*
X116768Y78101D01*
X117847Y78548D01*
X118753Y79243D01*
X118930Y79216D01*
X119253Y79106D01*
Y75736D01*
X118930Y75626D01*
X118753Y75599D01*
X117847Y76295D01*
X116768Y76741D01*
X115610Y76894D01*
X114453Y76741D01*
X113374Y76295D01*
X112448Y75584D01*
X111737Y74657D01*
X111290Y73579D01*
X111138Y72421D01*
X111290Y71264D01*
X111737Y70185D01*
X112448Y69259D01*
X113374Y68548D01*
X114453Y68101D01*
X115610Y67949D01*
X116768Y68101D01*
X117847Y68548D01*
X118753Y69243D01*
X118930Y69216D01*
X119253Y69107D01*
Y65736D01*
X118930Y65627D01*
X118753Y65599D01*
X117847Y66295D01*
X116768Y66741D01*
X115610Y66894D01*
X114453Y66741D01*
X113374Y66295D01*
X112448Y65584D01*
X111737Y64657D01*
X111290Y63579D01*
X111138Y62421D01*
X111290Y61264D01*
X111737Y60185D01*
X112448Y59259D01*
X113374Y58548D01*
X114453Y58101D01*
X115610Y57949D01*
X116768Y58101D01*
X117847Y58548D01*
X118753Y59243D01*
X118930Y59216D01*
X119253Y59106D01*
Y56659D01*
X116004D01*
Y52421D01*
Y48184D01*
X119253D01*
Y45736D01*
X118930Y45627D01*
X118753Y45599D01*
X117847Y46295D01*
X116768Y46741D01*
X115610Y46894D01*
X114453Y46741D01*
X113374Y46295D01*
X112448Y45584D01*
X111737Y44657D01*
X111290Y43579D01*
X111138Y42421D01*
X111290Y41264D01*
X111737Y40185D01*
X112448Y39259D01*
X113374Y38548D01*
X114453Y38101D01*
X115610Y37949D01*
X116768Y38101D01*
X117847Y38548D01*
X118753Y39243D01*
X118930Y39216D01*
X119253Y39107D01*
Y9055D01*
X119268Y8979D01*
X119140Y7676D01*
X118737Y6349D01*
X118084Y5127D01*
X117204Y4055D01*
X116133Y3176D01*
X114911Y2523D01*
X113584Y2120D01*
X112694Y2033D01*
X112480Y2021D01*
X112384Y2505D01*
X112477Y2533D01*
X113845Y3264D01*
X115043Y4248D01*
X116027Y5447D01*
X116759Y6815D01*
X117209Y8299D01*
X117361Y9843D01*
X117209Y11386D01*
X116759Y12870D01*
X116027Y14238D01*
X115043Y15437D01*
X113845Y16421D01*
X112477Y17152D01*
X110992Y17603D01*
X109449Y17755D01*
X107905Y17603D01*
X106421Y17152D01*
X105053Y16421D01*
X103854Y15437D01*
X102870Y14238D01*
X102139Y12870D01*
X101689Y11386D01*
X101537Y9843D01*
X101689Y8299D01*
X102139Y6815D01*
X102870Y5447D01*
X103854Y4248D01*
X105053Y3264D01*
X106421Y2533D01*
X106505Y2507D01*
X106431Y2007D01*
X80516D01*
X80238Y2423D01*
X80323Y2627D01*
X80418Y3347D01*
Y4331D01*
X74858D01*
Y3347D01*
X74953Y2627D01*
X75037Y2423D01*
X74760Y2007D01*
X46500Y2007D01*
X46222Y2423D01*
X46307Y2627D01*
X46402Y3347D01*
Y4331D01*
X40842D01*
Y3347D01*
X40937Y2627D01*
X41022Y2423D01*
X40744Y2007D01*
X14829D01*
X14754Y2507D01*
X14839Y2533D01*
X16207Y3264D01*
X17406Y4248D01*
X18390Y5447D01*
X19121Y6815D01*
X19571Y8299D01*
X19723Y9843D01*
X19571Y11386D01*
X19121Y12870D01*
X18390Y14238D01*
X17406Y15437D01*
X16207Y16421D01*
X14839Y17152D01*
X13355Y17603D01*
X11811Y17755D01*
X10267Y17603D01*
X8783Y17152D01*
X7415Y16421D01*
X6216Y15437D01*
X5232Y14238D01*
X4501Y12870D01*
X4051Y11386D01*
X3899Y9843D01*
X4051Y8299D01*
X4501Y6815D01*
X5232Y5447D01*
X6216Y4248D01*
X7415Y3264D01*
X8783Y2533D01*
X8876Y2505D01*
X8778Y2012D01*
X7676Y2120D01*
X6349Y2523D01*
X5127Y3176D01*
X4055Y4055D01*
X3176Y5127D01*
X2523Y6349D01*
X2120Y7676D01*
X1992Y8979D01*
X2007Y9055D01*
Y39098D01*
X2507Y39213D01*
X3374Y38548D01*
X4453Y38101D01*
X5610Y37949D01*
X6768Y38101D01*
X7846Y38548D01*
X8773Y39259D01*
X9483Y40185D01*
X9930Y41264D01*
X10083Y42421D01*
X9930Y43579D01*
X9483Y44657D01*
X8773Y45584D01*
X7846Y46295D01*
X6768Y46741D01*
X5610Y46894D01*
X4453Y46741D01*
X3374Y46295D01*
X2507Y45629D01*
X2007Y45744D01*
Y48184D01*
X5217D01*
Y52421D01*
Y56659D01*
X2007D01*
Y59098D01*
X2507Y59213D01*
X3374Y58548D01*
X4453Y58101D01*
X5610Y57949D01*
X6768Y58101D01*
X7846Y58548D01*
X8773Y59259D01*
X9483Y60185D01*
X9930Y61264D01*
X10083Y62421D01*
X9930Y63579D01*
X9483Y64657D01*
X8773Y65584D01*
X7846Y66295D01*
X6768Y66741D01*
X5610Y66894D01*
X4453Y66741D01*
X3374Y66295D01*
X2507Y65629D01*
X2007Y65745D01*
Y69098D01*
X2507Y69213D01*
X3374Y68548D01*
X4453Y68101D01*
X5610Y67949D01*
X6768Y68101D01*
X7846Y68548D01*
X8773Y69259D01*
X9483Y70185D01*
X9930Y71264D01*
X10083Y72421D01*
X9930Y73579D01*
X9483Y74657D01*
X8773Y75584D01*
X7846Y76295D01*
X6768Y76741D01*
X5610Y76894D01*
X4453Y76741D01*
X3374Y76295D01*
X2507Y75629D01*
X2007Y75744D01*
Y79098D01*
X2507Y79213D01*
X3374Y78548D01*
X4453Y78101D01*
X5610Y77949D01*
X6768Y78101D01*
X7846Y78548D01*
X8773Y79259D01*
X9483Y80185D01*
X9930Y81264D01*
X9951Y81418D01*
X22962D01*
X23021Y81328D01*
X23523Y80993D01*
X24114Y80876D01*
X24706Y80993D01*
X25207Y81328D01*
X25267Y81418D01*
X36839D01*
X36899Y81328D01*
X37400Y80993D01*
X37991Y80876D01*
X38583Y80993D01*
X39084Y81328D01*
X39419Y81830D01*
X39537Y82421D01*
X39419Y83013D01*
X39084Y83514D01*
X38583Y83849D01*
X37991Y83967D01*
X37400Y83849D01*
X36899Y83514D01*
X36839Y83425D01*
X25267D01*
X25207Y83514D01*
X24706Y83849D01*
X24114Y83967D01*
X23523Y83849D01*
X23021Y83514D01*
X22962Y83425D01*
X9951D01*
X9930Y83579D01*
X9483Y84658D01*
X8773Y85584D01*
X7846Y86295D01*
X6768Y86741D01*
X5610Y86894D01*
X4453Y86741D01*
X3374Y86295D01*
X2507Y85629D01*
X2007Y85745D01*
Y87684D01*
X5217D01*
Y91921D01*
Y96159D01*
X2007D01*
Y99098D01*
X2507Y99213D01*
X3374Y98548D01*
X4453Y98101D01*
X5610Y97949D01*
X6768Y98101D01*
X7846Y98548D01*
X8773Y99259D01*
X9483Y100185D01*
X9930Y101264D01*
X10083Y102421D01*
X9930Y103579D01*
X9483Y104657D01*
X8773Y105584D01*
X7846Y106295D01*
X6768Y106741D01*
X5610Y106894D01*
X4453Y106741D01*
X3374Y106295D01*
X2507Y105629D01*
X2007Y105745D01*
Y109098D01*
X2507Y109213D01*
X3374Y108548D01*
X4453Y108101D01*
X5610Y107949D01*
X6768Y108101D01*
X7846Y108548D01*
X8773Y109259D01*
X9483Y110185D01*
X9930Y111264D01*
X10083Y112421D01*
X9930Y113579D01*
X9483Y114657D01*
X8773Y115584D01*
X7846Y116295D01*
X6768Y116741D01*
X5610Y116894D01*
X4453Y116741D01*
X3374Y116295D01*
X2507Y115629D01*
X2007Y115744D01*
Y119598D01*
X2507Y119713D01*
X3374Y119048D01*
X4453Y118601D01*
X5610Y118449D01*
X6768Y118601D01*
X7846Y119048D01*
X8773Y119759D01*
X9483Y120685D01*
X9930Y121764D01*
X10083Y122921D01*
X9930Y124079D01*
X9483Y125157D01*
X8773Y126084D01*
X7846Y126795D01*
X6768Y127241D01*
X5610Y127394D01*
X4453Y127241D01*
X3374Y126795D01*
X2507Y126129D01*
X2007Y126244D01*
Y129098D01*
X2507Y129213D01*
X3374Y128548D01*
X4453Y128101D01*
X5610Y127949D01*
X6768Y128101D01*
X7846Y128548D01*
X8773Y129259D01*
X9483Y130185D01*
X9930Y131264D01*
X10083Y132421D01*
X9930Y133579D01*
X9483Y134658D01*
X8773Y135584D01*
X7846Y136295D01*
X6768Y136741D01*
X5610Y136894D01*
X4453Y136741D01*
X3374Y136295D01*
X2507Y135629D01*
X2007Y135745D01*
Y139098D01*
X2507Y139213D01*
X3374Y138548D01*
X4453Y138101D01*
X5610Y137949D01*
X6768Y138101D01*
X7846Y138548D01*
X8773Y139259D01*
X9483Y140185D01*
X9930Y141264D01*
X10083Y142421D01*
X9930Y143579D01*
X9483Y144658D01*
X8773Y145584D01*
X7846Y146295D01*
X6768Y146741D01*
X5610Y146894D01*
X4453Y146741D01*
X3374Y146295D01*
X2507Y145629D01*
X2007Y145745D01*
Y149098D01*
X2507Y149213D01*
X3374Y148548D01*
X4453Y148101D01*
X5610Y147949D01*
X6768Y148101D01*
X7846Y148548D01*
X8773Y149259D01*
X9483Y150185D01*
X9930Y151264D01*
X10083Y152421D01*
X9930Y153579D01*
X9483Y154657D01*
X8773Y155584D01*
X7846Y156295D01*
X6768Y156741D01*
X5610Y156894D01*
X4453Y156741D01*
X3374Y156295D01*
X2507Y155629D01*
X2007Y155745D01*
Y159098D01*
X2507Y159213D01*
X3374Y158548D01*
X4453Y158101D01*
X5610Y157949D01*
X6768Y158101D01*
X7846Y158548D01*
X8773Y159259D01*
X9483Y160185D01*
X9930Y161264D01*
X10083Y162421D01*
X9930Y163579D01*
X9483Y164657D01*
X8773Y165584D01*
X7846Y166295D01*
X6768Y166741D01*
X5610Y166894D01*
X4453Y166741D01*
X3374Y166295D01*
X2507Y165629D01*
X2007Y165744D01*
Y169378D01*
X2481Y169539D01*
X2588Y169399D01*
X3473Y168720D01*
X4504Y168293D01*
X5217Y168199D01*
Y172421D01*
Y176643D01*
X4504Y176550D01*
X3473Y176123D01*
X2588Y175443D01*
X2481Y175303D01*
X2007Y175464D01*
Y179098D01*
X2507Y179213D01*
X3374Y178548D01*
X4453Y178101D01*
X5610Y177949D01*
X6768Y178101D01*
X7800Y178529D01*
X11689Y174639D01*
Y142954D01*
X11466Y142619D01*
X11348Y142028D01*
X11466Y141436D01*
X11801Y140935D01*
X12302Y140600D01*
X12894Y140482D01*
X13485Y140600D01*
X13986Y140935D01*
X14322Y141436D01*
X14439Y142028D01*
X14322Y142619D01*
X14098Y142954D01*
Y175138D01*
X14006Y175599D01*
X13745Y175989D01*
X13745Y175989D01*
X9503Y180232D01*
X9930Y181264D01*
X10083Y182421D01*
X9930Y183579D01*
X9483Y184658D01*
X8773Y185584D01*
X7846Y186295D01*
X6768Y186741D01*
X5610Y186894D01*
X4453Y186741D01*
X3374Y186295D01*
X2507Y185629D01*
X2007Y185745D01*
Y214961D01*
X1992Y215037D01*
X2120Y216340D01*
X2523Y217667D01*
X3176Y218889D01*
X4055Y219960D01*
X5127Y220840D01*
X6349Y221493D01*
X7676Y221895D01*
X8778Y222004D01*
X8876Y221511D01*
X8783Y221483D01*
X7415Y220752D01*
X6216Y219768D01*
X5232Y218569D01*
X4501Y217201D01*
X4051Y215717D01*
X3899Y214173D01*
X4051Y212630D01*
X4501Y211145D01*
X5232Y209777D01*
X6216Y208578D01*
X7415Y207594D01*
X8783Y206863D01*
X10267Y206413D01*
X11811Y206261D01*
X13355Y206413D01*
X14839Y206863D01*
X16207Y207594D01*
X17406Y208578D01*
X18390Y209777D01*
X19121Y211145D01*
X19571Y212630D01*
X19723Y214173D01*
X19571Y215717D01*
X19121Y217201D01*
X18390Y218569D01*
X17406Y219768D01*
X16207Y220752D01*
X14839Y221483D01*
X14754Y221509D01*
X14829Y222009D01*
X106431Y222009D01*
X106505Y221509D01*
D02*
G37*
%LPC*%
G36*
X79035Y216467D02*
X40695D01*
Y210138D01*
X79035D01*
Y216467D01*
D02*
G37*
G36*
X96964Y194969D02*
Y191595D01*
X100339D01*
X100260Y192190D01*
X99879Y193111D01*
X99272Y193902D01*
X98480Y194509D01*
X97559Y194891D01*
X96964Y194969D01*
D02*
G37*
G36*
X96177D02*
X95582Y194891D01*
X94660Y194509D01*
X93869Y193902D01*
X93262Y193111D01*
X92880Y192190D01*
X92802Y191595D01*
X96177D01*
Y194969D01*
D02*
G37*
G36*
X100339Y190807D02*
X96964D01*
Y187433D01*
X97559Y187511D01*
X98480Y187892D01*
X99272Y188500D01*
X99879Y189291D01*
X100260Y190212D01*
X100339Y190807D01*
D02*
G37*
G36*
X96177D02*
X92802D01*
X92880Y190212D01*
X93262Y189291D01*
X93869Y188500D01*
X94660Y187892D01*
X95582Y187511D01*
X96177Y187433D01*
Y190807D01*
D02*
G37*
G36*
X106299Y191223D02*
X105259Y191086D01*
X104290Y190685D01*
X103458Y190046D01*
X102819Y189214D01*
X102418Y188245D01*
X102281Y187205D01*
X102418Y186165D01*
X102819Y185195D01*
X103458Y184363D01*
X104290Y183724D01*
X105259Y183323D01*
X106299Y183186D01*
X107339Y183323D01*
X108308Y183724D01*
X109141Y184363D01*
X109779Y185195D01*
X110181Y186165D01*
X110318Y187205D01*
X110181Y188245D01*
X109779Y189214D01*
X109141Y190046D01*
X108308Y190685D01*
X107339Y191086D01*
X106299Y191223D01*
D02*
G37*
G36*
X6004Y176643D02*
Y172815D01*
X9832D01*
X9739Y173527D01*
X9312Y174558D01*
X8632Y175443D01*
X7747Y176123D01*
X6716Y176550D01*
X6004Y176643D01*
D02*
G37*
G36*
X9832Y172028D02*
X6004D01*
Y168199D01*
X6716Y168293D01*
X7747Y168720D01*
X8632Y169399D01*
X9312Y170284D01*
X9739Y171315D01*
X9832Y172028D01*
D02*
G37*
G36*
X52953Y142589D02*
X52362Y142471D01*
X51860Y142136D01*
X51525Y141635D01*
X51408Y141043D01*
X51429Y140938D01*
X43343Y132852D01*
X43125Y132526D01*
X43049Y132142D01*
Y124775D01*
X42960Y124715D01*
X42625Y124213D01*
X42507Y123622D01*
X42625Y123031D01*
X42960Y122529D01*
X43461Y122194D01*
X44052Y122077D01*
X44644Y122194D01*
X45145Y122529D01*
X45480Y123031D01*
X45598Y123622D01*
X45480Y124213D01*
X45145Y124715D01*
X45056Y124775D01*
Y131727D01*
X52848Y139519D01*
X52953Y139498D01*
X53545Y139615D01*
X54046Y139951D01*
X54381Y140452D01*
X54499Y141043D01*
X54381Y141635D01*
X54046Y142136D01*
X53545Y142471D01*
X52953Y142589D01*
D02*
G37*
G36*
X27658Y136119D02*
Y133666D01*
X30112D01*
X30065Y134022D01*
X29775Y134722D01*
X29315Y135322D01*
X28714Y135783D01*
X28015Y136072D01*
X27658Y136119D01*
D02*
G37*
G36*
X26871D02*
X26515Y136072D01*
X25815Y135783D01*
X25215Y135322D01*
X24754Y134722D01*
X24465Y134022D01*
X24418Y133666D01*
X26871D01*
Y136119D01*
D02*
G37*
G36*
X16871Y138235D02*
X16069Y138130D01*
X15322Y137820D01*
X14681Y137328D01*
X14189Y136687D01*
X13879Y135940D01*
X13774Y135138D01*
X13879Y134336D01*
X14189Y133589D01*
X14681Y132948D01*
X15322Y132455D01*
X16069Y132146D01*
X16871Y132040D01*
X17673Y132146D01*
X18420Y132455D01*
X19061Y132948D01*
X19553Y133589D01*
X19863Y134336D01*
X19968Y135138D01*
X19863Y135940D01*
X19553Y136687D01*
X19061Y137328D01*
X18420Y137820D01*
X17673Y138130D01*
X16871Y138235D01*
D02*
G37*
G36*
X26871Y132878D02*
X24418D01*
X24465Y132522D01*
X24754Y131823D01*
X25215Y131222D01*
X25815Y130762D01*
X26515Y130472D01*
X26871Y130425D01*
Y132878D01*
D02*
G37*
G36*
X30112D02*
X27658D01*
Y130425D01*
X28015Y130472D01*
X28714Y130762D01*
X29315Y131222D01*
X29775Y131823D01*
X30065Y132522D01*
X30112Y132878D01*
D02*
G37*
G36*
X17265Y129225D02*
Y126772D01*
X19718D01*
X19671Y127128D01*
X19381Y127827D01*
X18921Y128428D01*
X18320Y128888D01*
X17621Y129178D01*
X17265Y129225D01*
D02*
G37*
G36*
X16477D02*
X16121Y129178D01*
X15422Y128888D01*
X14821Y128428D01*
X14361Y127827D01*
X14071Y127128D01*
X14024Y126772D01*
X16477D01*
Y129225D01*
D02*
G37*
G36*
X19718Y125984D02*
X17265D01*
Y123531D01*
X17621Y123578D01*
X18320Y123867D01*
X18921Y124328D01*
X19381Y124928D01*
X19671Y125628D01*
X19718Y125984D01*
D02*
G37*
G36*
X16477D02*
X14024D01*
X14071Y125628D01*
X14361Y124928D01*
X14821Y124328D01*
X15422Y123867D01*
X16121Y123578D01*
X16477Y123531D01*
Y125984D01*
D02*
G37*
G36*
X115217Y126159D02*
X111373D01*
Y122315D01*
X115217D01*
Y126159D01*
D02*
G37*
G36*
Y121528D02*
X111373D01*
Y117684D01*
X115217D01*
Y121528D01*
D02*
G37*
G36*
X38275Y119511D02*
X37684Y119394D01*
X37182Y119059D01*
X36847Y118558D01*
X36730Y117966D01*
X36847Y117375D01*
X37182Y116873D01*
X37684Y116538D01*
X38275Y116421D01*
X38380Y116442D01*
X42735Y112087D01*
X43060Y111870D01*
X43444Y111793D01*
X64832D01*
X64892Y111704D01*
X65393Y111369D01*
X65985Y111251D01*
X66576Y111369D01*
X67077Y111704D01*
X67413Y112205D01*
X67530Y112797D01*
X67413Y113388D01*
X67077Y113890D01*
X66576Y114225D01*
X65985Y114342D01*
X65393Y114225D01*
X64892Y113890D01*
X64832Y113800D01*
X43860D01*
X39800Y117861D01*
X39821Y117966D01*
X39703Y118558D01*
X39368Y119059D01*
X38866Y119394D01*
X38275Y119511D01*
D02*
G37*
G36*
X60098Y105519D02*
X59296Y105413D01*
X58549Y105104D01*
X57907Y104611D01*
X57415Y103970D01*
X57106Y103223D01*
X57000Y102421D01*
X57106Y101620D01*
X57415Y100873D01*
X57907Y100231D01*
X58549Y99739D01*
X59296Y99429D01*
X60098Y99324D01*
X60899Y99429D01*
X61646Y99739D01*
X62288Y100231D01*
X62780Y100873D01*
X63090Y101620D01*
X63195Y102421D01*
X63090Y103223D01*
X62780Y103970D01*
X62288Y104611D01*
X61646Y105104D01*
X60899Y105413D01*
X60098Y105519D01*
D02*
G37*
G36*
X52953Y96801D02*
X52362Y96683D01*
X51860Y96348D01*
X51525Y95846D01*
X51412Y95275D01*
X50528Y94390D01*
X30899D01*
X30414Y94714D01*
X29823Y94832D01*
X29231Y94714D01*
X28730Y94379D01*
X28395Y93878D01*
X28277Y93287D01*
X28395Y92695D01*
X28730Y92194D01*
X29231Y91859D01*
X29823Y91741D01*
X30414Y91859D01*
X30899Y92183D01*
X50985D01*
X51407Y92267D01*
X51765Y92506D01*
X52973Y93714D01*
X53545Y93827D01*
X54046Y94162D01*
X54381Y94664D01*
X54499Y95255D01*
X54381Y95846D01*
X54046Y96348D01*
X53545Y96683D01*
X52953Y96801D01*
D02*
G37*
G36*
X9848Y96159D02*
X6004D01*
Y92315D01*
X9848D01*
Y96159D01*
D02*
G37*
G36*
Y91528D02*
X6004D01*
Y87684D01*
X9848D01*
Y91528D01*
D02*
G37*
G36*
Y56659D02*
X6004D01*
Y52815D01*
X9848D01*
Y56659D01*
D02*
G37*
G36*
X115217D02*
X111373D01*
Y52815D01*
X115217D01*
Y56659D01*
D02*
G37*
G36*
Y52028D02*
X111373D01*
Y48184D01*
X115217D01*
Y52028D01*
D02*
G37*
G36*
X9848D02*
X6004D01*
Y48184D01*
X9848D01*
Y52028D01*
D02*
G37*
G36*
X78031Y23791D02*
Y20079D01*
X80418D01*
Y21063D01*
X80323Y21782D01*
X80045Y22453D01*
X79603Y23029D01*
X79028Y23470D01*
X78357Y23748D01*
X78031Y23791D01*
D02*
G37*
G36*
X77244D02*
X76918Y23748D01*
X76248Y23470D01*
X75672Y23029D01*
X75230Y22453D01*
X74953Y21782D01*
X74858Y21063D01*
Y20079D01*
X77244D01*
Y23791D01*
D02*
G37*
G36*
X44016D02*
Y20079D01*
X46402D01*
Y21063D01*
X46307Y21782D01*
X46029Y22453D01*
X45588Y23029D01*
X45012Y23470D01*
X44341Y23748D01*
X44016Y23791D01*
D02*
G37*
G36*
X43228D02*
X42903Y23748D01*
X42232Y23470D01*
X41657Y23029D01*
X41215Y22453D01*
X40937Y21782D01*
X40842Y21063D01*
Y20079D01*
X43228D01*
Y23791D01*
D02*
G37*
G36*
X80418Y19291D02*
X78031D01*
Y15579D01*
X78357Y15622D01*
X79028Y15900D01*
X79603Y16342D01*
X80045Y16917D01*
X80323Y17588D01*
X80418Y18307D01*
Y19291D01*
D02*
G37*
G36*
X77244D02*
X74858D01*
Y18307D01*
X74953Y17588D01*
X75230Y16917D01*
X75672Y16342D01*
X76248Y15900D01*
X76918Y15622D01*
X77244Y15579D01*
Y19291D01*
D02*
G37*
G36*
X46402D02*
X44016D01*
Y15579D01*
X44341Y15622D01*
X45012Y15900D01*
X45588Y16342D01*
X46029Y16917D01*
X46307Y17588D01*
X46402Y18307D01*
Y19291D01*
D02*
G37*
G36*
X43228D02*
X40842D01*
Y18307D01*
X40937Y17588D01*
X41215Y16917D01*
X41657Y16342D01*
X42232Y15900D01*
X42903Y15622D01*
X43228Y15579D01*
Y19291D01*
D02*
G37*
G36*
X78031Y8830D02*
Y5118D01*
X80418D01*
Y6102D01*
X80323Y6822D01*
X80045Y7492D01*
X79603Y8068D01*
X79028Y8510D01*
X78357Y8787D01*
X78031Y8830D01*
D02*
G37*
G36*
X77244D02*
X76918Y8787D01*
X76248Y8510D01*
X75672Y8068D01*
X75230Y7492D01*
X74953Y6822D01*
X74858Y6102D01*
Y5118D01*
X77244D01*
Y8830D01*
D02*
G37*
G36*
X44016D02*
Y5118D01*
X46402D01*
Y6102D01*
X46307Y6822D01*
X46029Y7492D01*
X45588Y8068D01*
X45012Y8510D01*
X44341Y8787D01*
X44016Y8830D01*
D02*
G37*
G36*
X43228D02*
X42903Y8787D01*
X42232Y8510D01*
X41657Y8068D01*
X41215Y7492D01*
X40937Y6822D01*
X40842Y6102D01*
Y5118D01*
X43228D01*
Y8830D01*
D02*
G37*
%LPD*%
D10*
X35236Y114529D02*
X36968Y112797D01*
X35236Y114529D02*
Y120583D01*
X38275Y117966D02*
X43444Y112797D01*
X36968D02*
X41438Y108327D01*
X35236Y120583D02*
X38275Y123622D01*
X41438Y108327D02*
X70276D01*
X43444Y112797D02*
X65985D01*
X44052Y123622D02*
Y132142D01*
X52953Y141043D01*
X75875Y150965D02*
X83386D01*
X42876Y117966D02*
X75875Y150965D01*
X83386D02*
X91732Y142618D01*
X85817Y114612D02*
X100464Y129260D01*
X115413Y142618D02*
X115610Y142421D01*
X91732Y142618D02*
X115413D01*
X84350Y145374D02*
X100464Y129260D01*
X80512Y145374D02*
X84350D01*
X100464Y129260D02*
X103626Y132421D01*
X115610D01*
X24114Y82421D02*
X37991D01*
X5610D02*
X24114D01*
D66*
X5610Y182421D02*
X12894Y175138D01*
Y142028D02*
Y175138D01*
D67*
X61083Y92246D02*
X61386D01*
X61552Y92412D01*
X50985Y93287D02*
X52953Y95255D01*
X29823Y93287D02*
X50985D01*
X32874Y121558D02*
Y128051D01*
X64567Y159744D02*
X84153D01*
X32874Y128051D02*
X64567Y159744D01*
X41831Y171949D02*
X115138D01*
X22623Y152741D02*
X41831Y171949D01*
X22623Y87795D02*
Y152741D01*
X84153Y159744D02*
X96555Y147343D01*
X102362D01*
X105413Y150394D01*
Y158366D01*
X109468Y162421D02*
X115610D01*
X105413Y158366D02*
X109468Y162421D01*
X115138Y171949D02*
X115610Y172421D01*
X26083Y114767D02*
X32874Y121558D01*
X26083Y91535D02*
Y114767D01*
Y91535D02*
X29740Y87878D01*
X37023D01*
X98228Y156693D02*
Y169291D01*
X98278Y169341D01*
D68*
X66614Y11713D02*
X70276Y15374D01*
Y108327D01*
D69*
X77445Y214877D02*
Y212253D01*
X76920Y211728D01*
X75871D01*
X75346Y212253D01*
Y214877D01*
X74296Y213827D02*
Y211728D01*
Y212778D01*
X73772Y213303D01*
X73247Y213827D01*
X72722D01*
X71148Y211728D02*
X69573D01*
X69049Y212253D01*
X69573Y212778D01*
X70623D01*
X71148Y213303D01*
X70623Y213827D01*
X69049D01*
X67999D02*
Y212253D01*
X67474Y211728D01*
X65900D01*
Y213827D01*
X64850Y211728D02*
X63801D01*
X64326D01*
Y214877D01*
X64850D01*
X61702Y213827D02*
X60652D01*
X60128Y213303D01*
Y211728D01*
X61702D01*
X62227Y212253D01*
X61702Y212778D01*
X60128D01*
X53830Y214877D02*
X55929D01*
Y211728D01*
X53830D01*
X55929Y213303D02*
X54880D01*
X50682Y214877D02*
Y211728D01*
X52256D01*
X52781Y212253D01*
Y213303D01*
X52256Y213827D01*
X50682D01*
X49632Y211728D02*
X48583D01*
X49108D01*
Y213827D01*
X49632D01*
X46484Y214352D02*
Y213827D01*
X47008D01*
X45959D01*
X46484D01*
Y212253D01*
X45959Y211728D01*
X44385Y214877D02*
Y211728D01*
Y213303D01*
X43860Y213827D01*
X42810D01*
X42286Y213303D01*
Y211728D01*
X117504Y202175D02*
Y196177D01*
X114505D01*
X113505Y197177D01*
Y198177D01*
X114505Y199176D01*
X117504D01*
X114505D01*
X113505Y200176D01*
Y201175D01*
X114505Y202175D01*
X117504D01*
X110506Y196177D02*
X108507D01*
X107507Y197177D01*
Y199176D01*
X108507Y200176D01*
X110506D01*
X111506Y199176D01*
Y197177D01*
X110506Y196177D01*
X104508Y201175D02*
Y200176D01*
X105508D01*
X103508D01*
X104508D01*
Y197177D01*
X103508Y196177D01*
D70*
X96570Y191201D02*
D03*
X106299Y187205D02*
D03*
D71*
X27265Y133272D02*
D03*
X16871Y135138D02*
D03*
Y126378D02*
D03*
X60098Y102421D02*
D03*
D72*
X115610Y42421D02*
D03*
Y82421D02*
D03*
Y72421D02*
D03*
Y62421D02*
D03*
Y92421D02*
D03*
Y102421D02*
D03*
Y112421D02*
D03*
Y172421D02*
D03*
Y162421D02*
D03*
Y152921D02*
D03*
Y142421D02*
D03*
Y132421D02*
D03*
Y182421D02*
D03*
X5610Y42421D02*
D03*
Y82421D02*
D03*
Y72421D02*
D03*
Y62421D02*
D03*
Y102421D02*
D03*
Y112421D02*
D03*
Y122921D02*
D03*
Y162421D02*
D03*
Y152421D02*
D03*
Y142421D02*
D03*
Y132421D02*
D03*
Y172421D02*
D03*
Y182421D02*
D03*
D73*
X115610Y52421D02*
D03*
Y121921D02*
D03*
X5610Y52421D02*
D03*
Y91921D02*
D03*
D74*
X77638Y4724D02*
D03*
X43622D02*
D03*
X77638Y19685D02*
D03*
X43622D02*
D03*
D75*
X11811Y9843D02*
D03*
Y214173D02*
D03*
X109449Y9843D02*
D03*
Y214173D02*
D03*
D76*
X66663Y87795D02*
D03*
X61552Y92412D02*
D03*
X52953Y95255D02*
D03*
X12894Y142028D02*
D03*
X38275Y117966D02*
D03*
X36968Y112797D02*
D03*
X65985D02*
D03*
X52953Y141043D02*
D03*
X44052Y123622D02*
D03*
X42876Y117966D02*
D03*
X29823Y93287D02*
D03*
X37023Y87878D02*
D03*
X98278Y169341D02*
D03*
X22623Y87795D02*
D03*
X98228Y156693D02*
D03*
X38275Y123622D02*
D03*
X80512Y145374D02*
D03*
X85817Y114612D02*
D03*
X37991Y82421D02*
D03*
X24114D02*
D03*
D77*
X70276Y108327D02*
D03*
D78*
X66614Y11713D02*
D03*
M02*
